<?xml version="1.0" encoding="UTF-8"?>
<!DOCTYPE svg PUBLIC "-//W3C//DTD SVG 1.1//EN" "http://www.w3.org/Graphics/SVG/1.1/DTD/svg11.dtd">
<!-- Creator: CorelDRAW 2019 (64-Bit) -->
<svg xmlns="http://www.w3.org/2000/svg" xml:space="preserve" width="7.4506mm" height="7.4506mm" version="1.1" style="shape-rendering:geometricPrecision; text-rendering:geometricPrecision; image-rendering:optimizeQuality; fill-rule:evenodd; clip-rule:evenodd"
viewBox="0 0 7.4506 7.4506"
 xmlns:xlink="http://www.w3.org/1999/xlink"
 xmlns:xodm="http://www.corel.com/coreldraw/odm/2003">
 <defs>
  <style type="text/css">
   <![CDATA[
    .fil1 {fill:#98CBFC}
    .fil0 {fill:#DEEFFD}
   ]]>
  </style>
 </defs>
 <g id="Слой_x0020_1">
  <metadata id="CorelCorpID_0Corel-Layer"/>
  <g id="_2609860848688">
   <path class="fil0" d="M2.5776 6.8581c-0.0528,0 -0.1144,-0.0218 -0.1425,-0.0475 -0.0668,-0.061 -0.0738,-0.1347 -0.0492,-0.2223 0.0585,-0.2087 0.3119,-0.1944 0.3865,-0.0225 0.0335,0.0769 0.0206,0.1865 -0.0403,0.2375 -0.0355,0.0297 -0.091,0.0548 -0.1545,0.0548zm4.7316 -3.8555l0 0.194c-0.0026,0.1286 -0.0159,0.2505 -0.0729,0.3756 -0.0436,0.0956 -0.0976,0.1951 -0.1693,0.2739 -0.0097,0.0106 -0.0085,0.0087 -0.0178,0.0211 -0.0104,0.0141 -0.0256,0.027 -0.0381,0.0397 -0.0252,0.0251 -0.0546,0.0595 -0.0816,0.0791 -0.0453,0.0327 -0.0871,0.073 -0.1352,0.1032 -0.0094,0.006 -0.0152,0.0084 -0.0245,0.0145 -0.1349,0.0887 -0.3082,0.1583 -0.4731,0.1695 -0.0186,0.0012 -0.0127,0.0042 -0.0338,0.005 -0.1372,0.0051 -0.3137,0.0003 -0.4354,0.0417 -0.0619,0.0211 -0.1086,0.0509 -0.1621,0.0813 -0.0177,0.0102 -0.0303,0.0216 -0.0454,0.0325l-0.1084 0.0962c-0.045,0.0498 -0.1297,0.1476 -0.1819,0.1782l-0.0513 0.0267 -0.9805 0.9763c-0.0641,0.0864 -0.2421,0.2224 -0.3462,0.3597 -0.0098,0.0129 -0.0102,0.015 -0.022,0.0266l-0.8325 0.8325c-0.0584,0.0583 -0.1152,0.1149 -0.1776,0.1679l-0.0713 0.0552c-0.0788,0.0526 -0.1621,0.0944 -0.2658,0.0944 -0.1105,0 -0.1671,-0.0202 -0.2636,-0.0577 -0.1086,-0.0423 -0.225,-0.1654 -0.2769,-0.2683 -0.0922,-0.1838 -0.0499,-0.4692 0.0913,-0.6098l0.3069 -0.3066c0.0653,-0.065 0.0343,-0.0638 0.1423,-0.1156l0.078 -0.079c0.0943,0.1279 0.2097,0.2316 0.393,0.2354 0.1499,0.0031 0.2688,-0.0313 0.3794,-0.1373 0.0953,-0.0913 0.1496,-0.2151 0.1524,-0.3472 0.0009,-0.0415 -0.0064,-0.0837 -0.0187,-0.1254 0.0658,-0.0019 0.1308,-0.0149 0.1897,-0.0385 0.2041,-0.0818 0.3155,-0.3327 0.2903,-0.5516 0.0007,0.0001 0.0015,0.0001 0.0022,0.0001 0.0954,0.0019 0.1514,-0.0047 0.2397,-0.0463 0.1654,-0.0781 0.2933,-0.2587 0.2972,-0.4434 0.0004,-0.0202 -0.0016,-0.0418 -0.0056,-0.0642 0.03,0.0019 0.0617,0.0029 0.0953,0.0036 0.0779,0.0016 0.154,-0.0213 0.2191,-0.064 0.0474,-0.031 0.0922,-0.0679 0.1256,-0.1141 0.1552,-0.2142 0.1545,-0.4036 0.0231,-0.6285l-0.0763 -0.1275 -0.006 -0.0082 -0.009 -0.0126c0.0037,-0.022 0.006,-0.0446 0.0063,-0.0652l0.0045 -0.2341c0.0011,-0.0831 0.0246,-0.1653 0.047,-0.2451 0.0152,-0.0548 0.0314,-0.0942 0.0521,-0.1426 0.0294,-0.0687 0.0591,-0.1286 0.0959,-0.1913 0.0492,-0.084 0.1091,-0.1454 0.1763,-0.2131 0.064,-0.0642 0.1428,-0.1197 0.2244,-0.1602l0.1346 -0.0602c0.1494,-0.058 0.3098,-0.0729 0.4723,-0.0729 0.0819,0 0.3072,0.0212 0.3748,0.0536 -0.0044,0.0162 -0.009,0.0164 -0.0207,0.028 -0.0637,0.0627 -0.1293,0.1242 -0.1892,0.1905l-0.3536 0.3571c-0.0157,0.0158 -0.035,0.0325 -0.0487,0.0488 -0.0099,0.0117 -0.0098,0.0147 -0.0218,0.0267 -0.0085,0.0085 -0.0135,0.0133 -0.022,0.0218 -0.0111,0.0112 -0.0936,0.0905 -0.0936,0.0963 0,0.0472 0.0227,0.1026 0.0382,0.1466 0.0115,0.033 0.0285,0.0606 0.0473,0.0889 0.0064,0.0096 0.0111,0.0182 0.0178,0.0261 0.0444,0.0521 0.2098,0.2097 0.2702,0.2702 0.0166,0.0165 0.0297,0.0296 0.0463,0.0463 0.0373,0.0378 0.1304,0.0764 0.1788,0.0888 0.0355,0.0091 0.076,0.0221 0.1073,0.0001 0.0075,-0.0053 0.0172,-0.0126 0.0251,-0.0187 0.0431,-0.0343 0.1587,-0.1415 0.185,-0.1753 0.01,-0.0127 0.0099,-0.0144 0.0222,-0.0265l0.2409 -0.2506c0.0315,-0.0311 0.0589,-0.059 0.0901,-0.0901 0.0165,-0.0164 0.0295,-0.0304 0.0462,-0.0463 0.0108,-0.0105 0.0138,-0.0097 0.0245,-0.0193 0.0323,-0.0293 0.0856,-0.0902 0.13,-0.0938 0.0011,0.0429 0.0193,0.0965 0.0293,0.1362 0.0103,0.041 0.0195,0.0905 0.0195,0.1412z"/>
   <path class="fil1" d="M2.5134 0.4999c-0.0067,0.029 -0.018,0.0377 -0.018,0.0782l0 0.1563c-0.1325,0 -0.4426,0.0013 -0.5534,-0.0117 -0.0271,-0.0032 -0.0736,-0.0027 -0.0994,0.002 -0.0545,0.0101 -0.1041,-0.0009 -0.1912,0.0192 -0.0597,0.0137 -0.0995,0.0326 -0.143,0.0614 -0.1189,0.0787 -0.1729,0.2098 -0.2464,0.3245 -0.009,0.014 -0.0127,0.0199 -0.0168,0.0373 -0.3694,-0.0861 -0.3694,0.0047 -0.5638,0.3017 -0.0098,0.0149 -0.0208,0.0326 -0.0293,0.0488 -0.0218,0.0415 -0.0332,0.0616 -0.0381,0.1182 -0.0036,0.0407 -0.0125,0.0999 -0.0047,0.1491 0.0103,0.0645 0.0048,0.1527 0.0048,0.2237 -0.1212,0 -0.1022,-0.0175 -0.1022,-0.1202l0 -0.8355c0,-0.0218 -0.0273,-0.0216 -0.0482,-0.0239 -0.1708,-0.0184 -0.3164,0.0311 -0.3926,0.1841 -0.0183,0.0369 -0.04,0.076 -0.04,0.1283l0 0.9557c0,0.1129 0.1331,0.0317 0.1322,0.3005l-0.006 0.7092c0,0.0925 0.0436,0.1665 0.1037,0.2269 0.0158,0.0159 0.0188,0.0171 0.0357,0.0304 0.1078,0.085 0.0721,0.0312 0.1671,0.0312 0.0287,-0.0597 0.0301,-0.2618 0.0301,-0.3306l0.0061 -0.1202c-0.0078,-0.1004 -0.0061,-0.1354 -0.0061,-0.2404 0,-0.0881 -0.006,-0.1552 -0.006,-0.2404l0.1502 0c0,0.0681 0,0.1362 0,0.2043 0.0001,0.07 -0.006,0.1241 -0.006,0.1984 0,0.1125 -0.0266,0.4973 0.0218,0.5852 0.0095,0.0173 0.011,0.0135 0.0214,0.0268 0.0356,0.0455 0.0956,0.0852 0.1323,0.1321 0.0102,0.0132 0.0089,0.0135 0.0214,0.0267 0.033,0.0348 0.0884,0.1247 0.1397,0.1247 0.0449,0 0.0741,-0.0133 0.1144,-0.0178 0.1181,-0.0134 0.278,0.0114 0.3929,-0.0098 0.0445,-0.0083 0.2141,-0.002 0.2539,0.0058 0.0824,0.0161 0.1143,0.0589 0.1629,0.1075l0.1923 0.2044c0.015,0.015 0.0218,0.0159 0.0362,0.0299l0.3667 0.3495c0.0985,-0.0868 0.2924,-0.2863 0.3489,-0.3415 -0.0237,-0.07 -0.1122,-0.1381 -0.1507,-0.1762l-0.2914 -0.3277 -0.1254 -0.1089c-0.0158,-0.0119 -0.0277,-0.0229 -0.0434,-0.0348 -0.0157,-0.0117 -0.0295,-0.0198 -0.0467,-0.0314 -0.1245,-0.0835 -0.4061,-0.0456 -0.5615,-0.0456 -0.2084,0 -0.3836,0.0432 -0.5469,-0.0662 0,-0.1302 0,-0.2604 0,-0.3906 0,-0.0705 -0.006,-0.1192 -0.006,-0.1864l-0.006 -0.7813c0,-0.0722 -0.006,-0.1214 -0.006,-0.1923l-0.0003 -0.2888c0.0055,-0.1965 0.586,-0.0213 0.7737,-0.4104 0.0128,-0.0265 0.0143,-0.0519 0.0259,-0.0762l2.5665 0c0.4532,0.0798 0.8649,0.4457 0.8247,0.9186 0,0 0.226,-0.2383 0.2967,-0.3011 0.1038,-0.092 -0.0155,-0.3808 -0.2317,-0.6245 -0.2424,-0.2734 -0.6277,-0.4496 -1.1976,-0.4451 -0.1855,0.0155 -0.3441,0.0134 -0.5095,0.0134l0 -0.1323c0,-0.0511 0.018,-0.075 0.018,-0.1202 0.1782,0 0.4193,0.0155 0.589,-0.024 0,-0.0676 0.0461,-0.3907 -0.0781,-0.3907l-2.1577 0c-0.0378,0 -0.0741,0.0401 -0.0949,0.0615 -0.0321,0.033 -0.0314,0.0627 -0.0314,0.1248 0.0001,0.1296 -0.03,0.1476 0.0865,0.22 0.0373,0.0232 0.076,0.021 0.1263,0.0301 0.0239,0.0043 0.0508,0.0022 0.0759,0.0022 0.0337,0 0.0381,0.0062 0.0719,0.0064l0.3066 -0.0123z"/>
   <path class="fil1" d="M3.7539 6.6221c0.045,0.0105 0.0874,0.0488 0.1274,0.0733l0.3973 0.2097c0.0123,0.0082 0.0195,0.0113 0.0312,0.019l0.0883 0.0622c0.0141,0.0103 0.0155,0.014 0.0271,0.0231 0.0553,0.0435 0.1058,0.1017 0.1528,0.1532 0.0278,0.0305 0.0928,0.1419 0.1141,0.1419 0.0212,0 0.0487,-0.0217 0.0652,-0.0302l0.2358 -0.1505c0.0109,-0.0073 0.0194,-0.0115 0.0312,-0.019l0.611 -0.4125 -0.0983 -0.9703c-0.0269,-0.1523 -0.0137,-0.1485 -0.1927,-0.1485 -0.0261,0 -0.0547,-0.0012 -0.0804,-0.0002 -0.0279,0.001 -0.014,0.0055 -0.0751,0.0052l-0.2238 0.0221c-0.0257,0.0044 -0.0523,0.0083 -0.0734,0.0118 -0.0712,0.012 -0.1305,0.0249 -0.1912,0.0547 -0.0493,0.0242 -0.0635,0.037 -0.1027,0.0629 -0.0388,0.0257 -0.0792,0.0613 -0.1125,0.0932 -0.0111,0.0107 -0.0143,0.01 -0.0252,0.0199 -0.0531,0.0479 -0.0848,0.0903 -0.1204,0.1255l-0.1981 0.2133c-0.0087,0.0102 -0.0073,0.0119 -0.0175,0.0226l-0.2735 0.2633c-0.0087,0.0104 -0.0071,0.012 -0.0175,0.0227 -0.0112,0.0116 -0.0108,0.0106 -0.0209,0.0242 -0.0212,0.0284 -0.0546,0.0635 -0.0582,0.1074z"/>
   <path class="fil1" d="M4.6369 5.0868c0,0.045 0.007,0.0961 0.0181,0.1324 0.0169,0.0557 0.0541,0.0997 0.1033,0.1276 0.1165,0.0661 0.3255,0.0356 0.4602,0.0206 0.0111,-0.0012 0.0388,-0.004 0.0536,-0.0066 0.0911,-0.0163 0.2528,-0.016 0.3272,0.033 0.0135,0.0089 0.0139,0.0113 0.0251,0.0201 0.012,0.0094 0.0161,0.0102 0.0273,0.0228 0.0078,0.0087 0.0141,0.0183 0.0217,0.0285 0.0393,0.0529 0.0574,0.1063 0.0711,0.1747 0.0102,0.0507 0.0207,0.123 0.0211,0.1796 0.0005,0.0548 0.0635,0.545 0.0703,0.6221 0.0026,0.0295 0.0102,0.0624 0.0102,0.0902 0.0439,-0.0103 0.161,-0.0963 0.2007,-0.1254l0.1876 -0.1385c0.0175,-0.0128 0.0304,-0.0202 0.0473,-0.033 0.0084,-0.0063 0.014,-0.0105 0.023,-0.0171l0.0871 -0.0734 0.0553 -0.0702c0.0741,-0.111 0.0568,-0.2141 0.0461,-0.335l-0.0551 -0.5269c-0.0016,-0.0585 -0.0281,-0.2175 -0.0352,-0.2809 -0.0056,-0.0494 -0.0215,-0.1205 -0.0467,-0.1641 -0.1059,-0.1833 -0.3254,-0.1668 -0.5072,-0.1241 -0.1673,0.0394 -0.4185,0.0775 -0.597,0.1105l-0.2007 0.035c-0.0353,0.0063 -0.0659,0.0123 -0.0983,0.0172 -0.1595,0.0239 -0.3161,0.0677 -0.3161,0.2809z"/>
   <path class="fil0" d="M3.8956 1.6558c-0.0647,-0.0109 -0.1024,-0.0305 -0.1206,0.0651 -0.0714,-0.006 -0.0856,0.0013 -0.0979,0.075l-0.0889 -0.0149 -0.0139 0.083c-0.0885,-0.0148 -0.0659,-0.0022 -0.1238,0.0387 -0.0292,0.0206 -0.0536,0.0394 -0.0829,0.0594l-0.2567 0.1671c-0.1354,0.0965 -0.1489,0.1365 -0.2353,0.2044l-0.6321 0.4385c-0.0153,0.0162 -0.0268,0.0244 -0.0355,0.0453l0.0178 0.003c-0.0103,0.0612 -0.0694,0.1097 -0.116,0.1375 -0.0635,0.0379 -0.1921,0.0647 -0.2163,0.2091 0.1951,0.0327 0.2345,-0.1251 0.3795,-0.1413 0.097,-0.0109 0.0587,0.0455 0.2004,-0.0556 0.0408,-0.0292 0.2063,-0.1107 0.2652,-0.1405l0.4361 -0.2303c0.0189,-0.0067 0.0282,-0.0081 0.0463,-0.0157 0.0173,-0.0072 0.0308,-0.0122 0.049,-0.019 0.0215,-0.008 0.0283,-0.0125 0.0504,-0.0171l0.0557 -0.0098c-0.0124,0.0863 0.0326,0.0947 0.0596,0.1246 0.079,0.0872 0.1053,0.2266 0.2772,0.15 0.0331,-0.0147 0.056,-0.0354 0.0852,-0.0561 0.2726,-0.1934 0.0022,-0.3607 -0.0128,-0.4376 -0.0052,-0.0266 0.0191,-0.0817 0.0259,-0.1224l0.083 0.0139 0.0148 -0.0889c0.0493,0.0082 0.0588,0.014 0.1038,-0.001 0.0083,-0.0493 0.0049,-0.0393 0.002,-0.0849 0.0631,0.0263 0.0346,0.0461 0.1015,0.0031l0.0905 -0.0487c0.0532,-0.0355 0.0447,-0.0115 0.0357,-0.1063 -0.0024,-0.0259 -0.0043,-0.0476 -0.0045,-0.0751 -0.001,-0.1087 0.0202,-0.1028 -0.0836,-0.1649 -0.0188,-0.0112 -0.0373,-0.0243 -0.0539,-0.0398 -0.0609,-0.0568 -0.048,-0.0382 -0.1179,-0.0673 -0.0292,0.0701 -0.068,0.0196 -0.087,0.1195z"/>
   <path class="fil1" d="M3.0581 5.8215c0.0882,0.0018 0.1521,-0.0103 0.2196,-0.0749 0.0477,-0.0458 0.0816,-0.1112 0.0833,-0.19 0.0014,-0.0682 -0.063,-0.1809 -0.0911,-0.2293 -0.0104,-0.0177 -0.0193,-0.03 -0.0303,-0.0476l-0.26 -0.3842c-0.0171,-0.0183 -0.024,-0.0236 -0.0496,-0.0344 -0.0677,-0.0285 -0.1949,-0.0405 -0.2675,-0.0059 -0.0266,0.0126 -0.0411,0.0288 -0.0612,0.048 -0.0166,0.0158 -0.0372,0.0422 -0.047,0.0628 -0.0488,0.1007 -0.0368,0.201 0.018,0.2946l0.1495 0.2348c0.0697,0.1101 0.1731,0.3227 0.3363,0.3261zm-0.1273 -1.4057c-0.0021,0.1014 0.0472,0.1772 0.0958,0.2607l0.0657 0.1005c0.0461,0.066 0.1702,0.2747 0.2016,0.3074 0.0394,0.041 0.0267,0.0391 0.0867,0.0804 0.0802,0.0554 0.2046,0.0596 0.2922,0.0244 0.1474,-0.059 0.1852,-0.3022 0.1228,-0.4072l-0.2049 -0.3299c-0.0564,-0.1018 -0.0945,-0.1642 -0.1742,-0.2467 -0.0861,-0.0891 -0.2452,-0.0933 -0.3525,-0.0236 -0.015,0.0094 -0.0179,0.0138 -0.0328,0.0243 -0.0261,0.0183 -0.0647,0.076 -0.0768,0.1064 -0.0106,0.027 -0.0229,0.0676 -0.0236,0.1033zm1.1225 0.2058c0.0624,0.0012 0.0838,0.0014 0.1395,-0.0249 0.0914,-0.0431 0.1666,-0.1491 0.1686,-0.2451 0.0017,-0.0825 -0.1189,-0.2861 -0.1667,-0.3613l-0.1891 -0.2939c-0.0067,-0.0108 -0.0104,-0.0177 -0.0181,-0.0285 -0.089,-0.1281 -0.2296,-0.1707 -0.3731,-0.1164 -0.0279,0.0107 -0.056,0.0267 -0.0785,0.046 -0.0545,0.0469 -0.1184,0.163 -0.1013,0.2636 0.0111,0.0659 0.0426,0.1176 0.0779,0.1703 0.008,0.0122 0.0173,0.0237 0.0263,0.0363l0.213 0.3474c0.0096,0.0149 0.0152,0.0226 0.0254,0.0369l0.055 0.0698c0.0114,0.012 0.0213,0.0183 0.0334,0.0294 0.0221,0.0201 0.0502,0.0349 0.0785,0.0474 0.0288,0.0124 0.068,0.0221 0.1092,0.023zm-0.0652 -1.3887c-0.0026,0.126 0.0421,0.1848 0.0967,0.2853l0.1395 0.2136c0.0093,0.0126 0.0079,0.012 0.0158,0.0258l0.1214 0.1902c0.0892,0.126 0.1655,0.1203 0.3186,0.1235 0.0368,0.0008 0.0679,-0.0118 0.0915,-0.0273 0.0242,-0.0158 0.0512,-0.0362 0.0669,-0.0581 0.1037,-0.1429 0.0962,-0.2379 0.011,-0.3837l-0.0699 -0.1169c-0.0661,-0.0908 -0.2223,-0.3597 -0.273,-0.4126 -0.0253,-0.0263 -0.0338,-0.0382 -0.0689,-0.0567 -0.0321,-0.0168 -0.0498,-0.0264 -0.0917,-0.0345 -0.0787,-0.0159 -0.1853,0.0051 -0.2428,0.0516 -0.0189,0.0154 -0.0339,0.0244 -0.0492,0.0445 -0.0155,0.0202 -0.0224,0.0207 -0.0384,0.056 -0.0141,0.0308 -0.0265,0.0526 -0.0275,0.0993z"/>
  </g>
 </g>
</svg>
