<?xml version="1.0" encoding="UTF-8"?>
<!DOCTYPE svg PUBLIC "-//W3C//DTD SVG 1.1//EN" "http://www.w3.org/Graphics/SVG/1.1/DTD/svg11.dtd">
<!-- Creator: CorelDRAW 2019 (64-Bit) -->
<svg xmlns="http://www.w3.org/2000/svg" xml:space="preserve" width="7.4506mm" height="7.4506mm" version="1.1" style="shape-rendering:geometricPrecision; text-rendering:geometricPrecision; image-rendering:optimizeQuality; fill-rule:evenodd; clip-rule:evenodd"
viewBox="0 0 7.4506 7.4506"
 xmlns:xlink="http://www.w3.org/1999/xlink"
 xmlns:xodm="http://www.corel.com/coreldraw/odm/2003">
 <defs>
  <style type="text/css">
   <![CDATA[
    .str0 {stroke:#045395;stroke-width:0.0762;stroke-miterlimit:22.9256}
    .fil2 {fill:none}
    .fil3 {fill:#4788C7}
    .fil0 {fill:#98CBFC}
    .fil1 {fill:#DEEFFD}
   ]]>
  </style>
 </defs>
 <g id="Слой_x0020_1">
  <metadata id="CorelCorpID_0Corel-Layer"/>
  <g id="_2609752432896">
   <path class="fil0" d="M1.1216 1.3397c-0.0099,0.0978 -0.0061,0.2408 -0.0059,0.3149 0.0004,0.1254 0.0048,0.2533 0.001,0.3766l-0.0285 2.2934c0.2473,0.0882 0.9665,0.1885 1.1853,0.2142 0.9977,0.1175 1.9079,0.1121 2.9057,0.0027 0.2125,-0.0234 0.963,-0.1304 1.2116,-0.2169l-0.0988 -2.9855c-0.0518,-0.0087 -0.1134,-0.0146 -0.1523,-0.0196 -0.134,-0.017 -0.2685,-0.0317 -0.4028,-0.0456 -0.192,-0.0198 -0.4294,-0.0523 -0.6205,-0.0523l-2.8117 0c-0.1957,0 -0.4351,0.0336 -0.6315,0.0546 -0.1828,0.0194 -0.3688,0.0386 -0.5516,0.0635z"/>
   <path class="fil0" d="M5.8073 0.8578c0.0209,-0.0689 0.0235,-0.4922 0.0052,-0.5613 -0.0328,-0.0968 -0.3528,-0.054 -0.4352,-0.054l-2.6088 0.0008c-0.2176,0 -0.4353,0.001 -0.6529,-0.0005 -0.0768,-0.0005 -0.4215,-0.032 -0.4572,0.0388 -0.02,0.0674 -0.0216,0.4974 -0.0047,0.567 0.0248,0.0875 0.3603,0.0483 0.4336,0.0483l3.261 0.0001c0.0874,0 0.4165,0.0405 0.459,-0.0392z"/>
   <path class="fil1" d="M6.385 5.7161c-0.0635,0.022 -0.8905,0.1009 -0.9945,0.0963 -0.0016,-0.11 -0.0197,-0.4068 0.0018,-0.494l1.0931 -0.1948c-0.0041,0.1046 -0.069,0.5177 -0.1004,0.5925zm-5.4093 -0.593c0.1934,0.0225 0.3631,0.0747 0.5466,0.1026 0.1788,0.0272 0.367,0.0628 0.5508,0.0919 0.0215,0.0951 0.0043,0.3826 0.003,0.4985l-1.0015 -0.0915 -0.0989 -0.6015zm0.014 -0.7347l0.0293 -2.3584c0.0051,-0.1655 -0.0138,-0.6542 0.0181,-0.7771 0.2096,-0.0305 1.0878,-0.1293 1.2676,-0.129l2.8117 -0.0001c0.1525,-0.0005 1.1884,0.1038 1.2708,0.1375l0.1034 3.1269c-0.1556,0.0841 -1.0683,0.2249 -1.3008,0.2504 -1.0399,0.1141 -1.8868,0.1199 -2.9277,-0.0027 -0.2356,-0.0277 -1.1097,-0.1603 -1.2724,-0.2475zm4.9074 -3.4929c-0.0766,0.1461 -0.2948,0.0972 -0.5488,0.0992l-3.261 -0.0001c-0.1814,-0.0011 -0.4782,0.0546 -0.5276,-0.1192 -0.0211,-0.0742 -0.0214,-0.5702 0.0084,-0.6305 0.0693,-0.1397 0.3298,-0.1013 0.5482,-0.0998 0.2173,0.0015 0.4348,-0.0001 0.6522,0.0005l2.6088 -0.0008c0.176,-0.0005 0.4678,-0.0565 0.5278,0.1203 0.0247,0.0728 0.0226,0.5721 -0.008,0.6304zm0.1306 -0.8841l-4.5656 0c-0.0288,-0.0009 -0.3416,0.0314 -0.5433,0.3679 -0.1472,0.2455 -0.1346,0.4515 -0.1416,0.7771 -0.0126,0.5913 -0.0408,1.1767 -0.0515,1.7682 -0.0105,0.5828 -0.0237,1.1935 -0.0526,1.7692 -0.0059,0.1184 -0.019,0.3374 -0.0062,0.4482 0.015,0.1309 0.1665,0.9375 0.1601,0.9843 -0.0059,0.0428 -0.0662,0.1015 -0.0939,0.1462 0.0003,0.0621 0.1491,0.6375 0.1802,0.6923 0.4019,0.0381 0.226,-0.0876 0.2748,0.2937 0.0272,0.2129 0.2213,0.1743 0.4064,0.1731 0.1191,-0.0007 0.4836,0.0159 0.5727,-0.0081 0.1758,-0.0474 0.1227,-0.2741 0.1328,-0.4474 0.1044,-0.024 0.4674,-0.0073 0.5989,-0.0073l2.1605 -0.001c0.0749,-0.0009 0.091,-0.0151 0.1022,0.0428 0.0042,0.0223 -0.0009,0.1297 -0.0008,0.1609 0.0006,0.2692 0.1185,0.2615 0.3614,0.2611 0.1575,-0.0003 0.4689,0.0172 0.6078,-0.0032 0.2125,-0.0311 0.1377,-0.281 0.163,-0.4592l0.272 -0.0026c0.033,-0.0741 0.1238,-0.4588 0.1626,-0.5949 0.0665,-0.2332 -0.1176,-0.0673 -0.0643,-0.3699l0.1128 -0.6685c0.0591,-0.3345 0.0019,-1.548 -0.0132,-1.9557 -0.0249,-0.6707 -0.0388,-1.3239 -0.0565,-1.9905 -0.0142,-0.5327 0.0147,-1.2794 -0.6787,-1.3767z"/>
   <path class="fil1" d="M0.1702 0.6551c-0.1794,0.0355 -0.1551,0.1676 -0.155,0.3419l-0.0006 0.9862c0.01,0.1675 0.1411,0.2271 0.317,0.1895 0.156,-0.0333 0.1459,-0.1863 0.1453,-0.3496l-0.0011 -0.9852c-0.0118,-0.1626 -0.1358,-0.2163 -0.3056,-0.1828z"/>
   <path class="fil1" d="M7.1168 0.6577c-0.1667,0.0416 -0.142,0.1808 -0.142,0.3538l0.0006 0.9831c0.0168,0.1573 0.1444,0.2225 0.3273,0.1765 0.1495,-0.0377 0.1338,-0.2057 0.1331,-0.3625l-0.002 -0.9852c-0.0164,-0.1615 -0.1629,-0.2043 -0.317,-0.1657z"/>
   <path class="fil0" d="M6.3091 5.6332c0.0241,-0.0915 0.0517,-0.2653 0.067,-0.3909l-0.8972 0.1599c-0.006,0.086 0.0009,0.2131 0.0057,0.3123 0.1266,-0.0049 0.2823,-0.0254 0.3917,-0.0359 0.1124,-0.0107 0.3072,-0.0215 0.4328,-0.0454z"/>
   <path class="fil0" d="M1.9864 5.4025c-0.1597,-0.0264 -0.3188,-0.0559 -0.4788,-0.0802 -0.1392,-0.0212 -0.2754,-0.0571 -0.4137,-0.0824l0.0648 0.3943 0.8234 0.0752c0.0045,-0.0992 0.0108,-0.2197 0.0043,-0.3069z"/>
   <polyline class="fil2 str0" points="2.2831,5.3716 3.7145,5.4973 5.1676,5.3914 "/>
   <polyline class="fil2 str0" points="2.3374,5.5315 3.7149,5.6572 5.1133,5.5513 "/>
   <polyline class="fil2 str0" points="2.4393,5.7009 3.7157,5.8266 5.0114,5.7207 "/>
   <polyline class="fil2 str0" points="2.522,5.8625 3.7163,5.9882 4.9287,5.8823 "/>
   <path class="fil3" d="M1.881 6.4898c-0.1029,-0.017 -0.2054,-0.036 -0.3084,-0.0517 -0.0896,-0.0136 -0.1774,-0.0368 -0.2665,-0.0531l0.0418 0.254 0.5303 0.0485c0.0029,-0.064 0.007,-0.1416 0.0028,-0.1977z"/>
   <path class="fil3" d="M5.5933 6.4898c0.1029,-0.017 0.2054,-0.036 0.3084,-0.0517 0.0896,-0.0136 0.1774,-0.0368 0.2665,-0.0531l-0.0418 0.254 -0.5303 0.0485c-0.0029,-0.064 -0.007,-0.1416 -0.0028,-0.1977z"/>
  </g>
 </g>
</svg>
