<?xml version="1.0" encoding="UTF-8"?>
<!DOCTYPE svg PUBLIC "-//W3C//DTD SVG 1.1//EN" "http://www.w3.org/Graphics/SVG/1.1/DTD/svg11.dtd">
<!-- Creator: CorelDRAW 2019 (64-Bit) -->
<svg xmlns="http://www.w3.org/2000/svg" xml:space="preserve" width="9.0592mm" height="7.9586mm" version="1.1" style="shape-rendering:geometricPrecision; text-rendering:geometricPrecision; image-rendering:optimizeQuality; fill-rule:evenodd; clip-rule:evenodd"
viewBox="0 0 9.0592 7.9586"
 xmlns:xlink="http://www.w3.org/1999/xlink"
 xmlns:xodm="http://www.corel.com/coreldraw/odm/2003">
 <defs>
  <style type="text/css">
   <![CDATA[
    .fil2 {fill:#4788C7}
    .fil1 {fill:#98CBFC}
    .fil0 {fill:#DEEFFD}
   ]]>
  </style>
 </defs>
 <g id="Слой_x0020_1">
  <metadata id="CorelCorpID_0Corel-Layer"/>
  <g id="_2609649627488">
   <path class="fil0" d="M6.6167 5.018c0,-0.0417 0.0439,-0.0928 0.1185,-0.0928 0.0415,0 0.0583,0.0061 0.0829,0.0274 0.0418,0.0362 0.0354,0.0732 0.0354,0.1192 0,0.0394 -0.0564,0.0907 -0.1004,0.0907l-0.0359 0c-0.0439,0 -0.1005,-0.0508 -0.1005,-0.0907l0 -0.0538zm-0.4732 0c0,-0.0775 0.1266,-0.1308 0.2015,-0.0652 0.0417,0.0366 0.0353,0.0729 0.0353,0.119 0,0.0384 -0.0561,0.0907 -0.1001,0.0907l-0.0359 0c-0.0439,0 -0.1008,-0.0497 -0.1008,-0.0907l0 -0.0538zm-0.4732 0c0,-0.116 0.2384,-0.1442 0.2372,0.03 -0.0002,0.037 -0.0095,0.0566 -0.028,0.0783 -0.0354,0.0411 -0.0748,0.0362 -0.1201,0.0362 -0.0324,0 -0.0891,-0.0535 -0.0891,-0.0907l0 -0.0538zm-0.4732 0.006c0,-0.0471 0.0516,-0.0983 0.0894,-0.0983l0.0479 0c0.0903,0 0.1329,0.1287 0.0719,0.2003 -0.0354,0.0415 -0.0746,0.0365 -0.1198,0.0365 -0.0333,0 -0.0894,-0.0533 -0.0894,-0.0907l0 -0.0478zm-0.4732 0c0,-0.0206 0.0161,-0.0465 0.0246,-0.0593 0.0666,-0.1012 0.2617,-0.0123 0.2072,0.1244 -0.0305,0.0767 -0.0892,0.0734 -0.1421,0.0734 -0.0342,0 -0.0897,-0.0532 -0.0897,-0.0907l0 -0.0478zm-0.4733 0c0,-0.081 0.1257,-0.1393 0.2018,-0.0702 0.0391,0.0356 0.0351,0.0683 0.0351,0.1121 0,0.0429 -0.055,0.0966 -0.0989,0.0966l-0.0479 0c-0.0352,0 -0.0901,-0.0533 -0.0901,-0.0907l0 -0.0478zm-0.4732 0c0,-0.0263 0.0237,-0.0589 0.0376,-0.0712 0.0289,-0.0258 0.0428,-0.0279 0.0828,-0.0276 0.0374,0.0003 0.0596,0.0087 0.0815,0.0289 0.0389,0.0358 0.0349,0.0679 0.0349,0.1118 0,0.042 -0.0548,0.0966 -0.0985,0.0966l-0.0479 0c-0.0361,0 -0.0904,-0.0535 -0.0904,-0.0907l0 -0.0478zm-0.4732 0c0,-0.078 0.1264,-0.1449 0.2049,-0.0664 0.0284,0.0284 0.0461,0.0888 0.0261,0.1345 -0.032,0.0734 -0.0901,0.0704 -0.1403,0.0704 -0.038,0 -0.0907,-0.0527 -0.0907,-0.0907l0 -0.0478zm-0.4732 0c0,-0.044 0.055,-0.0983 0.0969,-0.0983l0.0419 0c0.0498,0 0.0989,0.0505 0.0985,0.1223 -0.0002,0.0363 -0.0049,0.0536 -0.0302,0.0799 -0.0372,0.0385 -0.0674,0.0346 -0.1162,0.0346 -0.0388,0 -0.0909,-0.0528 -0.0909,-0.0907l0 -0.0478zm-0.4732 0c0,-0.0443 0.0545,-0.0983 0.0972,-0.0983l0.0419 0c0.0475,0 0.0986,0.0495 0.0982,0.1223 -0.0007,0.1001 -0.0707,0.1145 -0.1461,0.1145 -0.0398,0 -0.0912,-0.0529 -0.0912,-0.0907l0 -0.0478zm-0.4732 0c0,-0.0446 0.0541,-0.0983 0.0975,-0.0983l0.0419 0c0.043,0 0.0973,0.0539 0.0973,0.0983l0 0.0478c0,0.0378 -0.0511,0.0907 -0.0913,0.0907l-0.0479 0c-0.0453,0 -0.0975,-0.0511 -0.0975,-0.0907l0 -0.0478zm-0.3754 0.1385c-0.026,0 -0.059,-0.0243 -0.071,-0.038 -0.0257,-0.029 -0.0277,-0.0428 -0.0273,-0.0827 0.0003,-0.0368 0.0092,-0.0585 0.0294,-0.0808 0.0332,-0.0366 0.0647,-0.0353 0.1108,-0.0353 0.0423,0 0.097,0.0541 0.097,0.0983l0 0.0478c0,0.0379 -0.0517,0.0907 -0.091,0.0907l-0.0479 0zm-0.4729 0c-0.0796,0 -0.144,-0.1276 -0.0663,-0.2048 0.0269,-0.0266 0.0844,-0.047 0.1344,-0.0256 0.0739,0.0315 0.0705,0.0882 0.0705,0.1397 0,0.038 -0.0523,0.0907 -0.0907,0.0907l-0.0479 0zm5.261 -1.1861c0,-0.0495 0.041,-0.1195 0.0654,-0.1451 0.0334,-0.0349 0.0762,-0.0594 0.1448,-0.0592 0.0653,0.0001 0.3726,-0.004 0.411,0.0026 0,0.1478 -0.0019,0.227 -0.075,0.322 -0.0572,0.0744 -0.1665,0.1364 -0.264,0.1364 -0.08,0 -0.1616,0.0094 -0.221,-0.0658 -0.0623,-0.0788 -0.0612,-0.1115 -0.0612,-0.1909zm-1.0172 -0.2041l0.4314 0c0.0548,0 0.1044,0.0382 0.1303,0.0678 0.0555,0.0633 0.0593,0.1162 0.0593,0.1961 0,0.0605 -0.0878,0.1969 -0.1896,0.1969 -0.0718,0 -0.1581,0.0014 -0.2244,-0.032 -0.1198,-0.0605 -0.2072,-0.1713 -0.2072,-0.3145l0.0002 -0.1143zm1.2126 -0.3904l0.4259 0 0.0003 0.3255 -0.4264 0 0.0002 -0.3255zm-1.2128 0l0.426 0 0.0004 0.3255 -0.4264 0 0 -0.3255zm-1.5025 -0.2496c0,-0.086 0.1305,-0.1384 0.2031,-0.071 0.0329,0.0306 0.0558,0.1011 0.0136,0.1616 -0.0353,0.0508 -0.0779,0.0467 -0.1263,0.0467 -0.0364,0 -0.0904,-0.0561 -0.0904,-0.0894l0 -0.0479zm-0.4732 0c0,-0.0295 0.023,-0.0614 0.0399,-0.0745 0.0231,-0.018 0.0419,-0.0255 0.0807,-0.0254 0.116,0.0006 0.1162,0.0895 0.1162,0.1478 0,0.0378 -0.0518,0.0894 -0.0983,0.0894l-0.0478 0c-0.0374,0 -0.0907,-0.0561 -0.0907,-0.0894l0 -0.0479zm-0.4732 0c0,-0.0299 0.0228,-0.0615 0.04,-0.0747 0.0243,-0.0188 0.0411,-0.0255 0.081,-0.0252 0.1139,0.0007 0.1158,0.0877 0.1158,0.1478 0,0.0346 -0.0492,0.0894 -0.092,0.0894l-0.0539 0c-0.0383,0 -0.0909,-0.056 -0.0909,-0.0894l0 -0.0479zm-0.4732 0c0,-0.0439 0.0528,-0.0994 0.0912,-0.0994l0.0539 0c0.0399,0 0.0917,0.0555 0.0917,0.0994l0 0.0479c0,0.0345 -0.0499,0.0894 -0.0917,0.0894l-0.0539 0c-0.0404,0 -0.0912,-0.055 -0.0912,-0.0894l0 -0.0479zm-0.4732 0c0,-0.0439 0.0522,-0.0994 0.0916,-0.0994l0.0538 0c0.0389,0 0.0913,0.0555 0.0913,0.0994l0 0.0479c0,0.0344 -0.0504,0.0894 -0.0913,0.0894l-0.0539 0c-0.0413,0 -0.0915,-0.055 -0.0915,-0.0894l0 -0.0479zm-0.4732 0c0,-0.0429 0.0504,-0.0994 0.0918,-0.0994l0.0539 0c0.0378,0 0.091,0.0555 0.091,0.0994l0 0.0479c0,0.0344 -0.0511,0.0894 -0.091,0.0894l-0.0539 0c-0.0423,0 -0.0918,-0.0549 -0.0918,-0.0894l0 -0.0479zm-0.3984 -0.0958c0.0299,-0.0129 0.0807,-0.0039 0.1003,0.0072 0.1018,0.057 0.0745,0.1893 -0.01,0.2211 -0.1537,0.0577 -0.2422,-0.1626 -0.0903,-0.2283zm4.2669 0.1676c0,-0.0429 0.0162,-0.1045 0.0326,-0.1411 0.0498,-0.1107 0.1774,-0.207 0.3152,-0.207l0.9518 0c0.034,0 0.1145,0.0223 0.1393,0.0346 0.1819,0.0908 0.2053,0.2432 0.1991,0.425 -0.0878,0.0055 -0.3307,0.0013 -0.4342,0.0013 -0.0625,0 -0.109,-0.0718 -0.0835,-0.1356 0.0393,-0.0984 0.1386,-0.0247 0.118,-0.1142 -0.1013,-0.0505 -0.2586,0.104 -0.1578,0.2483 0.0177,0.0253 0.0332,0.0355 0.0672,0.0517l0 0.3496c-0.025,0.0148 -0.0494,0.0206 -0.0747,0.0392 -0.1477,0.1084 -0.1666,0.3387 -0.0215,0.4756l-0.4635 0.0004c0.0092,-0.0178 0.0299,-0.0379 0.0428,-0.056 0.08,-0.1122 0.0737,-0.2684 -0.0193,-0.3735 -0.0395,-0.0446 -0.0592,-0.0581 -0.1206,-0.0828l0 -0.3555c0.1063,-0.0288 0.1554,-0.2243 -0.0008,-0.2956 -0.0332,-0.0151 -0.1864,-0.0222 -0.223,0.0015l-0.0008 0.031c0.0569,0.0509 0.158,-0.006 0.2158,0.0349 0.0568,0.0401 0.0578,0.122 0.0016,0.1621 -0.0463,0.0329 -0.1574,0.0189 -0.2317,0.0189 -0.0836,0 -0.1672,0 -0.2511,0l-0.0009 -0.1128zm2.1647 -0.9967l-6.8609 -0.0025c-0.0093,0.5587 -0.0003,1.1239 -0.0003,1.6817 0,0.0391 -0.0051,1.207 0.0008,1.2618 0.0118,0.1103 0.029,0.1865 0.1068,0.2626 0.0436,0.0426 0.1029,0.0781 0.17,0.0949 0.0915,0.023 1.3387,0.0114 1.4623,0.0114l4.6334 0c0.2031,0 0.3426,-0.0075 0.4444,-0.192 0.0565,-0.1025 0.0437,-0.2583 0.0437,-0.3732l0 -1.0595c0,-0.5594 0.0095,-1.1269 -0.0002,-1.6852z"/>
   <path class="fil1" d="M7.1602 5.754c0.029,0 0.099,-0.0219 0.1247,-0.0306 0.1019,-0.0344 0.1968,-0.1021 0.2643,-0.1849 0.1304,-0.1598 0.1324,-0.2823 0.1324,-0.4726 0,-0.4014 0,-0.8027 0,-1.2048l0.7097 0.0026c0,0.8397 0,1.6794 0,2.5191 0,0.098 0.0067,0.2206 -0.0183,0.2979 -0.0256,0.0795 -0.0698,0.1403 -0.1309,0.1851 -0.0586,0.0429 -0.1396,0.0713 -0.2436,0.0712l-5.3459 -0.0002c-0.1356,0 -0.5181,0.0143 -0.6138,-0.0133 -0.132,-0.0381 -0.2468,-0.1425 -0.2652,-0.2844 -0.0157,-0.1217 -0.0047,-0.7187 -0.004,-0.8851l5.3906 0zm0.2844 -3.5466c0.0097,0.5583 0.0002,1.1258 0.0002,1.6852l0 1.0595c0,0.1149 0.0128,0.2707 -0.0437,0.3732 -0.1018,0.1845 -0.2413,0.192 -0.4444,0.192l-4.6334 0c-0.1236,0 -1.3708,0.0116 -1.4623,-0.0114 -0.0671,-0.0168 -0.1264,-0.0523 -0.17,-0.0949 -0.0778,-0.0761 -0.095,-0.1523 -0.1068,-0.2626 -0.0059,-0.0548 -0.0008,-1.2227 -0.0008,-1.2618 0,-0.5578 -0.009,-1.123 0.0003,-1.6817l6.8609 0.0025zm0.2376 0.4712c0.0948,-0.0029 0.3511,-0.0091 0.435,0.0119 0.0647,0.0162 0.1218,0.0473 0.1684,0.0944 0.0243,0.0246 0.0567,0.0674 0.0728,0.1063 0.0453,0.1093 0.0423,0.382 0.0316,0.4965l-0.7083 -0.0003 0.0005 -0.7088zm-7.0988 -0.9491c0,-0.1693 -0.0201,-0.3816 0.0375,-0.5038 0.0588,-0.1246 0.1929,-0.2038 0.3316,-0.2038l6.1059 0c0.0405,0 0.0988,0.0075 0.1354,0.0188 0.0331,0.0104 0.0627,0.0259 0.0915,0.0453 0.2051,0.1382 0.1595,0.3784 0.1596,0.6436l-6.8615 -0.0001zm-0.2367 -0.423l0 3.915c0,0.1181 0.0862,0.2757 0.1682,0.3597 0.0783,0.0801 0.2469,0.1728 0.3538,0.1728l0.6644 0 -0.0034 0.8982c0,0.0205 0.0182,0.087 0.0245,0.1057 0.0537,0.1599 0.1504,0.2846 0.3005,0.3572 0.04,0.0194 0.1488,0.0585 0.2052,0.0585l6.0461 0c0.0466,0 0.164,-0.0417 0.1981,-0.0595 0.0506,-0.0264 0.1144,-0.0728 0.1536,-0.1102 0.0779,-0.0745 0.1703,-0.2488 0.1703,-0.3517l0 -3.6815c0,-0.0727 -0.0539,-0.2102 -0.0965,-0.2696 -0.2321,-0.3231 -0.4873,-0.2521 -0.8476,-0.2601 -0.0081,-0.0484 -0.0026,-1.0142 -0.0023,-1.0866 0.0011,-0.2167 -0.1366,-0.4092 -0.3118,-0.5034 -0.0454,-0.0245 -0.1633,-0.0659 -0.2096,-0.0659l-6.2915 0c-0.0544,0 -0.1575,0.0396 -0.1981,0.0595 -0.0512,0.0252 -0.1162,0.073 -0.1536,0.1102 -0.036,0.0359 -0.0823,0.0978 -0.1085,0.1495 -0.0212,0.0414 -0.0618,0.1532 -0.0618,0.2022z"/>
   <path class="fil2" d="M7.8015 6.5026c-0.0216,-0.0759 0.0239,-0.1425 0.0782,-0.1552 0.0763,-0.0178 0.1389,0.0228 0.154,0.0784 0.0459,0.1687 -0.1927,0.2156 -0.2322,0.0768zm-0.9465 0c-0.0186,-0.0677 0.0212,-0.1413 0.0791,-0.155 0.0681,-0.0162 0.1394,0.0181 0.1537,0.0784 0.0424,0.1786 -0.1969,0.2069 -0.2328,0.0766zm-0.719 0.0119c-0.0792,0.1527 -0.287,0.0304 -0.2222,-0.1024 0.0416,-0.085 0.176,-0.0995 0.2207,-0.003 0.0129,0.0276 0.0157,0.078 0.0015,0.1054zm-0.7023 -0.0299l0 -0.0419c0,-0.0431 0.0539,-0.0973 0.0982,-0.0973 0.0443,0 0.1124,-0.0029 0.1354,0.0757 0.0295,0.1008 -0.0507,0.1901 -0.1568,0.1576 -0.0327,-0.0101 -0.0768,-0.0544 -0.0768,-0.0941zm2.1245 0.0239c-0.0273,0.0576 -0.0911,0.0963 -0.1608,0.0686 -0.0813,-0.0325 -0.1083,-0.1664 -0.0114,-0.2202 0.0979,-0.0545 0.2197,0.0519 0.1722,0.1516zm-1.1781 -0.0119c-0.0288,-0.1888 0.2115,-0.1932 0.2355,-0.0651 0.0129,0.069 -0.0239,0.1394 -0.0841,0.1496 -0.0695,0.0119 -0.1422,-0.0243 -0.1514,-0.0845zm-1.1876 0.0119c-0.0317,0.0707 -0.1002,0.0909 -0.1596,0.0687 -0.1408,-0.0529 -0.0665,-0.2876 0.094,-0.2267 0.0275,0.0104 0.046,0.0287 0.0598,0.0541 0.0121,0.0222 0.0179,0.077 0.0058,0.1039zm-0.7052 -0.0179l0 -0.0539c0,-0.0369 0.055,-0.0913 0.0988,-0.0913l0.0479 0c0.0351,0 0.09,0.0515 0.09,0.0913l0 0.0539c0,0.0412 -0.054,0.0915 -0.09,0.0915l-0.0479 0c-0.0438,0 -0.0988,-0.0542 -0.0988,-0.0915zm-0.4732 0l0 -0.0539c0,-0.038 0.0552,-0.0913 0.0991,-0.0913l0.0479 0c0.0343,0 0.0897,0.0513 0.0897,0.0913l0 0.0539c0,0.0405 -0.0555,0.0915 -0.0897,0.0915l-0.0479 0c-0.0439,0 -0.0991,-0.0531 -0.0991,-0.0915zm-0.4732 0l0 -0.0539c0,-0.0389 0.0555,-0.0913 0.0994,-0.0913l0.048 0c0.0343,0 0.0893,0.0504 0.0893,0.0913l0 0.0539c0,0.0413 -0.055,0.0915 -0.0894,0.0915l-0.048 0c-0.0438,0 -0.0993,-0.0521 -0.0993,-0.0915zm-0.4733 0l0 -0.0539c0,-0.04 0.056,-0.0913 0.0998,-0.0913l0.0479 0c0.0336,0 0.089,0.0508 0.089,0.0913l0 0.0539c0,0.041 -0.0554,0.0915 -0.089,0.0915l-0.048 0c-0.0438,0 -0.0997,-0.0511 -0.0997,-0.0915zm-0.4732 0c0,-0.0471 -0.0046,-0.0833 0.036,-0.1182 0.0241,-0.0207 0.0411,-0.0275 0.082,-0.0276 0.0755,-0.0001 0.1188,0.0531 0.1188,0.0919 0,0.0475 0.0049,0.0842 -0.036,0.1189 -0.0246,0.0208 -0.0408,0.0271 -0.0828,0.027 -0.0415,-0.0001 -0.0547,-0.006 -0.0788,-0.0249 -0.0125,-0.0098 -0.0392,-0.0442 -0.0392,-0.0671zm-0.4732 0l0 -0.0539c0,-0.042 0.0565,-0.0913 0.1004,-0.0913l0.0359 0c0.0438,0 0.1004,0.0487 0.1004,0.0913l0 0.0539c0,0.0431 -0.0566,0.0915 -0.1004,0.0915l-0.0359 0c-0.0439,0 -0.1004,-0.049 -0.1004,-0.0915zm5.039 -0.7366l-5.3906 0c-0.0007,0.1664 -0.0117,0.7634 0.004,0.8851 0.0184,0.1419 0.1332,0.2463 0.2652,0.2844 0.0957,0.0276 0.4782,0.0133 0.6138,0.0133l5.3459 0.0002c0.104,0.0001 0.185,-0.0283 0.2436,-0.0712 0.0611,-0.0448 0.1053,-0.1056 0.1309,-0.1851 0.025,-0.0773 0.0183,-0.1999 0.0183,-0.2979 0,-0.8397 0,-1.6794 0,-2.5191l-0.7097 -0.0026c0,0.4021 0,0.8034 0,1.2048 0,0.1903 -0.002,0.3128 -0.1324,0.4726 -0.0675,0.0828 -0.1624,0.1505 -0.2643,0.1849 -0.0257,0.0087 -0.0957,0.0306 -0.1247,0.0306z"/>
   <path class="fil0" d="M0.5834 1.7295l6.8615 0.0001c-0.0001,-0.2652 0.0455,-0.5054 -0.1596,-0.6436 -0.0288,-0.0194 -0.0584,-0.0349 -0.0915,-0.0453 -0.0366,-0.0113 -0.0949,-0.0188 -0.1354,-0.0188l-6.1059 0c-0.1387,0 -0.2728,0.0792 -0.3316,0.2038 -0.0576,0.1222 -0.0375,0.3345 -0.0375,0.5038z"/>
   <path class="fil1" d="M5.2799 3.2041l0.0009 0.1128c0.0839,0 0.1675,0 0.2511,0 0.0743,0 0.1854,0.014 0.2317,-0.0189 0.0562,-0.0401 0.0552,-0.122 -0.0016,-0.1621 -0.0578,-0.0409 -0.1589,0.016 -0.2158,-0.0349l0.0008 -0.031c0.0366,-0.0237 0.1898,-0.0166 0.223,-0.0015 0.1562,0.0713 0.1071,0.2668 0.0008,0.2956l0 0.3555c0.0614,0.0247 0.0811,0.0382 0.1206,0.0828 0.093,0.1051 0.0993,0.2613 0.0193,0.3735 -0.0129,0.0181 -0.0336,0.0382 -0.0428,0.056l0.4635 -0.0004c-0.1451,-0.1369 -0.1262,-0.3672 0.0215,-0.4756 0.0253,-0.0186 0.0497,-0.0244 0.0747,-0.0392l0 -0.3496c-0.034,-0.0162 -0.0495,-0.0264 -0.0672,-0.0517 -0.1008,-0.1443 0.0565,-0.2988 0.1578,-0.2483 0.0206,0.0895 -0.0787,0.0158 -0.118,0.1142 -0.0255,0.0638 0.021,0.1356 0.0835,0.1356 0.1035,0 0.3464,0.0042 0.4342,-0.0013 0.0062,-0.1818 -0.0172,-0.3342 -0.1991,-0.425 -0.0248,-0.0123 -0.1053,-0.0346 -0.1393,-0.0346l-0.9518 0c-0.1378,0 -0.2654,0.0963 -0.3152,0.207 -0.0164,0.0366 -0.0326,0.0982 -0.0326,0.1411z"/>
   <path class="fil2" d="M7.6817 3.3874l0.7083 0.0003c0.0107,-0.1145 0.0137,-0.3872 -0.0316,-0.4965 -0.0161,-0.0389 -0.0485,-0.0817 -0.0728,-0.1063 -0.0466,-0.0471 -0.1037,-0.0782 -0.1684,-0.0944 -0.0839,-0.021 -0.3402,-0.0148 -0.435,-0.0119l-0.0005 0.7088z"/>
   <path class="fil1" d="M6.2973 3.9764c0,0.0794 -0.0011,0.1121 0.0612,0.1909 0.0594,0.0752 0.141,0.0658 0.221,0.0658 0.0975,0 0.2068,-0.062 0.264,-0.1364 0.0731,-0.095 0.075,-0.1742 0.075,-0.322 -0.0384,-0.0066 -0.3457,-0.0025 -0.411,-0.0026 -0.0686,-0.0002 -0.1114,0.0243 -0.1448,0.0592 -0.0244,0.0256 -0.0654,0.0956 -0.0654,0.1451z"/>
   <path class="fil1" d="M5.2799 3.8866c0,0.1432 0.0874,0.254 0.2072,0.3145 0.0663,0.0334 0.1526,0.032 0.2244,0.032 0.1018,0 0.1896,-0.1364 0.1896,-0.1969 0,-0.0799 -0.0038,-0.1328 -0.0593,-0.1961 -0.0259,-0.0296 -0.0755,-0.0678 -0.1303,-0.0678l-0.4314 0 -0.0002 0.1143z"/>
   <polygon class="fil1" points="5.2799,3.7074 5.7063,3.7074 5.7059,3.3819 5.2799,3.3819 "/>
   <polygon class="fil1" points="6.4925,3.7074 6.9189,3.7074 6.9186,3.3819 6.4927,3.3819 "/>
   <path class="fil1" d="M1.013 3.0365c-0.1519,0.0657 -0.0634,0.286 0.0903,0.2283 0.0845,-0.0318 0.1118,-0.1641 0.01,-0.2211 -0.0196,-0.0111 -0.0704,-0.0201 -0.1003,-0.0072z"/>
   <path class="fil1" d="M5.1925 6.5085c0.0121,-0.0269 0.0063,-0.0817 -0.0058,-0.1039 -0.0138,-0.0254 -0.0323,-0.0437 -0.0598,-0.0541 -0.1605,-0.0609 -0.2348,0.1738 -0.094,0.2267 0.0594,0.0222 0.1279,0.002 0.1596,-0.0687z"/>
   <path class="fil1" d="M7.8015 6.5026c0.0395,0.1388 0.2781,0.0919 0.2322,-0.0768 -0.0151,-0.0556 -0.0777,-0.0962 -0.154,-0.0784 -0.0543,0.0127 -0.0998,0.0793 -0.0782,0.1552z"/>
   <path class="fil1" d="M4.7239 5.024l0 0.0478c0,0.0375 0.0555,0.0907 0.0897,0.0907 0.0529,0 0.1116,0.0033 0.1421,-0.0734 0.0545,-0.1367 -0.1406,-0.2256 -0.2072,-0.1244 -0.0085,0.0128 -0.0246,0.0387 -0.0246,0.0593z"/>
   <path class="fil1" d="M5.4337 6.4846c0,0.0397 0.0441,0.084 0.0768,0.0941 0.1061,0.0325 0.1863,-0.0568 0.1568,-0.1576 -0.023,-0.0786 -0.0911,-0.0757 -0.1354,-0.0757 -0.0443,0 -0.0982,0.0542 -0.0982,0.0973l0 0.0419z"/>
   <path class="fil1" d="M1.4114 3.1323l0 0.0479c0,0.0345 0.0495,0.0894 0.0918,0.0894l0.0539 0c0.0399,0 0.091,-0.055 0.091,-0.0894l0 -0.0479c0,-0.0439 -0.0532,-0.0994 -0.091,-0.0994l-0.0539 0c-0.0414,0 -0.0918,0.0565 -0.0918,0.0994z"/>
   <path class="fil1" d="M3.0676 6.4906c0,0.0404 0.0559,0.0915 0.0997,0.0915l0.048 0c0.0336,0 0.089,-0.0505 0.089,-0.0915l0 -0.0539c0,-0.0405 -0.0554,-0.0913 -0.089,-0.0913l-0.0479 0c-0.0438,0 -0.0998,0.0513 -0.0998,0.0913l0 0.0539z"/>
   <path class="fil1" d="M2.3578 3.1323l0 0.0479c0,0.0344 0.0508,0.0894 0.0912,0.0894l0.0539 0c0.0418,0 0.0917,-0.0549 0.0917,-0.0894l0 -0.0479c0,-0.0439 -0.0518,-0.0994 -0.0917,-0.0994l-0.0539 0c-0.0384,0 -0.0912,0.0555 -0.0912,0.0994z"/>
   <path class="fil1" d="M3.5409 6.4906c0,0.0394 0.0555,0.0915 0.0993,0.0915l0.048 0c0.0344,0 0.0894,-0.0502 0.0894,-0.0915l0 -0.0539c0,-0.0409 -0.055,-0.0913 -0.0893,-0.0913l-0.048 0c-0.0439,0 -0.0994,0.0524 -0.0994,0.0913l0 0.0539z"/>
   <path class="fil1" d="M1.8846 3.1323l0 0.0479c0,0.0344 0.0502,0.0894 0.0915,0.0894l0.0539 0c0.0409,0 0.0913,-0.055 0.0913,-0.0894l0 -0.0479c0,-0.0439 -0.0524,-0.0994 -0.0913,-0.0994l-0.0538 0c-0.0394,0 -0.0916,0.0555 -0.0916,0.0994z"/>
   <path class="fil1" d="M6.1435 5.018l0 0.0538c0,0.041 0.0569,0.0907 0.1008,0.0907l0.0359 0c0.044,0 0.1001,-0.0523 0.1001,-0.0907 0,-0.0461 0.0064,-0.0824 -0.0353,-0.119 -0.0749,-0.0656 -0.2015,-0.0123 -0.2015,0.0652z"/>
   <path class="fil1" d="M4.4873 6.4906c0,0.0373 0.055,0.0915 0.0988,0.0915l0.0479 0c0.036,0 0.09,-0.0503 0.09,-0.0915l0 -0.0539c0,-0.0398 -0.0549,-0.0913 -0.09,-0.0913l-0.0479 0c-0.0438,0 -0.0988,0.0544 -0.0988,0.0913l0 0.0539z"/>
   <path class="fil1" d="M6.855 6.5026c0.0359,0.1303 0.2752,0.102 0.2328,-0.0766 -0.0143,-0.0603 -0.0856,-0.0946 -0.1537,-0.0784 -0.0579,0.0137 -0.0977,0.0873 -0.0791,0.155z"/>
   <path class="fil1" d="M7.5582 6.5085c0.0475,-0.0997 -0.0743,-0.2061 -0.1722,-0.1516 -0.0969,0.0538 -0.0699,0.1877 0.0114,0.2202 0.0697,0.0277 0.1335,-0.011 0.1608,-0.0686z"/>
   <path class="fil1" d="M2.831 3.1323l0 0.0479c0,0.0334 0.0526,0.0894 0.0909,0.0894l0.0539 0c0.0428,0 0.092,-0.0548 0.092,-0.0894 0,-0.0601 -0.0019,-0.1471 -0.1158,-0.1478 -0.0399,-0.0003 -0.0567,0.0064 -0.081,0.0252 -0.0172,0.0132 -0.04,0.0448 -0.04,0.0747z"/>
   <path class="fil1" d="M6.136 6.5145c0.0142,-0.0274 0.0114,-0.0778 -0.0015,-0.1054 -0.0447,-0.0965 -0.1791,-0.082 -0.2207,0.003 -0.0648,0.1328 0.143,0.2551 0.2222,0.1024z"/>
   <path class="fil1" d="M4.0141 6.4906c0,0.0384 0.0552,0.0915 0.0991,0.0915l0.0479 0c0.0342,0 0.0897,-0.051 0.0897,-0.0915l0 -0.0539c0,-0.04 -0.0554,-0.0913 -0.0897,-0.0913l-0.0479 0c-0.0439,0 -0.0991,0.0533 -0.0991,0.0913l0 0.0539z"/>
   <path class="fil1" d="M1.0363 5.1625l0.0479 0c0.0384,0 0.0907,-0.0527 0.0907,-0.0907 0,-0.0515 0.0034,-0.1082 -0.0705,-0.1397 -0.05,-0.0214 -0.1075,-0.001 -0.1344,0.0256 -0.0777,0.0772 -0.0133,0.2048 0.0663,0.2048z"/>
   <path class="fil1" d="M3.3042 5.024l0 0.0478c0,0.038 0.0527,0.0907 0.0907,0.0907 0.0502,0 0.1083,0.003 0.1403,-0.0704 0.02,-0.0457 0.0023,-0.1061 -0.0261,-0.1345 -0.0785,-0.0785 -0.2049,-0.0116 -0.2049,0.0664z"/>
   <path class="fil1" d="M2.5944 6.4906c0,0.0229 0.0267,0.0573 0.0392,0.0671 0.0241,0.0189 0.0373,0.0248 0.0788,0.0249 0.042,0.0001 0.0582,-0.0062 0.0828,-0.027 0.0409,-0.0347 0.036,-0.0714 0.036,-0.1189 0,-0.0388 -0.0433,-0.092 -0.1188,-0.0919 -0.0409,0.0001 -0.0579,0.0069 -0.082,0.0276 -0.0406,0.0349 -0.036,0.0711 -0.036,0.1182z"/>
   <path class="fil1" d="M6.6167 5.018l0 0.0538c0,0.0399 0.0566,0.0907 0.1005,0.0907l0.0359 0c0.044,0 0.1004,-0.0513 0.1004,-0.0907 0,-0.046 0.0064,-0.083 -0.0354,-0.1192 -0.0246,-0.0213 -0.0414,-0.0274 -0.0829,-0.0274 -0.0746,0 -0.1185,0.0511 -0.1185,0.0928z"/>
   <path class="fil1" d="M5.6703 5.018l0 0.0538c0,0.0372 0.0567,0.0907 0.0891,0.0907 0.0453,0 0.0847,0.0049 0.1201,-0.0362 0.0185,-0.0217 0.0278,-0.0413 0.028,-0.0783 0.0012,-0.1742 -0.2372,-0.146 -0.2372,-0.03z"/>
   <path class="fil1" d="M3.3042 3.1323l0 0.0479c0,0.0333 0.0533,0.0894 0.0907,0.0894l0.0478 0c0.0465,0 0.0983,-0.0516 0.0983,-0.0894 0,-0.0583 -0.0002,-0.1472 -0.1162,-0.1478 -0.0388,-0.0001 -0.0576,0.0074 -0.0807,0.0254 -0.0169,0.0131 -0.0399,0.045 -0.0399,0.0745z"/>
   <path class="fil1" d="M1.8846 5.024l0 0.0478c0,0.0396 0.0522,0.0907 0.0975,0.0907l0.0479 0c0.0402,0 0.0913,-0.0529 0.0913,-0.0907l0 -0.0478c0,-0.0444 -0.0543,-0.0983 -0.0973,-0.0983l-0.0419 0c-0.0434,0 -0.0975,0.0537 -0.0975,0.0983z"/>
   <path class="fil1" d="M5.1971 5.024l0 0.0478c0,0.0374 0.0561,0.0907 0.0894,0.0907 0.0452,0 0.0844,0.005 0.1198,-0.0365 0.061,-0.0716 0.0184,-0.2003 -0.0719,-0.2003l-0.0479 0c-0.0378,0 -0.0894,0.0512 -0.0894,0.0983z"/>
   <path class="fil1" d="M2.1212 6.4906c0,0.0425 0.0565,0.0915 0.1004,0.0915l0.0359 0c0.0438,0 0.1004,-0.0484 0.1004,-0.0915l0 -0.0539c0,-0.0426 -0.0566,-0.0913 -0.1004,-0.0913l-0.0359 0c-0.0439,0 -0.1004,0.0493 -0.1004,0.0913l0 0.0539z"/>
   <path class="fil1" d="M3.7774 3.1323l0 0.0479c0,0.0333 0.054,0.0894 0.0904,0.0894 0.0484,0 0.091,0.0041 0.1263,-0.0467 0.0422,-0.0605 0.0193,-0.131 -0.0136,-0.1616 -0.0726,-0.0674 -0.2031,-0.015 -0.2031,0.071z"/>
   <path class="fil1" d="M4.2506 5.024l0 0.0478c0,0.0374 0.0549,0.0907 0.0901,0.0907l0.0479 0c0.0439,0 0.0989,-0.0537 0.0989,-0.0966 0,-0.0438 0.004,-0.0765 -0.0351,-0.1121 -0.0761,-0.0691 -0.2018,-0.0108 -0.2018,0.0702z"/>
   <path class="fil1" d="M6.3801 6.4966c0.0092,0.0602 0.0819,0.0964 0.1514,0.0845 0.0602,-0.0102 0.097,-0.0806 0.0841,-0.1496 -0.024,-0.1281 -0.2643,-0.1237 -0.2355,0.0651z"/>
   <path class="fil1" d="M3.7774 5.024l0 0.0478c0,0.0372 0.0543,0.0907 0.0904,0.0907l0.0479 0c0.0437,0 0.0985,-0.0546 0.0985,-0.0966 0,-0.0439 0.004,-0.076 -0.0349,-0.1118 -0.0219,-0.0202 -0.0441,-0.0286 -0.0815,-0.0289 -0.04,-0.0003 -0.0539,0.0018 -0.0828,0.0276 -0.0139,0.0123 -0.0376,0.0449 -0.0376,0.0712z"/>
   <path class="fil1" d="M1.5092 5.1625l0.0479 0c0.0393,0 0.091,-0.0528 0.091,-0.0907l0 -0.0478c0,-0.0442 -0.0547,-0.0983 -0.097,-0.0983 -0.0461,0 -0.0776,-0.0013 -0.1108,0.0353 -0.0202,0.0223 -0.0291,0.044 -0.0294,0.0808 -0.0004,0.0399 0.0016,0.0537 0.0273,0.0827 0.012,0.0137 0.045,0.038 0.071,0.038z"/>
   <path class="fil1" d="M2.831 5.024l0 0.0478c0,0.0379 0.0521,0.0907 0.0909,0.0907 0.0488,0 0.079,0.0039 0.1162,-0.0346 0.0253,-0.0263 0.03,-0.0436 0.0302,-0.0799 0.0004,-0.0718 -0.0487,-0.1223 -0.0985,-0.1223l-0.0419 0c-0.0419,0 -0.0969,0.0543 -0.0969,0.0983z"/>
   <path class="fil1" d="M2.3578 5.024l0 0.0478c0,0.0378 0.0514,0.0907 0.0912,0.0907 0.0754,0 0.1454,-0.0144 0.1461,-0.1145 0.0004,-0.0728 -0.0507,-0.1223 -0.0982,-0.1223l-0.0419 0c-0.0427,0 -0.0972,0.054 -0.0972,0.0983z"/>
  </g>
 </g>
</svg>
