<?xml version="1.0" encoding="UTF-8"?>
<!DOCTYPE svg PUBLIC "-//W3C//DTD SVG 1.1//EN" "http://www.w3.org/Graphics/SVG/1.1/DTD/svg11.dtd">
<!-- Creator: CorelDRAW 2019 (64-Bit) -->
<svg xmlns="http://www.w3.org/2000/svg" xml:space="preserve" width="9.0592mm" height="7.9586mm" version="1.1" style="shape-rendering:geometricPrecision; text-rendering:geometricPrecision; image-rendering:optimizeQuality; fill-rule:evenodd; clip-rule:evenodd"
viewBox="0 0 9.0592 7.9586"
 xmlns:xlink="http://www.w3.org/1999/xlink"
 xmlns:xodm="http://www.corel.com/coreldraw/odm/2003">
 <defs>
  <style type="text/css">
   <![CDATA[
    .fil0 {fill:#4788C7}
    .fil2 {fill:#98CBFC}
    .fil1 {fill:#DEEFFD}
   ]]>
  </style>
 </defs>
 <g id="Слой_x0020_1">
  <metadata id="CorelCorpID_0Corel-Layer"/>
  <g id="_2609908264240">
   <path class="fil0" d="M6.9832 3.5897c-0.0248,0.1518 -0.2196,0.1489 -0.2613,0.022 -0.0078,-0.0235 -0.0097,-0.0487 -0.0018,-0.0738l0.0048 -0.0148c0.006,-0.018 0.0101,-0.0181 0.0176,-0.0293 0.0165,-0.0251 0.0301,-0.0386 0.0678,-0.0514 0.0887,-0.03 0.1901,0.0418 0.1729,0.1473zm0.3898 -0.9031c0.0215,-0.0037 0.0432,-0.0014 0.0614,0.0047 0.1422,0.0477 0.1179,0.238 -0.013,0.2629 -0.0464,0.0089 -0.0851,-0.0094 -0.1087,-0.0272 -0.0126,-0.0096 -0.0213,-0.0206 -0.031,-0.0363 -0.0234,-0.0378 -0.0295,-0.0749 -0.0089,-0.123 0.0172,-0.0401 0.0481,-0.0718 0.1002,-0.0811zm-1.2377 -0.1062c0,-0.0332 0.0271,-0.0818 0.0425,-0.0972 0.0711,-0.0713 0.2311,-0.035 0.2275,0.1021 -0.002,0.0754 -0.0639,0.135 -0.1402,0.1326 -0.0693,-0.0021 -0.1298,-0.0691 -0.1298,-0.1375zm1.1916 0.5069c0.0073,0.0966 -0.0081,0.2047 0.0105,0.2989 0.0229,0.1151 0.1794,0.1961 0.1896,0.2697 0.0131,0.094 0.0069,0.3613 0.0056,0.4611l-1.5042 0c0.0142,0.013 0.0285,0.0262 0.0421,0.0399 0.1561,0.1565 0.3147,0.3105 0.4725,0.4652 0.0016,-0.0539 0.0034,-0.0934 0.0046,-0.0961l0.2344 -0.0001c0.0204,-0.0002 0.0199,-0.0033 0.0343,0.006l0.0036 0.3648 0.1005 0.1021c0.0224,0 0.0447,-0.007 0.0595,-0.0216 0.0117,-0.0116 0.0326,-0.0268 0.0378,-0.0417l0.0047 -0.4095 0.2715 0 0.0045 0.4143c0.0035,0.0121 0.0418,0.0571 0.0947,0.0579 0.0624,0.0009 0.0696,-0.0267 0.1006,-0.0511l0.0053 -0.4193 0.2711 -0.0018 0.0047 0.4095c0.0023,0.0142 0.0238,0.0299 0.0345,0.0411 0.0236,0.0248 0.0605,0.0259 0.0946,0.0201 0.0049,-0.0008 0.0071,-0.0009 0.0148,-0.0046 0.0064,-0.0029 0.0078,-0.0045 0.0116,-0.0075 0.0008,-0.0005 0.0018,-0.0014 0.0026,-0.002l0.0407 -0.0366 0.0028 -0.4175c0.0632,-0.0083 0.1378,0.0011 0.1926,-0.0118 0.0227,-0.0052 0.0435,-0.0183 0.0686,-0.0302 0.0163,-0.0079 0.0162,-0.0093 0.0314,-0.0206 0.014,-0.0105 0.0177,-0.0083 0.0309,-0.0215 0.0093,-0.0092 0.0139,-0.0146 0.0212,-0.0265 0.0201,-0.0331 0.0416,-0.0638 0.0526,-0.1029 0.0157,-0.0558 0.0097,-0.1277 0.0134,-0.1957 0.0295,-0.0073 0.169,-0.0038 0.2097,-0.0044 0.0694,-0.0011 0.1416,-0.0071 0.2112,-0.0014 0.0005,-0.001 0.0013,-0.0039 0.0016,-0.0031l0.0219 -0.0255c0.0331,-0.036 0.0348,-0.0903 0.0158,-0.1181 -0.0101,-0.0147 -0.0304,-0.045 -0.0467,-0.0502l-0.4149 -0.0059 -0.0009 -0.2551c0.0022,-0.026 0.0317,-0.0159 0.0699,-0.0166 0.1137,-0.0021 0.233,0.0015 0.3459,-0.0045 0.0239,-0.0276 0.0569,-0.0397 0.0571,-0.0968 0.0002,-0.0311 -0.001,-0.0416 -0.0202,-0.0608 -0.0122,-0.0124 -0.0262,-0.0358 -0.0416,-0.0388l-0.4108 -0.0045 0.0001 -0.2695c0.0495,-0.0061 0.1257,-0.0024 0.1785,-0.0033 0.0595,-0.0011 0.1197,-0.0018 0.18,-0.0027 0.0379,-0.0005 0.0513,0.0073 0.0751,-0.0147 0.0356,-0.0332 0.0557,-0.0891 0.028,-0.1349 -0.0094,-0.0152 -0.0318,-0.0309 -0.0462,-0.0468l-0.4107 -0.0053 -0.0051 -0.0299c0.0005,-0.0794 -0.0032,-0.1606 0.0009,-0.2399l0.4149 -0.0065 0.0523 -0.0579c0.0024,-0.0068 0.0034,-0.012 0.0041,-0.0183 0.0049,-0.0476 -0.0041,-0.0669 -0.0346,-0.0997 -0.0263,-0.0281 -0.0245,-0.0203 -0.0738,-0.0212 -0.1184,-0.0022 -0.2457,0.0026 -0.3623,-0.0049l-0.0011 -0.2694 0.4215 -0.0059 0.0181 -0.0201c0.0331,-0.0339 0.0493,-0.0992 0.0135,-0.1376 -0.0179,-0.0191 -0.0205,-0.0243 -0.0377,-0.0384l-0.4155 -0.0052 0 -0.269c0.0739,-0.0102 0.2682,-0.0051 0.3635,-0.0059 0.0213,0 0.0501,0.0039 0.0656,-0.0094 0.0306,-0.0257 0.0443,-0.0468 0.0434,-0.0942 -0.0004,-0.0277 -0.0036,-0.0413 -0.0197,-0.0563 -0.0126,-0.0116 -0.0284,-0.0317 -0.042,-0.0374l-0.4037 -0.0047c-0.0171,-0.0271 -0.0074,-0.1335 -0.0144,-0.1797 -0.0052,-0.0344 -0.021,-0.0684 -0.0397,-0.0981 -0.0042,-0.0067 -0.0008,-0.0019 -0.0056,-0.008l-0.0163 -0.0207c-0.025,-0.0369 -0.0879,-0.0789 -0.1408,-0.0921 -0.051,-0.0126 -0.1387,-0.0084 -0.1966,-0.0129 -0.0095,-0.0403 -0.0046,-0.2154 -0.0056,-0.2767 -0.0019,-0.1057 0.0216,-0.1277 -0.0392,-0.1758 -0.0164,-0.013 -0.0303,-0.0176 -0.0574,-0.018 -0.0521,-0.0007 -0.0655,0.0204 -0.0926,0.0494 -0.0186,0.0198 -0.0102,0.1041 -0.0107,0.135 -0.0015,0.0931 0.0022,0.1943 -0.0038,0.2861 -0.0196,0.0059 -0.2353,0.0061 -0.27,0.0013l-0.0056 -0.4107c-0.002,-0.0125 -0.0074,-0.0122 -0.0169,-0.021 -0.0265,-0.0239 -0.0361,-0.0397 -0.0791,-0.0402 -0.0584,-0.0005 -0.0716,0.0319 -0.0994,0.0565l-0.0059 0.4165 -0.2702 0.0006c0,-0.0779 -0.0141,-0.3651 -0.0018,-0.4175 -0.0148,-0.0093 -0.0819,-0.0934 -0.1573,-0.0416 -0.0165,0.0113 -0.0314,0.0247 -0.0409,0.0411l-0.0065 0.4174 -0.2705 0.0006 -0.0057 -0.4188c-0.0191,-0.0253 -0.0489,-0.0552 -0.099,-0.0548 -0.0517,0.0005 -0.0638,0.0228 -0.0962,0.057l-0.0068 0.4171 -0.2705 -0.0005 -0.0054 -0.4171c-0.0131,-0.0133 -0.0246,-0.0234 -0.0381,-0.0374 -0.0235,-0.0242 -0.0888,-0.0247 -0.1173,-0.0038 -0.0086,0.0064 -0.0323,0.0332 -0.0393,0.0412l-0.006 0.416c-0.032,0.003 -0.2445,0.005 -0.2707,-0.0019 -0.0004,-0.0604 -0.0117,-0.3829 -0.0017,-0.4126 -0.035,-0.0273 -0.0983,-0.1092 -0.1801,-0.0243 -0.0259,0.0267 -0.02,0.0275 -0.0207,0.0749 -0.0011,0.0724 0.0053,0.3114 -0.0061,0.3628 -0.1039,0.006 -0.1853,-0.0071 -0.2642,0.044 -0.0341,0.0222 -0.0586,0.0396 -0.0835,0.073 -0.0188,0.0254 -0.044,0.0738 -0.0506,0.1053 -0.0079,0.0384 -0.0073,0.1032 -0.0087,0.1448 -0.0021,0.0587 0.0057,0.044 -0.1075,0.0451 -0.0475,0.0005 -0.2821,-0.0046 -0.3089,0.0049 -0.0163,0.0056 -0.0335,0.0288 -0.0431,0.0433 -0.0031,0.0048 -0.0026,0.0044 -0.0053,0.0091l-0.0056 0.0099c-0.0003,0.0008 -0.0012,0.0023 -0.002,0.0034l0 0.0621c0.0008,0.0012 0.0017,0.0027 0.002,0.0035 0.0268,0.0449 0.0387,0.0437 0.054,0.0668 0.0165,-0.0036 0.3552,-0.0039 0.4167,0.0034l0.0002 0.269 -0.416 0.0056c-0.0116,0.0104 -0.021,0.022 -0.0323,0.0339 -0.0165,0.0173 -0.0125,0.0148 -0.0246,0.036l0 0.0574c0.01,0.0157 0.0198,0.0287 0.0282,0.0392 0.1083,-0.0136 0.2227,-0.0039 0.3454,0.0337l0.0989 0.0014 -0.0002 0.0348c0.0514,0.0225 0.0989,0.0495 0.1468,0.083 0.1116,0.0782 0.1998,0.1797 0.262,0.2939 0.0009,-0.0175 0.0021,-0.0302 0.0039,-0.0365 0.0771,-0.0066 0.1684,-0.0033 0.2478,-0.0052 0.0473,-0.0012 0.1,-0.0049 0.1274,-0.0467l0.0165 -0.0259c0.0183,-0.0461 0.0154,-0.4245 0.0159,-0.504 0.0956,0 0.5001,0.0107 0.558,-0.0072 0.0225,-0.007 0.0631,-0.0396 0.0732,-0.0688 0.0115,-0.0333 0.011,-0.0846 0.0123,-0.1227 0.0029,-0.0836 -0.0048,-0.1992 0.005,-0.2778l0.4737 0c0.0061,0.0466 0.0052,0.2846 -0.0119,0.3163 -0.0146,0.0269 -0.1347,0.1432 -0.1608,0.1703 -0.0431,0.0442 -0.3218,0.315 -0.3276,0.3295 -0.0786,-0.0088 -0.0985,-0.0495 -0.2083,-0.0229 -0.2748,0.0669 -0.2699,0.4529 -0.0192,0.5224 0.0158,0.0045 0.0347,0.008 0.0523,0.0092 0.0388,0.0024 0.085,-0.0009 0.1137,-0.0089 0.0299,-0.0084 0.075,-0.0371 0.0831,-0.0455l0.0201 -0.0173c0.0009,-0.0006 0.0019,-0.0016 0.0027,-0.0024l0.0351 -0.0409c0.0429,-0.0658 0.0541,-0.146 0.0361,-0.228l-0.024 -0.0598 0.0102 -0.0119c0.0007,-0.0006 0.0016,-0.0016 0.0024,-0.0024l0.0186 -0.0193c0.0006,-0.0008 0.0015,-0.0018 0.0023,-0.0025 0.0006,-0.0007 0.0016,-0.0016 0.0024,-0.0024l0.0189 -0.0188c0.0008,-0.0006 0.0018,-0.0017 0.0024,-0.0023l0.0154 -0.0182c0.0438,-0.0516 0.1349,-0.1375 0.1881,-0.1907l0.0338 -0.0325c0.0214,-0.0213 0.0382,-0.0425 0.0621,-0.061l0.0122 -0.0117c0.0263,-0.0301 0.0325,-0.0303 0.0523,-0.0519l0.0066 -0.0074c0.0008,-0.0008 0.0017,-0.0018 0.0025,-0.0024l0.0636 -0.0733c0.0294,-0.0327 0.0553,-0.0969 0.0495,-0.1438l0.002 -0.2696c0.0232,-0.0084 0.4663,-0.0055 0.4797,-0.0005l0.0019 0.6667c0.0009,0.0243 0.0002,0.0084 -0.0052,0.0142 -0.1252,0.0009 -0.249,0.0023 -0.3742,0.0046 -0.0683,0.0013 -0.1643,0.1045 -0.2178,0.1565 -0.1877,0.1825 -0.1768,0.158 -0.1896,0.3752 -0.005,0.0831 -0.0041,0.0788 -0.0518,0.132l-0.0922 0.0976c-0.034,0.0327 -0.0685,0.0736 -0.1053,0.0796 -0.1033,0.0164 -0.5999,0.0076 -0.7411,0.0076 -0.082,0 -0.179,0.0039 -0.2685,0.003 -0.0013,0.0444 -0.006,0.0888 -0.0144,0.1328 0.2301,-0.0026 0.812,0.0011 0.8944,-0.0004 0.0743,-0.0013 0.1478,0.007 0.2155,-0.0287 0.0164,-0.0087 0.0211,-0.0137 0.0363,-0.0251l0.0951 -0.0906c0.0201,-0.0226 0.043,-0.0422 0.0614,-0.0612 0.0007,-0.0008 0.0016,-0.0018 0.0025,-0.0024l0.055 -0.0634c0.0235,-0.0264 0.0392,-0.0663 0.0457,-0.1049 0.0007,-0.0045 0.0017,-0.0109 0.002,-0.0125l0.0018 -0.0831c0,-0.0926 0.0052,-0.1031 0.0366,-0.14l0.0041 -0.0056c0.0077,-0.0092 0.0043,-0.0044 0.0139,-0.0136l0.0897 -0.0951c0.0007,-0.0007 0.002,-0.0014 0.0028,-0.0021l0.0221 -0.0208c0.0034,-0.0032 0.0041,-0.0037 0.0074,-0.0069 0.0183,-0.0171 0.0249,-0.0304 0.0474,-0.0472l0.0631 -0.0412c0.1051,-0.0203 0.3725,0.0165 0.4291,-0.0261 0.0282,-0.0214 0.05,-0.0331 0.0566,-0.0668 0.0239,-0.1218 -0.0009,-0.5654 0.013,-0.7307l0.3023 -0.0008 0.0025 2.5896 -0.3066 0.0017c0,-0.153 0.0074,-0.3055 -0.0045,-0.4569 -0.0056,-0.0712 -0.0281,-0.11 -0.0713,-0.159 -0.0361,-0.0405 -0.0788,-0.0796 -0.1115,-0.1226 -0.0302,-0.0398 -0.0148,-0.2227 -0.0176,-0.2911l0.041 -0.0205c0.0456,-0.0241 0.0765,-0.0426 0.1074,-0.0816 0.0062,-0.0078 -0.002,0.0037 0.0066,-0.0078 0.0769,-0.102 0.0606,-0.269 -0.0347,-0.3536 -0.2479,-0.2207 -0.6003,0.092 -0.4062,0.3585l0.0447 0.0453c0.0006,0.0005 0.0017,0.0015 0.0023,0.002l0.1017 0.0577zm-1.6439 0.7224l0.042 0.0004c0.0879,0.0004 0.1786,0.0033 0.2654,-0.0116l0.0504 -0.0165c0.0095,-0.0049 0.0179,-0.0105 0.0262,-0.0164l0.0828 -0.0737c0.0009,-0.0008 0.0019,-0.0018 0.0027,-0.0026l0.0279 -0.0234c0.023,-0.0165 0.03,-0.0212 0.061,-0.0232 0.1087,-0.0076 0.2283,-0.0035 0.3394,-0.0035 0.025,0.0388 0.0414,0.0802 0.0715,0.1158 0.0557,0.066 0.1397,0.0947 0.2286,0.0851 0.043,-0.0046 0.0761,-0.0174 0.1139,-0.0376 0.0207,-0.0111 0.0427,-0.0257 0.0557,-0.0439 0.0041,-0.0058 0.0013,-0.0027 0.0053,-0.0087l0.0321 -0.0481c0.0229,-0.0413 0.0319,-0.0767 0.0316,-0.131 -0.0003,-0.0399 -0.0042,-0.0796 -0.0219,-0.1143 -0.0027,-0.0055 -0.0018,-0.0038 -0.0051,-0.01 -0.0004,-0.0011 -0.0009,-0.0023 -0.0014,-0.0033 -0.0005,-0.0011 -0.001,-0.0023 -0.0015,-0.0032 -0.0005,-0.0009 -0.0011,-0.0022 -0.0016,-0.003 -0.0599,-0.109 -0.1928,-0.1594 -0.3141,-0.1264 -0.0626,0.0172 -0.1108,0.0575 -0.1468,0.1099 -0.0159,0.0233 -0.0332,0.0663 -0.0457,0.0825 -0.1076,0 -0.2348,-0.0058 -0.34,0.0025 -0.0617,0.0048 -0.1149,0.0176 -0.1571,0.055l-0.043 0.0421c-0.0079,0.0084 -0.0138,0.0123 -0.0229,0.02 -0.0541,0.0451 -0.0344,0.0431 -0.1227,0.0474 -0.1258,0.0062 -0.3968,0.0093 -0.5098,0.0029l-0.0005 -0.23c-0.0188,0.0339 -0.0403,0.067 -0.0645,0.099l-0.0228 0.0279c0.0018,0.0223 0.002,0.0453 0.0008,0.0703 -0.0022,0.0456 -0.009,0.0901 -0.0199,0.1336 0.1803,-0.0709 0.278,-0.0476 0.404,0.036zm0.1639 -1.9402c-0.0589,-0.008 -0.1126,0.006 -0.1499,0.043 -0.0406,0.0405 -0.0388,0.0906 -0.0386,0.1521l-0.0017 0.3816 -0.2719 -0.0007 -0.0009 -0.9164c0.0049,-0.0053 -0.0017,-0.0077 0.0282,-0.0074l0.4313 0.0004c0.0684,0.0008 0.4354,-0.0063 0.4625,0.0034l-0.0021 0.3398 -0.0064 0.0024c-0.0235,0.0046 -0.4504,0.0018 -0.4505,0.0018z"/>
   <path class="fil1" d="M3.0207 5.636l0.0304 0.0414c0.0628,0.0909 0.1533,0.2199 0.1871,0.3199 0.0342,0.065 0.1346,0.3286 -0.0369,0.2825 -0.0765,-0.0206 -0.2435,-0.1238 -0.2903,-0.1669 -0.026,-0.0097 -0.045,-0.0283 -0.0655,-0.0437l-0.2069 -0.1441c-0.0541,0.0261 -0.089,0.0485 -0.1403,0.0786 -0.0437,0.0258 -0.0949,0.0499 -0.1298,0.0859l0.004 0.0212c0.0149,0.0081 0.0306,0.0206 0.048,0.0341 0.0223,0.0172 0.0259,0.0199 0.0492,0.0361 0.029,0.0202 0.076,0.0491 0.0991,0.07 0.038,0.0184 0.0697,0.0465 0.109,0.0706 0.2165,0.1324 0.7372,0.4318 0.9638,0.305 0.0378,-0.0211 0.0952,-0.1055 0.1202,-0.1435 0.1544,-0.2352 0.1542,-0.6154 0.1104,-0.8895 -0.0519,-0.3251 -0.1814,-0.613 -0.3555,-0.8793 -0.0359,-0.0548 -0.1976,-0.2513 -0.2416,-0.2864 -0.0263,-0.0208 -0.0236,-0.0242 -0.0451,-0.0479 -0.109,-0.1197 -0.4214,-0.3431 -0.5681,-0.3943 -0.0215,-0.0322 -0.2929,-0.1245 -0.3547,-0.1429 -0.3962,-0.1178 -0.9119,-0.1265 -1.2218,0.1192 -0.2465,0.1953 0.1312,0.8338 0.2875,1.0715 0.0343,0.0522 0.0654,0.0997 0.1013,0.1474l0.1055 0.1371c0.0279,-0.041 0.1497,-0.2576 0.1586,-0.3 -0.0169,-0.0326 -0.029,-0.0474 -0.0497,-0.0747 -0.105,-0.1384 -0.1579,-0.2008 -0.2515,-0.362 -0.1519,-0.2615 0.0212,-0.2504 0.228,-0.1581 0.1251,0.0559 0.2116,0.1182 0.3166,0.1882l0.2372 0.1814c0.0116,0.0091 0.0175,0.0105 0.0279,0.0194l0.1204 0.1046c0.0214,0.0217 0.0267,0.029 0.0467,0.0463l0.1891 0.1836c0.1342,0.1362 0.3124,0.3321 0.4177,0.4893z"/>
   <path class="fil1" d="M1.9661 5.4187c-0.0034,0.0322 -0.0374,0.0764 -0.0552,0.1061l-0.1806 0.2982c-0.0231,-0.0071 -0.0423,-0.0202 -0.07,-0.0289 -0.0845,-0.0267 -0.1667,-0.0282 -0.2457,0.0106 -0.123,0.0604 -0.1352,0.1313 -0.172,0.2073 -0.0332,0.2111 0.0524,0.3607 0.2206,0.4058 0.1521,0.0407 0.2998,-0.0137 0.379,-0.1459 0.0065,-0.011 0.0087,-0.0164 0.013,-0.0257 0.0035,-0.0078 0.0025,-0.009 0.0071,-0.0166 0.0102,-0.0167 -0.0016,-0.0015 0.0114,-0.0126l0.0101 -0.1044 -0.0157 -0.1093 -0.0122 -0.0611 0.4223 -0.2672c0.2049,-0.1327 0.3469,-0.1653 0.1957,-0.3665 -0.0357,-0.0423 -0.189,-0.2239 -0.3015,-0.1737 -0.0703,0.0315 -0.163,0.258 -0.2063,0.2839z"/>
   <g>
    <path class="fil1" d="M5.8321 6.4649l-0.0363 -0.0304c-0.0218,-0.0221 -0.0812,-0.0748 -0.0925,-0.0984 -0.0234,-0.0124 -0.0803,-0.0683 -0.0931,-0.0937 0.0321,-0.0205 0.1864,-0.1825 0.2348,-0.231l0.0783 -0.0734c0.0301,0.0155 0.0182,0.0129 0.0478,0.0416 0.0677,0.0654 0.2282,0.2346 0.2731,0.269l-0.3131 0.3199c-0.0184,-0.0138 -0.0325,-0.0301 -0.0504,-0.048 -0.0203,-0.0203 -0.0355,-0.031 -0.0486,-0.0556zm-0.4659 -0.4659l-0.1181 -0.1119c-0.0129,-0.0148 -0.0069,-0.0089 -0.0108,-0.0169 -0.0372,-0.0198 -0.0591,-0.0543 -0.0915,-0.0834 0.0135,-0.0283 0.123,-0.1297 0.1524,-0.1592 0.0434,-0.0434 0.1281,-0.1399 0.1592,-0.1494 0.1242,0.1048 0.2055,0.2012 0.3123,0.2976 -0.0117,0.0362 -0.1211,0.1346 -0.1549,0.1684 -0.032,0.0319 -0.1269,0.1346 -0.1563,0.1511 -0.0183,-0.0132 -0.0304,-0.0275 -0.0476,-0.0446 -0.0198,-0.0198 -0.0318,-0.0274 -0.0447,-0.0517zm0.7202 -0.2172c0.0146,-0.0351 0.2877,-0.3 0.3114,-0.3178l0.3172 0.3228 -0.154 0.1563c-0.0498,0.0505 -0.1071,0.1038 -0.1587,0.1532l-0.3159 -0.3145zm-0.3863 -0.549c0.0117,-0.0221 0.0112,-0.0186 0.0296,-0.0358 0.0472,-0.0443 0.1662,-0.1801 0.2014,-0.1936 0.0271,0.0152 0.0611,0.0469 0.0837,0.0706l0.2294 0.2431c-0.0504,0.0386 -0.2625,0.277 -0.3039,0.2922 -0.0153,0.0107 0.0201,0.0067 -0.018,0.0076l-0.3033 -0.301c0.0097,-0.0199 0.0596,-0.0727 0.0811,-0.0831zm-0.9263 -0.0292c0.0462,-0.0735 0.1739,-0.158 0.1989,-0.2028 0.0379,0.0184 0.3022,0.2723 0.3261,0.3123 -0.0196,0.0289 -0.2719,0.2878 -0.3163,0.3008 -0.0061,-0.0057 -0.0143,-0.0126 -0.0184,-0.0163l-0.0199 -0.024c-0.0336,-0.0101 -0.048,-0.0398 -0.0714,-0.0642l-0.2039 -0.202c0.0247,-0.0298 0.0731,-0.0833 0.1049,-0.1038zm0.6189 -0.6107c0.0161,-0.0336 0.031,-0.023 0.0541,-0.0656 0.047,0.0173 0.1785,0.166 0.2342,0.2206l0.0275 0.0314c0.0291,0.0154 0.0416,0.037 0.0652,0.0601 -0.0294,0.0394 -0.0769,0.0788 -0.1145,0.1164 -0.035,0.035 -0.0805,0.0928 -0.1216,0.1145 -0.0102,0.0215 -0.061,0.0701 -0.0812,0.0807l-0.2271 -0.2321 -0.0266 -0.0189c-0.0271,-0.0266 -0.0483,-0.0425 -0.058,-0.0684 0.0225,-0.0313 0.2117,-0.2194 0.248,-0.2387zm-3.3435 -1.9101c0.0184,-0.0501 0.2735,-0.3043 0.3033,-0.3204 0.047,0.0521 0.2866,0.2783 0.3141,0.3189l-0.3153 0.3101 -0.2335 -0.2325c-0.0285,-0.0245 -0.0359,-0.0518 -0.0686,-0.0761zm-0.3057 -0.6435c0.0162,-0.0315 0.1019,-0.1136 0.1341,-0.1365 0.0341,0.0179 0.2961,0.272 0.3135,0.3042 -0.0168,0.031 -0.1208,0.1275 -0.1534,0.1601 -0.0436,0.0436 -0.1159,0.1075 -0.1495,0.152 -0.0317,-0.0154 -0.0563,-0.0486 -0.0798,-0.0721 -0.0135,-0.0135 -0.0214,-0.0215 -0.035,-0.0349 -0.0075,-0.0074 -0.0129,-0.0116 -0.0196,-0.0193 -0.0129,-0.0148 -0.007,-0.009 -0.0108,-0.017 -0.0363,-0.0193 -0.061,-0.054 -0.0905,-0.0835 -0.0285,-0.0285 -0.0604,-0.0553 -0.0829,-0.0853 0.0318,-0.0331 0.1415,-0.1519 0.1739,-0.1677zm1.0754 -0.1539l0.3213 0.3216 -0.3181 0.3121c-0.0351,-0.0464 -0.1117,-0.1142 -0.1572,-0.1598l-0.1165 -0.1165c-0.0229,-0.0227 -0.0237,-0.0182 -0.0378,-0.0452l0.3083 -0.3122zm-0.774 -0.1521c0.0459,-0.0551 0.1067,-0.1077 0.1566,-0.1576 0.0546,-0.0546 0.0936,-0.1012 0.1519,-0.1494 0.0557,0.0411 0.2537,0.2452 0.3127,0.307 -0.0092,0.0144 -0.2764,0.296 -0.3177,0.3121 -0.0343,-0.0455 -0.1087,-0.1113 -0.1533,-0.1559 -0.0384,-0.0384 -0.1264,-0.1156 -0.1502,-0.1562zm-0.641 -0.306c0.0404,0.0261 0.3055,0.2805 0.3191,0.3138l-0.3113 0.3085 -0.3168 -0.3163 0.309 -0.306zm0.1647 -0.1665c0.0108,-0.0187 0.0556,-0.0627 0.0743,-0.0805l0.2345 -0.2287c0.0379,0.0236 0.2954,0.2793 0.3199,0.3158 -0.0547,0.0526 -0.1025,0.1016 -0.1563,0.1556 -0.0344,0.0344 -0.1247,0.1322 -0.1556,0.1513l-0.3168 -0.3135zm1.2316 2.5334c0.0334,0.0005 0.2134,0.0863 0.2267,0.1059 0.0404,0.0139 0.1237,0.0684 0.1603,0.0954 0.024,0.0178 0.0486,0.0332 0.0724,0.0518 0.0155,0.0123 0.0264,0.0192 0.0354,0.027 0.0163,0.0142 0.0118,0.0119 0.0296,0.0247 0.0193,0.0138 0.0157,0.0145 0.0321,0.0296l0.0651 0.0595c0.0098,0.0101 0.0181,0.016 0.0285,0.0259 0.1358,0.1293 0.2215,0.2454 0.3134,0.4166 0.0332,0.0619 0.0946,0.1793 0.118,0.2475 0.0082,0.0236 0.0162,0.0654 0.0374,0.0771 0.0214,-0.0358 0.4909,-0.5012 0.5154,-0.5111l0.2292 0.2324c-0.0175,0.0254 -0.0574,0.0618 -0.082,0.087 -0.0754,0.0775 -0.3477,0.346 -0.4003,0.4153 -0.0679,0.0893 -0.0713,0.141 -0.0102,0.2334l0.1069 0.1253c0.024,0.0281 0.0285,0.0309 0.0592,0.0571l0.2735 0.2857c0.1499,0.1554 0.3003,0.3021 0.4533,0.4551 0.1943,0.1943 0.3707,0.3756 0.5739,0.56 0.0328,0.0297 0.0938,0.0986 0.1484,0.1388 0.1439,0.106 0.1226,0.0973 0.2684,0.0244 0.0466,-0.0424 0.106,-0.0892 0.1451,-0.1331 0.0482,-0.0541 0.0918,-0.09 0.141,-0.1389l0.6961 -0.7017c0.0231,-0.0236 0.048,-0.0431 0.0711,-0.0683 0.031,-0.0339 0.0455,-0.0631 0.0655,-0.0668 0.018,-0.0306 0.0281,-0.0388 0.0489,-0.0672 0.0242,-0.0331 0.0194,-0.0525 0.0364,-0.0815l0 -0.0458c-0.0157,-0.0217 -0.0293,-0.054 -0.0423,-0.0737l-0.0505 -0.0663c-0.0114,-0.0136 -0.0197,-0.0151 -0.0325,-0.0292 -0.0088,-0.0096 -0.016,-0.0195 -0.0244,-0.03 -0.0214,-0.0266 -0.0272,-0.0361 -0.0571,-0.0595l-0.2281 -0.2379c-0.2891,-0.3014 -0.6343,-0.6282 -0.9305,-0.9253 -0.041,-0.041 -0.0797,-0.0719 -0.12,-0.113 -0.022,-0.0225 -0.031,-0.0396 -0.0554,-0.0608 -0.0212,-0.0184 -0.0474,-0.0337 -0.0646,-0.0522 -0.0153,-0.0164 -0.0099,-0.0175 -0.0295,-0.0323 -0.1107,-0.0836 -0.1272,-0.1212 -0.2668,-0.0634 -0.1159,0.075 -0.3693,0.3658 -0.4279,0.398l-0.1731 -0.1732c-0.0176,-0.0189 -0.0384,-0.0326 -0.0561,-0.0571 0.0394,-0.0598 0.1356,-0.141 0.1614,-0.1766l0.1403 -0.1936c0.0249,-0.0534 0.0442,-0.1137 0.0474,-0.1811 0.0058,-0.12 -0.0468,-0.078 0.0258,-0.1805l0.0525 -0.0641c0.2035,-0.2693 0.1232,-0.6611 -0.1495,-0.8523 -0.0477,-0.0334 -0.0909,-0.0563 -0.1493,-0.0764 -0.3919,-0.1349 -0.6385,0.1629 -0.6604,0.1709 -0.0536,0.0074 -0.0938,-0.0211 -0.1553,-0.0081l-0.023 0.0025c-0.0761,0.0107 -0.1384,0.0382 -0.1959,0.0745 -0.0237,0.0149 -0.0579,0.0387 -0.0767,0.0555l-0.204 0.1917c-0.026,0.0219 -0.1127,0.1157 -0.1391,0.1277l-0.2261 -0.2335c0.0178,-0.028 0.0541,-0.061 0.0796,-0.0864l0.2423 -0.2391c0.0508,-0.051 0.1049,-0.1092 0.1517,-0.1667 0.0564,-0.0691 0.0887,-0.1432 0.0258,-0.2298l-0.1495 -0.1764c-0.0642,-0.0594 -0.0995,-0.1032 -0.1565,-0.1619l-0.3176 -0.3201 -0.59 -0.5893c-0.0331,-0.0331 -0.4166,-0.4034 -0.4561,-0.429 -0.1114,-0.0723 -0.2285,0.0079 -0.2973,0.0892l-0.1535 0.142c-0.0266,0.0248 -0.045,0.053 -0.0706,0.0768l-0.587 0.5856c-0.0524,0.0515 -0.0965,0.088 -0.1464,0.1488 -0.0128,0.0156 -0.0225,0.0286 -0.0361,0.0417 -0.105,0.1003 -0.1848,0.1878 -0.0878,0.3179l0.2817 0.3081c0.0461,0.0511 0.0971,0.0998 0.1463,0.149l0.8824 0.8803c0.0447,0.0448 0.1153,0.0981 0.1515,0.1435 0.0332,0.0415 0.1067,0.1014 0.1502,0.1371 0.0594,0.0485 0.101,0.0996 0.2037,0.0633 0.0385,-0.0136 0.0628,-0.037 0.0907,-0.0566l0.0774 -0.0701c0.0818,-0.0719 0.2592,-0.2707 0.2962,-0.2909 0.085,0.0711 0.1868,0.1886 0.2355,0.2259 -0.0131,0.031 -0.0321,0.0413 -0.0531,0.0622 -0.0513,0.0513 -0.3354,0.3219 -0.3552,0.3643 0.0304,0.0063 0.0744,0.0167 0.0937,0.0388z"/>
    <path class="fil2" d="M0.1149 6.3008l0 0.2477c0.0148,0.0371 0.0111,0.099 0.0197,0.1423 0.023,0.1159 0.0774,0.2538 0.1341,0.3477 0.039,0.0645 0.0886,0.1397 0.1374,0.1808 0.0311,0.0261 0.0487,0.0516 0.0841,0.0794 0.1954,0.1532 0.4232,0.2352 0.6609,0.2508l0.1698 0c0.1044,-0.0067 0.2096,-0.0257 0.3139,-0.0565 0.0414,-0.2812 -0.0903,-0.0925 -0.5077,-0.1792 -0.2717,-0.0564 -0.478,-0.2156 -0.6229,-0.4256 -0.2562,-0.3712 -0.1416,-0.6402 -0.1916,-0.8565 -0.2351,-0.0698 -0.1481,0.1594 -0.1977,0.2691z"/>
    <path class="fil2" d="M1.4721 7.0564c0.0115,-0.0146 0.1304,-0.0132 0.1688,-0.0465 0.0482,-0.0417 0.0251,-0.1219 -0.0245,-0.1387 -0.0844,-0.0286 -0.5123,0.0436 -0.7269,-0.353 -0.027,-0.0498 -0.0495,-0.0998 -0.0592,-0.1568 -0.0518,-0.2164 0.0179,-0.3419 -0.0947,-0.3647 -0.0594,-0.0121 -0.0882,0.013 -0.102,0.0601 -0.0574,0.196 -0.0354,0.4755 0.0735,0.6523 0.1051,0.1707 0.2548,0.2783 0.4572,0.3266 0.1173,0.0281 0.2046,0.0058 0.3078,0.0207z"/>
   </g>
  </g>
 </g>
</svg>
