
<svg xmlns="http://www.w3.org/2000/svg" xml:space="preserve" width="162.56mm" height="19.0498mm" version="1.1" style="shape-rendering:geometricPrecision; text-rendering:geometricPrecision; image-rendering:optimizeQuality; fill-rule:evenodd; clip-rule:evenodd"
viewBox="0 0 162.5598 19.0498"
 xmlns:xlink="http://www.w3.org/1999/xlink"
 xmlns:xodm="http://www.corel.com/coreldraw/odm/2003">
 <defs>
  <style type="text/css">
   <![CDATA[
    .fil1 {fill:#015293}
    .fil0 {fill:#045395}
    .fil2 {fill:#61B3E9}
   ]]>
  </style>
 </defs>
 <g id="Слой_x0020_1">
  <metadata id="CorelCorpID_0Corel-Layer"/>
  <g id="_2080894337072">
     <path class="fil0" d="M25.169 8.1608l11.6508 0.0029 51.2065 0.0113 3.0969 -0.0045c0.7508,0.0049 1.1365,-0.2632 1.6276,-0.7755 0.8929,-0.9313 1.8459,-2.4379 2.2477,-3.102l0.5854 0c-0.6845,1.7484 -1.3689,3.4968 -2.0533,5.2453 -0.5396,1.3793 -0.9286,2.2232 -4.4612,2.198l-1.0432 0 -64.0076 -0.0034 1.1504 -3.5721z"/>
   <path class="fil1" d="M36.71 12.3501l1.1496 0 51.3918 0.0108 2.1992 0.0011c0.7535,0.0047 1.6844,-0.2544 2.1774,-0.7481 0.896,-0.8973 2.84,-6.3958 3.2432,-7.0358l0.909 -0.0611c-0.5275,2.0545 -2.7192,8.8814 -3.1025,9.6758 -0.5686,1.1784 -2.4802,1.6128 -4.3794,1.5998l-1.047 0 -53.6958 -0.0005c-1.1545,-0.007 -2.5565,-0.2227 -4.0286,0.9199 -0.6241,0.4844 -1.0507,1.7793 -1.2132,2.3793l-0.5886 0 0.6152 -1.9811c0.851,-2.7401 1.4883,-4.7937 6.3697,-4.7601z"/>
   <path class="fil2" d="M47.7993 8.1661l40.227 0.0089 3.0969 -0.0046c0.7508,0.005 1.1365,-0.2631 1.6276,-0.7754 0.8929,-0.9313 1.8459,-2.4379 2.2477,-3.102l0.5854 0c-0.6844,1.7484 -1.3689,3.4969 -2.0533,5.2453 -0.5396,1.3793 -0.9286,2.2232 -4.4612,2.198l-1.0432 0 -27.1068 -0.0014 -1.9534 0.0033 -53.5022 -0.0005c-4.7065,0 -5.3553,5.9376 -5.3553,5.6385l0 -3.1764 0.0105 -2.411c0.0088,-2.044 2.0637,-3.7899 6.6013,-3.7586l41.079 0.1359z"/>
   <path class="fil2" d="M102.7094 8.0623l1.1495 0 51.3918 0.0108 2.1992 0.0011c0.7535,0.0047 2.1357,-0.446 2.6677,-0.8973 2.1891,-1.8569 2.1638,-6.1904 2.4391,-6.8837l0.003 5.9551c0.0013,2.7326 -1.3919,5.2604 -5.8197,5.2562l-1.4893 0.0003 -53.6959 -0.0005c-1.1545,-0.0071 -2.5565,-0.2227 -4.0285,0.9198 -0.6242,0.4845 -1.0507,1.7794 -1.2132,2.3794l-0.5887 0 0.6153 -1.9811c0.8509,-2.7401 1.4883,-4.7938 6.3697,-4.7601z"/>
  </g>
 </g>
</svg>
