<?xml version="1.0" encoding="UTF-8"?>
<!DOCTYPE svg PUBLIC "-//W3C//DTD SVG 1.1//EN" "http://www.w3.org/Graphics/SVG/1.1/DTD/svg11.dtd">
<!-- Creator: CorelDRAW 2019 (64-Bit) -->
<svg xmlns="http://www.w3.org/2000/svg" xml:space="preserve" width="162.645mm" height="7.3658mm" version="1.1" style="shape-rendering:geometricPrecision; text-rendering:geometricPrecision; image-rendering:optimizeQuality; fill-rule:evenodd; clip-rule:evenodd"
viewBox="0 0 162.6446 7.3658"
 xmlns:xlink="http://www.w3.org/1999/xlink"
 xmlns:xodm="http://www.corel.com/coreldraw/odm/2003">
 <defs>
  <style type="text/css">
   <![CDATA[
    .fil0 {fill:white}
    .fil3 {fill:#015293}
    .fil2 {fill:#045395}
    .fil4 {fill:#61B3E9}
    .fil1 {fill:#015293;fill-rule:nonzero}
   ]]>
  </style>
 </defs>
 <g id="Слой_x0020_1">
  <metadata id="CorelCorpID_0Corel-Layer"/>
  <g id="_2303588487008">
   <rect class="fil0" x="-0.0001" y="0.0696" width="162.56" height="7.3111"/>
   <path class="fil1" d="M12.5276 2.2677c0.1614,0 0.3016,0.0269 0.4205,0.0808 0.1189,0.0538 0.2105,0.1301 0.2747,0.2291 0.0642,0.0989 0.0963,0.2161 0.0963,0.3515 0,0.1337 -0.0321,0.2504 -0.0963,0.3502 -0.0642,0.0998 -0.1558,0.1762 -0.2747,0.2292 -0.1189,0.0529 -0.2591,0.0794 -0.4205,0.0794l-0.3672 0 0 0.5025 -0.4218 0 0 -1.8227 0.789 0zm-0.0235 0.9765c0.1268,0 0.2231,-0.0274 0.2891,-0.0821 0.0659,-0.0546 0.0989,-0.1323 0.0989,-0.233 0,-0.1024 -0.033,-0.181 -0.0989,-0.2356 -0.066,-0.0547 -0.1623,-0.0821 -0.2891,-0.0821l-0.3437 0 0 0.6328 0.3437 0zm2.3539 0.4556l-0.8462 0 -0.1614 0.3906 -0.4323 0 0.8124 -1.8227 0.4166 0 0.815 1.8227 -0.4426 0 -0.1615 -0.3906zm-0.1328 -0.3202l-0.289 -0.6979 -0.289 0.6979 0.578 0zm1.8149 0.742c-0.1857,0 -0.3537,-0.0403 -0.5038,-0.121 -0.1502,-0.0807 -0.2682,-0.1927 -0.3542,-0.3359 -0.0859,-0.1432 -0.1289,-0.3051 -0.1289,-0.4856 0,-0.1806 0.043,-0.3424 0.1289,-0.4856 0.086,-0.1432 0.204,-0.2552 0.3542,-0.3359 0.1501,-0.0807 0.3189,-0.1211 0.5064,-0.1211 0.158,0 0.3007,0.0278 0.4283,0.0833 0.1276,0.0556 0.2348,0.1354 0.3216,0.2396l-0.2708 0.2499c-0.1233,-0.1423 -0.276,-0.2135 -0.4583,-0.2135 -0.1128,0 -0.2135,0.0248 -0.302,0.0742 -0.0885,0.0495 -0.1575,0.1185 -0.207,0.207 -0.0495,0.0886 -0.0742,0.1892 -0.0742,0.3021 0,0.1128 0.0247,0.2135 0.0742,0.302 0.0495,0.0885 0.1185,0.1575 0.207,0.207 0.0885,0.0495 0.1892,0.0742 0.302,0.0742 0.1823,0 0.335,-0.072 0.4583,-0.2161l0.2708 0.25c-0.0868,0.1059 -0.1944,0.1866 -0.3229,0.2421 -0.1284,0.0556 -0.2716,0.0833 -0.4296,0.0833zm2.6899 -1.8539l0 1.8227 -0.4193 0 0 -1.479 -0.8229 0 0 1.479 -0.4192 0 0 -1.8227 1.6614 0zm0.453 0l0.4192 0 0 1.1874 0.8697 -1.1874 0.3958 0 0 1.8227 -0.4166 0 0 -1.1847 -0.8697 1.1847 -0.3984 0 0 -1.8227zm2.9996 1.8539c-0.1857,0 -0.3537,-0.0403 -0.5038,-0.121 -0.1502,-0.0807 -0.2682,-0.1927 -0.3542,-0.3359 -0.0859,-0.1432 -0.1289,-0.3051 -0.1289,-0.4856 0,-0.1806 0.043,-0.3424 0.1289,-0.4856 0.086,-0.1432 0.204,-0.2552 0.3542,-0.3359 0.1501,-0.0807 0.3189,-0.1211 0.5064,-0.1211 0.158,0 0.3007,0.0278 0.4283,0.0833 0.1276,0.0556 0.2348,0.1354 0.3216,0.2396l-0.2708 0.2499c-0.1233,-0.1423 -0.276,-0.2135 -0.4583,-0.2135 -0.1128,0 -0.2135,0.0248 -0.302,0.0742 -0.0885,0.0495 -0.1575,0.1185 -0.207,0.207 -0.0495,0.0886 -0.0742,0.1892 -0.0742,0.3021 0,0.1128 0.0247,0.2135 0.0742,0.302 0.0495,0.0885 0.1185,0.1575 0.207,0.207 0.0885,0.0495 0.1892,0.0742 0.302,0.0742 0.1823,0 0.335,-0.072 0.4583,-0.2161l0.2708 0.25c-0.0868,0.1059 -0.1944,0.1866 -0.3229,0.2421 -0.1284,0.0556 -0.2716,0.0833 -0.4296,0.0833zm2.2262 -0.4218l-0.8462 0 -0.1614 0.3906 -0.4323 0 0.8124 -1.8227 0.4166 0 0.815 1.8227 -0.4426 0 -0.1615 -0.3906zm-0.1328 -0.3202l-0.289 -0.6979 -0.289 0.6979 0.578 0zm2.6507 -1.1119l0 1.8227 -0.4218 0 0 -0.7473 -0.8281 0 0 0.7473 -0.4218 0 0 -1.8227 0.4218 0 0 0.7187 0.8281 0 0 -0.7187 0.4218 0zm0.4556 0l0.4192 0 0 1.1874 0.8697 -1.1874 0.3958 0 0 1.8227 -0.4166 0 0 -1.1847 -0.8697 1.1847 -0.3984 0 0 -1.8227zm3.549 1.4842l0 0.3385 -1.4113 0 0 -1.8227 1.3774 0 0 0.3385 -0.9582 0 0 0.3958 0.8463 0 0 0.3281 -0.8463 0 0 0.4218 0.9921 0z"/>
   <path class="fil2" d="M91.5261 0.0696c-0.5922,0.154 -1.393,0.2323 -2.5057,0.2243l-1.0439 0 -27.1001 -0.0014 -1.9796 0.0033 -53.538 -0.0005c-4.6132,0 -5.3539,5.6476 -5.3589,5.6529l0.0001 -3.1891 -0.0001 -2.6895 91.5262 0z"/>
   <path class="fil3" d="M99.8064 0.0696c-0.7342,0.0689 -1.5184,0.2878 -2.3234,0.9126 -0.6246,0.4848 -1.0514,1.7806 -1.2141,2.381l-0.589 0 0.6156 -1.9824c0.1424,-0.4585 0.2789,-0.8977 0.4302,-1.3112l3.0807 0z"/>
   <path class="fil4" d="M41.501 0.6351l1.0575 0 47.2774 0.0108 2.0232 0.0011c0.6081,0.0041 1.3419,-0.195 1.819,-0.5774l1.7816 0c-0.2784,1.2051 -0.5135,2.1426 -0.6318,2.4094 -0.5231,1.1792 -2.2817,1.6139 -4.0289,1.6009l-0.9631 0 -49.3971 -0.0005c-1.062,-0.0071 -2.3518,-0.2228 -3.7059,0.9205 -0.5742,0.4848 -0.9666,1.7805 -1.1161,2.3809l-0.5416 0 0.566 -1.9824c0.7829,-2.742 1.3692,-4.797 5.8598,-4.7633z"/>
  </g>
 </g>
</svg>
