<?xml version="1.0" encoding="UTF-8"?>
<!DOCTYPE svg PUBLIC "-//W3C//DTD SVG 1.1//EN" "http://www.w3.org/Graphics/SVG/1.1/DTD/svg11.dtd">
<!-- Creator: CorelDRAW 2019 (64-Bit) -->
<svg xmlns="http://www.w3.org/2000/svg" xml:space="preserve" width="12mm" height="12mm" version="1.1" style="shape-rendering:geometricPrecision; text-rendering:geometricPrecision; image-rendering:optimizeQuality; fill-rule:evenodd; clip-rule:evenodd"
viewBox="0 0 12 12"
 xmlns:xlink="http://www.w3.org/1999/xlink"
 xmlns:xodm="http://www.corel.com/coreldraw/odm/2003">
 <defs>
  <style type="text/css">
   <![CDATA[
    .fil0 {fill:#045395}
    .fil1 {fill:white}
   ]]>
  </style>
 </defs>
 <g id="Слой_x0020_1">
  <metadata id="CorelCorpID_0Corel-Layer"/>
  <g id="_2303364948384">
   <circle class="fil0" cx="5.9287" cy="6.0053" r="5.9914"/>
   <path class="fil1" d="M4.4064 4.2084c0.017,-0.3013 -0.0207,-0.5779 0.0307,-0.8738 0.0436,-0.251 0.1324,-0.4509 0.2624,-0.6273 0.2546,-0.3456 0.6605,-0.5629 1.2291,-0.5635 0.5795,-0.0007 0.9901,0.2326 1.2301,0.5637 0.3077,0.4243 0.3104,0.8774 0.2883,1.5082 0.2544,0.0124 0.2494,0.3439 0.1644,0.5523 -0.1627,0.3991 -0.3167,0.3436 -0.3697,0.4433 -0.083,0.156 -0.1043,0.3024 -0.2565,0.5572 -0.1553,0.2599 -0.5562,0.6458 0.1489,0.9671 0.5049,0.2301 1.2774,0.4866 1.6868,0.7559 0.3648,0.24 0.4495,0.5731 0.5565,1.0694 0.0609,0.2829 0.1263,0.4371 -0.0567,0.6288 -0.1969,0.2063 -0.5511,0.3244 -0.8265,0.4022 -0.309,0.0873 -0.7535,0.1263 -1.0301,0.1818 -0.3318,0.0666 -1.1714,0.0929 -1.5355,0.093 -0.5106,0.0002 -1.057,-0.0268 -1.5296,-0.0961 -0.5497,-0.0807 -1.4618,-0.1725 -1.8633,-0.5802 -0.1861,-0.189 -0.1121,-0.3745 -0.0549,-0.625 0.1164,-0.5106 0.1648,-0.8066 0.5558,-1.0731 0.3027,-0.2062 0.7383,-0.3595 1.1111,-0.5168 0.1831,-0.0772 0.392,-0.1516 0.5752,-0.2393 0.1642,-0.0786 0.3627,-0.1772 0.4,-0.4115 0.0327,-0.205 -0.1707,-0.4152 -0.2512,-0.5559 -0.1593,-0.2783 -0.1665,-0.3829 -0.2576,-0.5554 -0.0504,-0.0954 -0.2204,-0.067 -0.3691,-0.4452 -0.0405,-0.1029 -0.0684,-0.235 -0.0441,-0.3644 0.0298,-0.1592 0.1505,-0.1701 0.2055,-0.1954z"/>
  </g>
 </g>
</svg>
