<?xml version="1.0" encoding="UTF-8"?>
<!DOCTYPE svg PUBLIC "-//W3C//DTD SVG 1.1//EN" "http://www.w3.org/Graphics/SVG/1.1/DTD/svg11.dtd">
<!-- Creator: CorelDRAW 2019 (64-Bit) -->
<svg xmlns="http://www.w3.org/2000/svg" xml:space="preserve" width="10.6536mm" height="5.9046mm" version="1.1" style="shape-rendering:geometricPrecision; text-rendering:geometricPrecision; image-rendering:optimizeQuality; fill-rule:evenodd; clip-rule:evenodd"
viewBox="0 0 10.6536 5.9046"
 xmlns:xlink="http://www.w3.org/1999/xlink"
 xmlns:xodm="http://www.corel.com/coreldraw/odm/2003">
 <defs>
  <style type="text/css">
   <![CDATA[
    .fil0 {fill:#015293}
    .fil1 {fill:#035294}
    .fil2 {fill:#055493}
   ]]>
  </style>
 </defs>
 <g id="Слой_x0020_1">
  <metadata id="CorelCorpID_0Corel-Layer"/>
  <g id="_2428825840144">
   <path class="fil0" d="M10.6464 3.3363l-4.3749 -0.0028c-0.0038,0.0816 0.0899,0.2276 0.0997,0.2374 0.0351,0.0349 0.2469,0.0382 0.3174,0.0443 0.206,0.0175 0.4299,0.0456 0.6317,0.0674 0.6279,0.0678 1.3051,0.1182 1.9194,0.1948 0.2076,0.0259 0.4342,0.0369 0.6349,0.0669 0.2611,0.0391 0.2299,0.0245 0.4475,-0.2296l0.3243 -0.3784z"/>
   <path class="fil0" d="M4.0655 3.2446l-4.0727 -0.0016c0.0166,0.0583 0.3761,0.4667 0.4415,0.5479 0.0764,0.0946 0.1376,0.0576 0.257,0.0439 0.2461,-0.0282 3.2356,-0.3233 3.2763,-0.3562 0.0111,-0.009 0.1009,-0.1521 0.0979,-0.234z"/>
   <path class="fil0" d="M3.333 2.9406c0.0375,0.0226 0.2681,0.1244 0.3017,0.1277 0.0435,-0.0575 0.0829,-0.1364 0.1246,-0.1983 0.0448,-0.0663 0.0876,-0.1199 0.1415,-0.1828 0.7008,-0.8181 1.9582,-0.8587 2.7215,-0.0048 0.1165,0.1302 0.1787,0.2336 0.2831,0.3741 0.0421,-0.0005 0.2947,-0.0907 0.3242,-0.1159 -0.0373,-0.1073 -0.2543,-0.3863 -0.3221,-0.4675 -0.4077,-0.4886 -0.9326,-0.7691 -1.6266,-0.7695 -0.7009,-0.0004 -1.218,0.3002 -1.6216,0.763 -0.0658,0.0755 -0.3168,0.3933 -0.3263,0.474z"/>
   <path class="fil0" d="M3.3299 4.7899c0.0261,0.0941 0.2664,0.3611 0.3307,0.432 0.7049,0.7777 1.9762,0.9143 2.8377,0.3446 0.1481,-0.098 0.2846,-0.2177 0.4077,-0.351 0.0415,-0.0448 0.3123,-0.3581 0.3215,-0.4311 -0.0443,-0.019 -0.2765,-0.0973 -0.3221,-0.098 -0.1987,0.2507 -0.3518,0.4484 -0.639,0.626 -0.2777,0.1717 -0.6026,0.2806 -0.9963,0.279 -0.6284,-0.0025 -1.1376,-0.26 -1.5031,-0.7259 -0.0406,-0.0517 -0.0884,-0.1386 -0.1323,-0.1894 -0.0625,0.0045 -0.2321,0.0903 -0.3048,0.1138z"/>
   <path class="fil0" d="M4.8216 4.3919c0.0212,-0.0485 0.2734,-0.2714 0.286,-0.272 0.0655,0.0199 0.0836,0.0489 0.1734,0.0468 0.089,-0.0022 0.1103,-0.0381 0.1732,-0.0556 0.0415,0.0322 0.0956,0.0929 0.1363,0.1336 0.0303,0.0304 0.1189,0.1024 0.1333,0.1472 -0.2373,0.2294 -0.7608,0.1765 -0.9022,0zm0.5331 -1.1537c0.3315,0.0121 0.8254,0.4239 0.5219,0.9883 -0.0431,-0.006 -0.1187,-0.0928 -0.1538,-0.1252 -0.0421,-0.0391 -0.0931,-0.0847 -0.1418,-0.1287 -0.0658,-0.0596 -0.0229,-0.1124 -0.0732,-0.197 -0.0422,-0.0712 -0.0919,-0.0756 -0.1559,-0.1202l0.0028 -0.4172zm-0.6911 0.987c-0.1368,-0.2016 -0.1199,-0.4652 0.001,-0.6672 0.0586,-0.098 0.1154,-0.1634 0.2088,-0.2228 0.0751,-0.0476 0.2152,-0.111 0.3201,-0.1011l-0.0024 0.4213c-0.0604,0.0451 -0.095,0.0367 -0.1435,0.1033 -0.0559,0.0768 -0.0386,0.0932 -0.0521,0.1999 -0.067,0.0505 -0.2803,0.2534 -0.3319,0.2666zm0.4843 -1.1503c-0.4275,0.0609 -0.8362,0.4423 -0.7386,0.953 0.1361,0.7118 1.075,0.9284 1.5509,0.3826 0.1316,-0.1508 0.231,-0.3903 0.1861,-0.6478 -0.0734,-0.4209 -0.4869,-0.7606 -0.9984,-0.6878z"/>
   <path class="fil0" d="M6.4099 3.9844l2.8644 0.5516c0.3765,0.0731 0.3002,0.0835 0.4078,-0.043 0.0243,-0.0285 0.2454,-0.279 0.2529,-0.3135 -0.5806,-0.0795 -1.1698,-0.1643 -1.7626,-0.2343l-1.3143 -0.1769c-0.1222,-0.0167 -0.3362,-0.0575 -0.4493,-0.0561l0.0011 0.2722z"/>
   <path class="fil0" d="M0.6478 4.1861c0.0243,0.0504 0.2738,0.3138 0.3307,0.4032 0.0938,0.0054 0.3089,-0.0458 0.4074,-0.066 0.1237,-0.0253 0.2641,-0.0522 0.3949,-0.0785l1.9907 -0.384c0.1197,-0.022 0.2718,-0.0616 0.3975,-0.0782l0.0047 -0.2693c-0.1497,0.0063 -0.3079,0.0402 -0.4627,0.0555 -0.1344,0.0133 -0.2912,0.0403 -0.4328,0.0598 -0.3771,0.0519 -2.5862,0.3333 -2.6304,0.3575z"/>
   <path class="fil0" d="M6.3269 4.3076l2.7218 0.9187c0.0464,-0.039 0.2617,-0.3043 0.3369,-0.3902l0.0487 -0.0652c-0.0455,-0.0316 -0.1239,-0.0367 -0.1833,-0.0506l-2.4742 -0.5437c-0.1005,-0.0217 -0.2979,-0.0722 -0.3921,-0.0787 -0.0069,0.104 -0.0506,0.138 -0.0578,0.2097z"/>
   <path class="fil0" d="M1.1495 4.7709c0.0198,0.039 0.3475,0.4224 0.3841,0.4519l2.7277 -0.9194c-0.0086,-0.0456 -0.0328,-0.0568 -0.0543,-0.146l-0.02 -0.0596c-0.3667,0.0562 -1.1061,0.2458 -1.5223,0.3304 -0.2537,0.0517 -0.5004,0.1133 -0.76,0.1643l-0.5635 0.1258c-0.0337,0.0082 -0.0676,0.0149 -0.0966,0.0211l-0.0714 0.0174c-0.0159,0.007 -0.0153,0.0079 -0.0237,0.0141z"/>
   <path class="fil1" d="M2.7466 1.6735c-0.0359,-0.0118 -0.0843,-0.0673 -0.1009,-0.1083 0.0399,-0.0597 0.1571,-0.2138 0.2302,-0.129 0.0488,0.0566 0.0028,0.1025 -0.0263,0.1342 -0.0175,0.0191 -0.082,0.0887 -0.103,0.1031zm-0.4145 -0.2754c0.0022,0.0024 0.0059,0.0022 0.0072,0.0065l0.0498 0.0419c0.0153,0.0152 0.028,0.0323 0.0451,0.0516 0.0852,0.0963 0.2216,0.2286 0.2907,0.3305 0.0452,-0.0226 0.1338,-0.1292 0.1767,-0.1737 0.0533,-0.0554 0.1386,-0.1363 0.0783,-0.2481 -0.0325,-0.0604 -0.1233,-0.1472 -0.2228,-0.0911 -0.0672,0.0378 -0.128,0.1301 -0.1838,0.1715 -0.036,-0.0185 -0.069,-0.0569 -0.0896,-0.0953l0.1564 -0.1719c0.0093,-0.0095 0.0198,-0.0197 0.0271,-0.026l0.0239 -0.0194c0.0016,-0.0013 0.0049,-0.004 0.0063,-0.0051 0.0013,-0.001 0.0044,-0.0032 0.0064,-0.0051l-0.0747 -0.0812 -0.297 0.3149z"/>
   <path class="fil2" d="M3.0425 0.852c0.1847,-0.1021 0.3813,0.2686 0.1882,0.3643 -0.1847,0.0917 -0.3931,-0.2512 -0.1882,-0.3643zm-0.0003 -0.1105c-0.3755,0.127 -0.1219,0.6797 0.1844,0.5887 0.1433,-0.0425 0.2303,-0.205 0.1653,-0.3765 -0.0452,-0.1194 -0.1849,-0.268 -0.3497,-0.2122z"/>
   <path class="fil1" d="M2.2052 1.7693c0.0973,-0.0346 0.2038,0.0442 0.245,0.1146 0.0498,0.0851 0.0281,0.2089 -0.0702,0.2449 -0.1948,0.0712 -0.4101,-0.276 -0.1748,-0.3595zm-0.0072 -0.1074c-0.3782,0.1252 -0.1488,0.6552 0.1906,0.5749 0.1365,-0.0323 0.2348,-0.2122 0.1691,-0.3731 -0.0422,-0.1035 -0.2039,-0.2534 -0.3597,-0.2018z"/>
   <path class="fil1" d="M6.1234 0.4713c-0.0755,0.2626 -0.376,0.1577 -0.3014,-0.1193 0.0712,-0.2647 0.379,-0.1508 0.3014,0.1193zm-0.2169 -0.3627c-0.1357,0.039 -0.2138,0.1967 -0.1945,0.3738 0.0397,0.3632 0.5718,0.3221 0.521,-0.1408 -0.0165,-0.1506 -0.1567,-0.2819 -0.3265,-0.233z"/>
   <path class="fil2" d="M8.2027 2.2258l0.0524 0.1193c0.0424,-0.0423 0.0348,-0.0363 0.0898,-0.0657 0.0337,-0.018 0.0683,-0.0368 0.1054,-0.0563 0.0469,-0.0246 0.1711,-0.0994 0.2205,-0.1077 0.0302,0.0366 0.1043,0.1904 0.1113,0.2457l-0.417 0.2113 0.0497 0.1164c0.0211,-0.0104 0.0204,-0.0269 0.1136,-0.0744l0.3922 -0.2045 -0.2077 -0.4462c-0.0267,0.0063 -0.0296,0.0159 -0.0552,0.0317l-0.1912 0.1017c-0.0494,0.025 -0.0858,0.045 -0.128,0.068 -0.0922,0.0501 -0.117,0.0507 -0.1358,0.0607z"/>
   <path class="fil2" d="M6.2617 0.7745c0.0085,0.0074 0.0071,0.0076 0.022,0.0157 0.0491,0.0267 0.303,0.0882 0.3835,0.1391 0.0246,-0.0348 0.0352,-0.0786 0.0403,-0.1221 -0.0633,0.0056 -0.2566,-0.0565 -0.3093,-0.0868 0.0018,-0.0483 0.0268,-0.1171 0.0407,-0.1519 0.0434,0.0077 0.0677,0.0189 0.1087,0.0318 0.1082,0.034 0.0557,0.0388 0.0979,0.0494l0.034 -0.1319c-0.0636,0.0221 -0.1465,-0.0283 -0.2104,-0.0437l0.0333 -0.1338 0.2431 0.0741c0.0627,0.0246 0.0259,0.0255 0.0577,0.041l0.0335 -0.1136 -0.4167 -0.137c0.0015,0.0909 -0.1159,0.4928 -0.1583,0.5697z"/>
   <path class="fil2" d="M7.0252 1.0785l0.112 0.0724c0.0072,-0.0727 0.1839,-0.3732 0.2339,-0.4305 0.0398,0.0097 0.1896,0.1136 0.2159,0.1408 -0.008,0.0363 -0.1433,0.2576 -0.1796,0.3183l-0.0705 0.1041 0.1062 0.0491c0.0007,-0.0018 0.0023,-0.0058 0.0032,-0.008 0.03,-0.0755 0.0869,-0.1591 0.1311,-0.2349l0.1123 -0.1917c0.0134,-0.0215 0.0079,-0.0142 0.0228,-0.0312l0.0257 -0.0274 -0.4107 -0.2763 -0.0644 0.1356c-0.0251,0.0424 -0.0496,0.0821 -0.0763,0.1287l-0.1122 0.1925c-0.0244,0.0377 -0.0347,0.0285 -0.0494,0.0585z"/>
   <path class="fil2" d="M5.1368 0.6148l0.1346 0.014c-0.0008,-0.0222 -0.0614,-0.2292 0.0791,-0.2705 0.0304,0.081 0.13,0.2073 0.1049,0.284 0.0551,0.0077 0.1102,0.0198 0.1697,0.0114 -0.0572,-0.0989 -0.179,-0.2776 -0.1954,-0.3774 0.0325,-0.0382 0.2121,-0.1808 0.2291,-0.2166l-0.1613 -0.0211c-0.0072,0.0154 -0.003,0.0427 -0.0337,0.0741 -0.0168,0.0172 -0.0417,0.0351 -0.0584,0.0499 -0.0302,0.0267 -0.0833,0.0866 -0.1219,0.101 -0.0004,-0.0492 0.002,-0.0794 0.0093,-0.1252l0.0264 -0.1156 -0.129 -0.0118c0.0079,0.05 -0.0153,0.476 -0.0356,0.5538 -0.0101,0.0382 -0.0182,0.0159 -0.0178,0.05z"/>
   <path class="fil2" d="M4.1148 0.5363c0.1586,-0.0619 0.2533,-0.0928 0.2462,0.0682 -0.0407,0.0344 -0.1449,0.0781 -0.2145,0.0816 -0.0115,-0.0499 -0.0362,-0.1001 -0.0317,-0.1498zm-0.2094 -0.2966c0.0173,0.0491 0.0151,0.0142 0.0514,0.1371 0.0299,0.1015 0.1098,0.3662 0.1088,0.4423 0.0775,-0.0128 0.1639,-0.0481 0.2446,-0.0729 0.2647,-0.0814 0.1389,-0.346 0.0281,-0.3625 -0.1022,-0.0151 -0.1631,0.0428 -0.2585,0.054 -0.0231,-0.072 -0.0533,-0.1495 -0.048,-0.2332l-0.1264 0.0352z"/>
   <path class="fil2" d="M7.9671 1.2568l-0.0745 0.19c-0.0409,-0.0138 -0.0878,-0.0637 -0.1024,-0.1041l0.1769 -0.0859zm-0.4741 0.1242c0.0147,0.0347 0.0652,0.0771 0.0947,0.099l0.0178 -0.028c0.0218,-0.0275 0.0613,-0.0478 0.1014,-0.0575l0.1404 0.137c0,0.0309 -0.0055,0.054 -0.0183,0.0809 -0.0197,0.0414 -0.0148,0.0295 -0.0529,0.0502l0.1007 0.1105c0.0204,-0.0217 0.018,-0.0333 0.0302,-0.0735l0.1653 -0.4517c0.0206,-0.0479 0.0184,-0.0283 0.0526,-0.051l-0.1005 -0.1106 -0.0487 0.0543c-0.0201,0.0148 -0.0518,0.0274 -0.0706,0.0375l-0.3351 0.175c-0.0306,0.0151 -0.0498,0.016 -0.077,0.0279z"/>
   <path class="fil2" d="M5.0438 0.5254c-0.0077,-0.0246 -0.0387,-0.0809 -0.0662,-0.0984 -0.0269,0.0358 -0.0559,0.1354 -0.2058,0.1221 -0.2321,-0.0207 -0.2051,-0.4997 0.093,-0.4085 0.0383,0.0117 0.0489,0.0298 0.0685,0.0501 0.0015,0.0016 0.0038,0.0041 0.0053,0.0056l0.0174 0.0153 0.0425 -0.1081 -0.0751 -0.033c-0.0924,-0.0465 -0.185,-0.0611 -0.2833,-0.0022 -0.2027,0.1214 -0.1538,0.5215 0.0746,0.5806 0.163,0.0423 0.2311,-0.0529 0.3291,-0.1235z"/>
   <path class="fil2" d="M3.4575 0.4565l0.0185 0.0212c0.04,0.0569 0.0739,0.5649 0.069,0.6035 0.0528,-0.0108 0.0798,-0.0372 0.1248,-0.056 -0.0156,-0.0473 -0.0241,-0.0148 -0.034,-0.0876l-0.0358 -0.3385c0.0307,0.0145 0.2483,0.2227 0.2713,0.2742 0.0013,0.003 0.005,0.0127 0.0061,0.0153 0.0009,0.002 0.0025,0.0059 0.0032,0.0075 0.0007,0.0016 0.0017,0.0052 0.0032,0.0074l0.1206 -0.0644 -0.3304 -0.3205c-0.1332,-0.1315 -0.0551,-0.0741 -0.0935,-0.1295l-0.123 0.0674z"/>
   <path class="fil2" d="M8.26 1.4983c0.0469,0.04 0.0932,0.0819 0.1093,0.1427l-0.3728 0.2924c0.0175,0.0391 0.0524,0.0941 0.0786,0.104 0.0327,-0.0689 0.0906,-0.0974 0.1711,-0.1607 0.0541,-0.0426 0.1327,-0.1307 0.2028,-0.1433 0.0391,0.0776 0.0327,0.0336 0.081,0.1459 0.0279,-0.0125 0.0776,-0.0548 0.0977,-0.0759 -0.0781,-0.0728 -0.0728,-0.0773 -0.1441,-0.1814l-0.1269 -0.1986 -0.0967 0.0749z"/>
   <path class="fil2" d="M1.6177 2.4477c0.0216,0.035 0.0473,0.0508 0.0892,0.0725l0.0866 -0.1507c0.0231,0.0025 0.3132,0.1897 0.3594,0.2333 0.0392,0.0369 0.0059,0.0286 0.0414,0.0403l0.0639 -0.1131c-0.0228,-0.0132 -0.0258,-0.0072 -0.0544,-0.0212l-0.3459 -0.2397c0.0329,-0.0982 0.0843,-0.1173 0.0955,-0.1516l-0.109 -0.0728c-0.001,0.0836 -0.1852,0.3737 -0.2267,0.403z"/>
  </g>
 </g>
</svg>
