<?xml version="1.0" encoding="UTF-8"?>
<!DOCTYPE svg PUBLIC "-//W3C//DTD SVG 1.1//EN" "http://www.w3.org/Graphics/SVG/1.1/DTD/svg11.dtd">
<!-- Creator: CorelDRAW 2019 (64-Bit) -->
<svg xmlns="http://www.w3.org/2000/svg" xml:space="preserve" width="162.645mm" height="18.5428mm" version="1.1" style="shape-rendering:geometricPrecision; text-rendering:geometricPrecision; image-rendering:optimizeQuality; fill-rule:evenodd; clip-rule:evenodd"
viewBox="0 0 162.6446 18.5428"
 xmlns:xlink="http://www.w3.org/1999/xlink"
 xmlns:xodm="http://www.corel.com/coreldraw/odm/2003">
 <defs>
  <style type="text/css">
   <![CDATA[
    .fil2 {fill:#015293}
    .fil3 {fill:#61B3E9}
    .fil0 {fill:white}
    .fil1 {fill:#015293;fill-rule:nonzero}
   ]]>
  </style>
 </defs>
 <g id="Слой_x0020_1">
  <metadata id="CorelCorpID_0Corel-Layer"/>
  <g id="_2303529510384">
   <rect class="fil0" x="-0.0001" y="11.2735" width="162.56" height="7.3111"/>
   <path class="fil1" d="M13.4103 13.4715l0 1.8227 -0.4218 0 0 -0.7473 -0.828 0 0 0.7473 -0.4218 0 0 -1.8227 0.4218 0 0 0.7187 0.828 0 0 -0.7187 0.4218 0zm1.3254 1.854c-0.1892,0 -0.3597,-0.0408 -0.5116,-0.1224 -0.1519,-0.0816 -0.2708,-0.194 -0.3568,-0.3372 -0.0859,-0.1432 -0.1289,-0.3042 -0.1289,-0.483 0,-0.1788 0.043,-0.3398 0.1289,-0.483 0.086,-0.1432 0.2049,-0.2556 0.3568,-0.3372 0.1519,-0.0816 0.3224,-0.1224 0.5116,-0.1224 0.1892,0 0.3594,0.0408 0.5104,0.1224 0.151,0.0816 0.2699,0.194 0.3567,0.3372 0.0868,0.1432 0.1302,0.3042 0.1302,0.483 0,0.1788 -0.0434,0.3398 -0.1302,0.483 -0.0868,0.1432 -0.2057,0.2556 -0.3567,0.3372 -0.151,0.0816 -0.3212,0.1224 -0.5104,0.1224zm0 -0.3593c0.1077,0 0.2049,-0.0248 0.2916,-0.0742 0.0869,-0.0495 0.155,-0.1185 0.2045,-0.2071 0.0494,-0.0885 0.0742,-0.1892 0.0742,-0.302 0,-0.1128 -0.0248,-0.2135 -0.0742,-0.3021 -0.0495,-0.0885 -0.1176,-0.1575 -0.2045,-0.207 -0.0867,-0.0494 -0.1839,-0.0742 -0.2916,-0.0742 -0.1076,0 -0.2048,0.0248 -0.2916,0.0742 -0.0868,0.0495 -0.1549,0.1185 -0.2044,0.207 -0.0495,0.0886 -0.0742,0.1893 -0.0742,0.3021 0,0.1128 0.0247,0.2135 0.0742,0.302 0.0495,0.0886 0.1176,0.1576 0.2044,0.2071 0.0868,0.0494 0.184,0.0742 0.2916,0.0742zm2.5856 -0.6224c0.1111,0.033 0.1962,0.0868 0.2552,0.1615 0.059,0.0746 0.0886,0.1666 0.0886,0.276 0,0.1614 -0.0612,0.2873 -0.1836,0.3776 -0.1224,0.0902 -0.2973,0.1353 -0.5247,0.1353l-0.8983 0 0 -1.8227 0.8488 0c0.2118,0 0.3767,0.0408 0.4948,0.1224 0.118,0.0816 0.177,0.1979 0.177,0.3489 0,0.0903 -0.0225,0.1697 -0.0677,0.2383 -0.0451,0.0686 -0.1085,0.1228 -0.1901,0.1627zm-0.8436 -0.1171l0.3932 0c0.092,0 0.1614,-0.0187 0.2083,-0.056 0.0469,-0.0374 0.0703,-0.0925 0.0703,-0.1654 0,-0.0711 -0.0239,-0.1258 -0.0716,-0.164 -0.0478,-0.0382 -0.1168,-0.0573 -0.207,-0.0573l-0.3932 0 0 0.4427zm0.4635 0.7551c0.1979,0 0.2968,-0.0781 0.2968,-0.2344 0,-0.151 -0.0989,-0.2265 -0.2968,-0.2265l-0.4635 0 0 0.4609 0.4635 0zm1.9268 0.3437c-0.1892,0 -0.3597,-0.0408 -0.5116,-0.1224 -0.1519,-0.0816 -0.2708,-0.194 -0.3568,-0.3372 -0.0859,-0.1432 -0.1289,-0.3042 -0.1289,-0.483 0,-0.1788 0.043,-0.3398 0.1289,-0.483 0.086,-0.1432 0.2049,-0.2556 0.3568,-0.3372 0.1519,-0.0816 0.3224,-0.1224 0.5116,-0.1224 0.1892,0 0.3594,0.0408 0.5104,0.1224 0.151,0.0816 0.2699,0.194 0.3567,0.3372 0.0868,0.1432 0.1302,0.3042 0.1302,0.483 0,0.1788 -0.0434,0.3398 -0.1302,0.483 -0.0868,0.1432 -0.2057,0.2556 -0.3567,0.3372 -0.151,0.0816 -0.3212,0.1224 -0.5104,0.1224zm0 -0.3593c0.1076,0 0.2049,-0.0248 0.2916,-0.0742 0.0869,-0.0495 0.155,-0.1185 0.2045,-0.2071 0.0494,-0.0885 0.0742,-0.1892 0.0742,-0.302 0,-0.1128 -0.0248,-0.2135 -0.0742,-0.3021 -0.0495,-0.0885 -0.1176,-0.1575 -0.2045,-0.207 -0.0867,-0.0494 -0.184,-0.0742 -0.2916,-0.0742 -0.1076,0 -0.2048,0.0248 -0.2916,0.0742 -0.0868,0.0495 -0.1549,0.1185 -0.2044,0.207 -0.0495,0.0886 -0.0742,0.1893 -0.0742,0.3021 0,0.1128 0.0247,0.2135 0.0742,0.302 0.0495,0.0886 0.1176,0.1576 0.2044,0.2071 0.0868,0.0494 0.184,0.0742 0.2916,0.0742zm2.1846 0.3593c-0.1857,0 -0.3537,-0.0404 -0.5038,-0.1211 -0.1502,-0.0807 -0.2682,-0.1927 -0.3541,-0.3359 -0.086,-0.1432 -0.1289,-0.3051 -0.1289,-0.4856 0,-0.1805 0.0429,-0.3424 0.1289,-0.4856 0.0859,-0.1432 0.2039,-0.2552 0.3541,-0.3359 0.1501,-0.0807 0.319,-0.1211 0.5064,-0.1211 0.158,0 0.3008,0.0278 0.4284,0.0833 0.1276,0.0556 0.2348,0.1354 0.3215,0.2396l-0.2708 0.25c-0.1232,-0.1424 -0.2759,-0.2136 -0.4582,-0.2136 -0.1129,0 -0.2135,0.0248 -0.3021,0.0742 -0.0885,0.0495 -0.1575,0.1185 -0.207,0.207 -0.0495,0.0886 -0.0742,0.1893 -0.0742,0.3021 0,0.1128 0.0247,0.2135 0.0742,0.302 0.0495,0.0886 0.1185,0.1576 0.207,0.2071 0.0886,0.0494 0.1892,0.0742 0.3021,0.0742 0.1823,0 0.335,-0.0721 0.4582,-0.2162l0.2708 0.25c-0.0867,0.1059 -0.1944,0.1866 -0.3228,0.2422 -0.1285,0.0555 -0.2717,0.0833 -0.4297,0.0833zm2.4034 -1.5102l-0.5833 0 0 1.4789 -0.4166 0 0 -1.4789 -0.5806 0 0 -0.3438 1.5805 0 0 0.3438zm0.2656 -0.3438l0.4192 0 0 1.1874 0.8697 -1.1874 0.3958 0 0 1.8227 -0.4166 0 0 -1.1847 -0.8697 1.1847 -0.3984 0 0 -1.8227z"/>
   <path class="fil2" d="M41.501 11.8389l1.0575 0 47.2774 0.0109 2.0232 0.001c0.6079,0.0042 1.3427,-0.2003 1.8198,-0.5824l-0.0008 0c0.0667,-0.0535 0.1285,-0.1105 0.1841,-0.1711 0.8243,-0.898 2.2807,-6.376 2.6517,-7.0164l0.5405 0c-0.3224,1.3658 -1.0434,4.8013 -1.5946,7.1871l0.0012 0c-0.2784,1.205 -0.5148,2.1481 -0.6331,2.4149 -0.5231,1.1792 -2.2817,1.6139 -4.0289,1.6008l-0.9631 0 -49.3971 -0.0005c-1.062,-0.007 -2.3518,-0.2228 -3.7059,0.9205 -0.5742,0.4848 -0.9666,1.7806 -1.1161,2.381l-0.5416 0 0.566 -1.9824c0.7829,-2.742 1.3692,-4.797 5.8598,-4.7634z"/>
   <path class="fil3" d="M87.9766 7.929l3.099 -0.0045c0.7513,0.0049 1.1373,-0.2633 1.6287,-0.776 0.8935,-0.9319 1.8471,-2.4395 2.2492,-3.1041l0.5857 0c-0.6849,1.7496 -1.3698,3.4992 -2.0546,5.2488 -0.37,0.9459 -0.6694,1.64 -1.9585,1.9752l-0.0012 0c-0.5919,0.1538 -1.3925,0.2319 -2.5045,0.224l-1.0439 0 -27.1001 -0.0014 -1.9795 0.0033 -53.5381 -0.0005c-4.6131,0 -5.3538,5.6475 -5.3589,5.6529l0.0001 -3.1891 -0.0001 -2.6892 0 -0.0001 0 -0.0002c0.0001,-0.3314 0.3672,-1.4793 1.0195,-2.0639 0.8928,-0.8003 2.4975,-1.1627 5.4905,-1.1544l81.4667 -0.1208z"/>
   <path class="fil3" d="M102.6695 7.8162l1.1504 0 51.4261 0.0109 2.2007 0.0011c0.754,0.0047 2.1371,-0.4463 2.6695,-0.8979 2.1905,-1.8581 2.3273,-5.9301 2.4407,-6.8884l0.003 5.9592c0.0013,2.7344 -1.3928,5.2639 -5.8236,5.2597l-1.4903 0.0003 -53.7318 -0.0006c-0.5237,-0.0032 -1.0985,-0.0493 -1.7076,0.0078l-0.0002 0.0001 -0.0008 0c-0.7339,0.069 -1.518,0.2931 -2.3226,0.9177 -0.6246,0.4848 -1.0514,1.7805 -1.2141,2.3809l-0.589 0 0.6156 -1.9824c0.1424,-0.4585 0.2791,-0.9026 0.4304,-1.3162l-0.0002 0c0.7535,-2.0595 1.8759,-3.4802 5.9438,-3.4522z"/>
  </g>
 </g>
 <g id="Слой_x0020_1_0">
  <metadata id="CorelCorpID_1Corel-Layer"/>
 </g>
</svg>
