<?xml version="1.0" encoding="UTF-8"?>
<!DOCTYPE svg PUBLIC "-//W3C//DTD SVG 1.1//EN" "http://www.w3.org/Graphics/SVG/1.1/DTD/svg11.dtd">
<!-- Creator: CorelDRAW 2019 (64-Bit) -->
<svg xmlns="http://www.w3.org/2000/svg" xml:space="preserve" width="162.56mm" height="17.2718mm" version="1.1" style="shape-rendering:geometricPrecision; text-rendering:geometricPrecision; image-rendering:optimizeQuality; fill-rule:evenodd; clip-rule:evenodd"
viewBox="0 0 162.5598 17.2718"
 xmlns:xlink="http://www.w3.org/1999/xlink"
 xmlns:xodm="http://www.corel.com/coreldraw/odm/2003">
 <defs>
  <style type="text/css">
   <![CDATA[
    .fil0 {fill:#045395}
    .fil1 {fill:#61B3E9}
    .fil2 {fill:#AED8F4}
   ]]>
  </style>
 </defs>
 <g id="Слой_x0020_1">
  <metadata id="CorelCorpID_0Corel-Layer"/>
  <g id="_2080563927328">
   <path class="fil0" d="M162.5387 0.6848l0.0212 16.5866 -162.56 -0.002 0.0624 -5.9465c0.2071,-2.4151 2.1118,-3.7139 7.0822,-3.6794l52.3951 0.0355 30.7702 -0.1117 -0.0104 0.0165 10.9715 0.0237 51.2565 0.0114c2.2304,-0.0033 6.0604,0.1068 7.3261,-0.9167 0.9093,-0.7354 2.2245,-4.3695 2.6852,-6.0174z"/>
   <path class="fil1" d="M87.3957 4.9014l13.8323 0.0298 51.2566 0.0113c2.2303,-0.0033 6.0604,0.107 7.326,-0.9166 1.0041,-0.812 2.409,-2.0803 2.7258,-4.0255l0.0081 2.2927c0.0087,2.4696 -1.355,4.2625 -3.2507,5.449 -1.6841,1.0542 -4.4445,0.7651 -6.8092,0.7651l-66.2255 -0.0513 1.1366 -3.5545z"/>
   <path class="fil1" d="M7.1016 4.9671l52.3952 0.0356 30.7701 -0.1118 -2.2434 3.5699 -28.5214 0.0484 -53.5546 -0.0006c-5.7011,-0.1817 -5.8465,7.9218 -5.9476,8.7608l0 -8.1564c0,-2.7139 1.8202,-4.1824 7.1017,-4.1459z"/>
   <path class="fil2" d="M101.148 9.8728l1.1507 0 51.442 0.0109 2.2013 0.001c1.1009,0.0069 2.6752,0.0507 3.4686,-0.3249 2.6681,-1.2629 3.1346,-3.4682 3.1343,-5.2292l0.0133 0.8641 0 3.1442c0,2.3875 -1.4543,5.0074 -5.2377,4.9814l-3.5799 -0.0016 -53.7483 -0.0005c-1.1556,-0.0071 -2.559,-0.2229 -4.0325,0.9207 -0.6247,0.485 -1.0517,1.7812 -1.2144,2.3817l-0.5892 0 0.6158 -1.983c0.8519,-2.7428 1.4898,-4.7985 6.376,-4.7648z"/>
  </g>
 </g>
</svg>
