<?xml version="1.0" encoding="UTF-8"?>
<!DOCTYPE svg PUBLIC "-//W3C//DTD SVG 1.1//EN" "http://www.w3.org/Graphics/SVG/1.1/DTD/svg11.dtd">
<!-- Creator: CorelDRAW 2019 (64-Bit) -->
<svg xmlns="http://www.w3.org/2000/svg" xml:space="preserve" width="9.0592mm" height="7.9586mm" version="1.1" style="shape-rendering:geometricPrecision; text-rendering:geometricPrecision; image-rendering:optimizeQuality; fill-rule:evenodd; clip-rule:evenodd"
viewBox="0 0 9.0592 7.9586"
 xmlns:xlink="http://www.w3.org/1999/xlink"
 xmlns:xodm="http://www.corel.com/coreldraw/odm/2003">
 <defs>
  <style type="text/css">
   <![CDATA[
    .fil2 {fill:#4788C7}
    .fil5 {fill:#4788C7}
    .fil0 {fill:#98CBFC}
    .fil3 {fill:#98CBFC}
    .fil1 {fill:#DEEFFD}
    .fil4 {fill:#DEEFFD}
   ]]>
  </style>
 </defs>
 <g id="Слой_x0020_1">
  <metadata id="CorelCorpID_0Corel-Layer"/>
  <g id="_2609894736928">
   <path class="fil0" d="M6.2515 4.2856l2.4626 0.0105c0.1071,0.0003 0.1947,0.0878 0.1947,0.1947l0 0.9994c-0.015,-0.0077 -0.0366,-0.0114 -0.0672,-0.0204 -0.0047,-0.0317 0.0125,-0.0925 -0.0061,-0.137l-0.0036 -0.0084 -0.0065 -0.0065c-0.0386,-0.0384 -0.1527,-0.0124 -0.2139,-0.0181 0.0026,-0.1298 0.0233,-0.4184 -0.0576,-0.4982 -0.0638,-0.063 -0.2044,-0.0585 -0.2882,-0.0608 -0.3043,-0.0081 -1.7046,-0.0358 -1.9294,0.0722 -0.0248,-0.2164 -0.064,-0.4788 -0.0848,-0.5274zm2.6573 1.6097l0 0.4736c0,0.0474 -0.0591,0.0911 -0.1157,0.1249l-0.0082 -0.005 -0.0067 -0.0041 -0.0077 -0.0018c-0.0507,-0.0116 -0.1127,-0.0044 -0.161,-0.0093 -0.0066,-0.0933 -0.0066,-0.3143 0.0003,-0.4078 0.0151,-0.0002 0.0316,0.0005 0.0415,0.0005l0.1062 0c0.0549,0.0015 0.0867,-0.0145 0.0872,-0.0762 0.0001,-0.0167 -0.0027,-0.0521 -0.0015,-0.0775 0.0259,-0.0027 0.0475,-0.0005 0.0656,-0.0173zm-2.8496 0.6261c-0.0489,-0.0456 -0.0962,-0.1059 -0.0962,-0.1525l0 -0.1245 0.1413 -0.1042c0.0165,-0.0122 0.0341,-0.0228 0.0508,-0.0355 0.0068,-0.0051 0.0136,-0.0102 0.0205,-0.0153l0.0077 -0.0057 0.1084 -0.0913 -0.0208 0.1991 -0.0012 0.282c-0.063,0.0123 -0.1303,-0.025 -0.2105,0.0479zm2.6376 -0.6006c-0.0001,-0.002 -0.0001,-0.0038 -0.0001,-0.0053 0,-0.0012 0,-0.0029 -0.0001,-0.0045 -0.0555,-0.0061 -0.0804,-0.0229 -0.0903,-0.0637 -0.0001,0.0315 0.0004,0.0592 0.0021,0.0743 0.0138,0 0.0338,-0.0017 0.0429,-0.0018 0.0105,0 0.0298,0.0011 0.0455,0.001zm-0.0903 -0.4022c0.0124,-0.0389 0.0514,-0.0487 0.0896,-0.0527 0,-0.0004 0,-0.0007 0,-0.001 0,-0.0069 0.0004,-0.0139 0.0004,-0.022 -0.0139,0.0004 -0.0345,0.003 -0.0442,0.0031 -0.0101,0.0001 -0.0301,-0.0013 -0.0451,-0.0011 -0.001,0.0161 -0.0011,0.0433 -0.0007,0.0737zm-0.3175 0.4366c0.018,-0.1696 0.0497,-0.7563 -0.0137,-0.8322 -0.5517,-0.0215 -1.1056,-0.0041 -1.6577,-0.0089 -0.0839,-0.0008 -0.0518,0.1713 -0.0518,0.2198l0.0193 0.6167c0.0157,0.0107 0.0791,0.0143 0.0987,0.0143l1.0045 0.0009c0.1384,-0.0013 0.4591,0.0101 0.6007,-0.0106zm0.3073 1.1692c0.0077,-0.0334 -0.0039,-0.0604 -0.0295,-0.082 -0.03,-0.0253 -0.0875,-0.0174 -0.1244,-0.0174 -0.0686,0 -0.2033,-0.0253 -0.2247,0.0605 -0.0076,0.0298 0.0029,0.0648 0.0285,0.0828 0.0359,0.0253 0.0865,0.0178 0.1282,0.0178 0.0396,0 0.13,0.006 0.1649,-0.0032 0.0275,-0.0072 0.0505,-0.0308 0.057,-0.0585zm-2.2829 0.0048c0.0032,0.0264 0.026,0.054 0.0506,0.0636 0.0275,0.0108 0.1243,0.0056 0.1574,0.0056 0.0388,0 0.105,0.0068 0.1391,-0.0137 0.0543,-0.0326 0.0445,-0.1193 -0.0187,-0.1426 -0.027,-0.0099 -0.1244,-0.0047 -0.157,-0.0047 -0.0397,0 -0.1008,-0.008 -0.1359,0.0136 -0.0274,0.0169 -0.0394,0.0468 -0.0355,0.0782zm0.6846 -0.6c-0.0185,0.0985 -0.0028,0.3395 -0.0028,0.4539 0,0.0429 -0.0106,0.1525 0.0145,0.1865 0.0333,0.0452 0.0832,0.0373 0.1346,0.0373 0.2335,0 0.4673,0.0042 0.7007,0.0001 0.0444,-0.0008 0.0766,-0.0196 0.0889,-0.0635 0.0193,-0.0734 0.0025,-0.3521 0.0025,-0.4482 0,-0.0669 0.0237,-0.1945 -0.0544,-0.2232 -0.024,-0.0088 -0.0678,-0.0051 -0.0938,-0.0051 -0.2334,0 -0.4672,-0.005 -0.7005,0 -0.0426,0.0009 -0.0796,0.019 -0.0897,0.0622zm0.0052 0.4069c0.0083,0.0394 0.0581,0.0323 0.0992,0.0322l0.6282 0c0.0936,0 0.2096,0.0192 0.1983,-0.052 -0.0067,-0.0418 -0.0563,-0.035 -0.0989,-0.0349l-0.6281 0c-0.0999,0 -0.2142,-0.0198 -0.1987,0.0547zm0.0001 -0.3507c0.0089,0.0381 0.0591,0.0314 0.0991,0.0314l0.6334 0c0.0567,0 0.2108,0.0242 0.1925,-0.056 -0.0089,-0.0388 -0.0569,-0.0312 -0.0983,-0.0311l-0.6333 0c-0.0879,0 -0.2109,-0.0193 -0.1934,0.0557zm0.9221 0.1832c0.0417,-0.0858 -0.1337,-0.0631 -0.1844,-0.0631l-0.6333 0c-0.0385,0 -0.0879,-0.0075 -0.1017,0.0245 -0.0206,0.0474 0.0196,0.0628 0.0595,0.0628l0.7593 -0.0002c0.0431,0 0.085,0.0081 0.1006,-0.024zm-0.9216 0.3455c0.0104,0.0378 0.0604,0.0302 0.0986,0.0302l0.6334 0c0.0971,0 0.2086,0.0195 0.1924,-0.0547 -0.009,-0.0415 -0.0581,-0.0326 -0.0982,-0.0325l-0.6333 0c-0.0858,0 -0.2141,-0.0194 -0.1929,0.057z"/>
   <path class="fil1" d="M7.9787 7.1559c-0.0165,0.059 -0.0623,0.0963 -0.1328,0.0976 -0.2222,0.0039 -0.4768,-0.0001 -0.7016,-0.0001 -0.0885,0 -0.131,-0.0003 -0.1721,-0.0563 -0.0361,-0.0489 -0.0235,-0.1463 -0.0235,-0.214 0,-0.0703 -0.0051,-0.4253 0.0039,-0.464 0.0138,-0.0591 0.0632,-0.0971 0.1341,-0.0987 0.2165,-0.0046 0.4812,0 0.7015,0 0.0361,0 0.0774,-0.004 0.1099,0.008 0.1088,0.04 0.0848,0.1693 0.0848,0.2669 0,0.0794 0.0097,0.4105 -0.0042,0.4606zm-1.7115 -0.0209c-0.0077,-0.0613 0.0247,-0.1037 0.0573,-0.1237 0.0466,-0.0287 0.1002,-0.0204 0.1603,-0.0204 0.0442,0 0.1379,-0.0054 0.173,0.0076 0.1061,0.039 0.1089,0.1768 0.0266,0.2261 -0.0452,0.0272 -0.1034,0.0204 -0.163,0.0204 -0.045,0 -0.1377,0.0055 -0.1744,-0.0088 -0.0372,-0.0147 -0.0741,-0.0546 -0.0798,-0.1012zm2.3744 0c-0.0105,0.0451 -0.0468,0.0815 -0.0905,0.0929 -0.0362,0.0095 -0.1332,0.0047 -0.1767,0.0047 -0.0645,0 -0.1086,0.0065 -0.155,-0.0262 -0.0311,-0.0219 -0.0621,-0.0718 -0.0469,-0.1322 0.0286,-0.1147 0.1454,-0.0958 0.2699,-0.0958 0.0618,0 0.1118,-0.0075 0.1544,0.0284 0.0303,0.0255 0.0587,0.0684 0.0448,0.1282zm-2.0944 -1.1642l-0.028 -0.6354c0.0001,-0.079 -0.0362,-0.269 0.0988,-0.2678 0.5227,0.0045 1.1474,-0.0116 1.6722,0.0094 0.1268,0.0447 0.0421,0.9156 0.0408,0.917 -0.0131,0.0141 -0.5789,0.0177 -0.6423,0.0183l-1.005 -0.0009c-0.0297,0 -0.1366,-0.0046 -0.1365,-0.0406zm2.1025 -0.4329l-0.0028 0.0323c-0.002,0.0659 0.0016,0.1325 0.0005,0.1986 -0.0032,0.1827 0.0955,0.0296 0.0958,0.1466 0.0003,0.0619 -0.0067,0.05 -0.0913,0.051 -0.1094,0.0012 -0.0922,0.0326 -0.0885,-0.2866 0.0037,-0.3133 -0.0338,-0.2793 0.0885,-0.2804 0.0436,-0.0004 0.0889,-0.0172 0.0912,0.0337 0.0004,0.0094 -0.0005,0.0219 -0.0005,0.0318 0.0001,0.0422 0.002,0.043 -0.0384,0.0469 -0.032,0.0031 -0.0516,0.007 -0.0545,0.0261zm-0.3853 -0.7506c-0.2604,-0.007 -1.8355,-0.0207 -1.9141,0.0719 0.0135,0.3383 0.0481,0.5561 0.0467,0.7039 -0.0021,0.2161 -0.0465,0.2887 -0.0582,0.4216l-0.0216 0.2116 -0.001 0.2848c-0.0005,0.0226 0.0027,0.0197 -0.0111,0.03 -0.0312,0.0232 -0.1471,-0.0197 -0.2181,0.048 -0.0628,0.0599 -0.0492,0.1232 -0.0493,0.2252 0,0.0736 -0.0086,0.5079 0.0048,0.5416l2.8048 0.0046c0.0138,-0.0451 0.011,-0.6554 -0.002,-0.7189 -0.0119,-0.0128 -0.0213,-0.0358 -0.0345,-0.0492 -0.0159,-0.0161 -0.0291,-0.0205 -0.0507,-0.0342 -0.0653,-0.0149 -0.143,-0.0008 -0.1931,-0.0153 -0.0075,-0.035 -0.0071,-0.4647 0.0007,-0.4882 0.0226,-0.0074 0.056,-0.0048 0.0836,-0.0049l0.1062 0c0.0349,0.0009 0.0404,0 0.0407,-0.0301 0.0002,-0.0363 -0.0061,-0.0874 0.0048,-0.1167 0.0464,-0.0137 0.0724,0.0138 0.0903,-0.0467 0.0012,-0.0697 -0.0001,-0.1396 0.0006,-0.2093 0.002,-0.1557 -0.0474,-0.0753 -0.0904,-0.1152 -0.0197,-0.0311 0.0048,-0.1134 -0.0109,-0.1509 -0.0186,-0.0186 -0.1946,0.0061 -0.2204,-0.0131l-0.0023 -0.0028 -0.0038 -0.0077c-0.0004,-0.0013 -0.0011,-0.0027 -0.0014,-0.0043 -0.0008,-0.5166 0.041,-0.5266 -0.3003,-0.5357z"/>
   <path class="fil1" d="M5.9431 7.6878c0.0028,0.0406 0.0244,0.0468 0.0652,0.0468l0.1809 0c-0.004,0.0518 -0.002,0.1343 -0.0001,0.1612 0.0074,0.0332 0.0216,0.051 0.0559,0.0571 0.1058,0.0002 0.2298,0.0067 0.3331,-0.001 0.0597,-0.0043 0.0696,-0.0374 0.0698,-0.0963 0.0001,-0.0245 0.0016,-0.0812 -0.0002,-0.1211l1.6089 -0.0003c-0.0046,0.0648 -0.0009,0.1737 0.0168,0.1962 0.0297,0.038 0.1639,0.0212 0.2214,0.0212 0.0721,0 0.187,0.0165 0.2134,-0.0289 0.0105,-0.0178 0.0127,-0.1241 0.0091,-0.1855 0.0932,0.0007 0.1823,0.0001 0.201,-0.0052 0.032,-0.0092 0.0317,-0.0458 0.031,-0.0823 -0.0076,-0.4147 0.0541,-0.3711 -0.1771,-0.374 -0.2092,-0.0028 -0.4393,0.0045 -0.6438,-0.0004 -0.1581,-0.0038 -2.1281,-0.0045 -2.1511,0.0027 -0.0529,0.0167 -0.0339,0.1264 -0.0347,0.1855 -0.0009,0.0648 -0.0039,0.1622 0.0005,0.2243z"/>
   <path class="fil2" d="M3.8088 0.294c0.1065,-0.0265 0.2185,0.0098 0.231,0.1323l0.0003 0.0025 0.001 0.5223c0.0003,0.0948 0.0069,0.212 -0.1091,0.2413 -0.1127,0.0284 -0.223,-0.0108 -0.2366,-0.1376l-0.0002 -0.0027 -0.0003 -0.5214c-0.0001,-0.1016 -0.0112,-0.2054 0.1139,-0.2367zm0.0125 0.0501c-0.0879,0.0219 -0.0749,0.0954 -0.0749,0.1866l0.0003 0.5186c0.0089,0.083 0.0762,0.1174 0.1726,0.0931 0.0789,-0.0199 0.0706,-0.1085 0.0703,-0.1912l-0.001 -0.5197c-0.0088,-0.0852 -0.086,-0.1078 -0.1673,-0.0874z"/>
   <path class="fil2" d="M0.1467 0.2922c0.1109,-0.0219 0.2135,0.0178 0.2227,0.1432l0.0001 0.0018 0.0005 0.5216c0.0002,0.0972 0.0031,0.2092 -0.1173,0.2349 -0.1139,0.0243 -0.2218,-0.0181 -0.2295,-0.1473l-0.0001 -0.0032 0.0004 -0.5202c0,-0.1057 -0.0088,-0.2048 0.1232,-0.2308zm0.01 0.0505c-0.0946,0.0188 -0.0818,0.0884 -0.0817,0.1804l-0.0004 0.5202c0.0053,0.0884 0.0745,0.1198 0.1673,0.0999 0.0823,-0.0175 0.077,-0.0982 0.0766,-0.1843l-0.0006 -0.5198c-0.0062,-0.0858 -0.0716,-0.1141 -0.1612,-0.0964z"/>
   <path class="fil3" d="M0.6586 0.7038c-0.0052,0.0516 -0.0032,0.1271 -0.0031,0.1661 0.0002,0.0662 0.0026,0.1337 0.0006,0.1987l-0.0151 1.2099c0.1305,0.0465 0.5099,0.0994 0.6253,0.1129 0.5263,0.0621 1.0065,0.0592 1.5329,0.0015 0.1121,-0.0124 0.5079,-0.0688 0.6391,-0.1144l-0.0521 -1.5749c-0.0274,-0.0047 -0.0599,-0.0077 -0.0803,-0.0104 -0.0708,-0.009 -0.1417,-0.0167 -0.2125,-0.0241 -0.1013,-0.0104 -0.2265,-0.0276 -0.3274,-0.0276l-1.4833 0c-0.1032,0 -0.2294,0.0177 -0.3331,0.0288 -0.0964,0.0103 -0.1945,0.0204 -0.291,0.0335z"/>
   <path class="fil3" d="M3.1305 0.4496c0.011,-0.0364 0.0124,-0.2597 0.0027,-0.296 -0.0173,-0.0512 -0.1861,-0.0286 -0.2295,-0.0286l-1.3762 0.0005c-0.1149,0 -0.2297,0.0005 -0.3445,-0.0003 -0.0405,-0.0002 -0.2223,-0.0169 -0.2412,0.0205 -0.0106,0.0355 -0.0114,0.2624 -0.0024,0.2991 0.013,0.0461 0.19,0.0255 0.2287,0.0255l1.7203 0c0.0461,0 0.2197,0.0214 0.2421,-0.0207z"/>
   <path class="fil4" d="M3.047 3.0552c-0.0664,0.0054 -0.1195,0.0089 -0.1364,0.0081 -0.0008,-0.058 -0.0104,-0.2146 0.0009,-0.2605l0.5438 -0.097c0.0067,-0.0216 0.0153,-0.0432 0.0257,-0.0674 0.0171,-0.0396 0.0337,-0.065 0.0596,-0.096 0.026,-0.0358 0.0494,-0.0544 0.0817,-0.0816 0.0103,-0.0087 0.0212,-0.0169 0.0326,-0.0247 -0.0026,-0.2437 -0.0155,-0.5272 -0.0203,-0.6567 -0.0131,-0.3538 -0.0205,-0.6983 -0.0298,-1.05 -0.0075,-0.281 0.0077,-0.6749 -0.358,-0.7263l-2.4086 0c-0.0151,-0.0004 -0.1801,0.0166 -0.2866,0.1941 -0.0776,0.1295 -0.071,0.2382 -0.0747,0.41 -0.0066,0.3119 -0.0215,0.6207 -0.0271,0.9327 -0.0055,0.3075 -0.0125,0.6297 -0.0278,0.9334 -0.003,0.0624 -0.01,0.1779 -0.0032,0.2364 0.0079,0.069 0.0878,0.4946 0.0844,0.5192 -0.0031,0.0226 -0.0349,0.0536 -0.0495,0.0772 0.0001,0.0327 0.0786,0.3363 0.0951,0.3652 0.2119,0.02 0.1192,-0.0462 0.1449,0.1549 0.0144,0.1123 0.1168,0.0919 0.2144,0.0913 0.0628,-0.0003 0.2552,0.0084 0.3021,-0.0043 0.0928,-0.0249 0.0648,-0.1445 0.0701,-0.236 0.0551,-0.0126 0.2466,-0.0038 0.3159,-0.0038l0.9578 -0.0004c0.0187,-0.0219 0.0384,-0.0413 0.0582,-0.0559 0.0127,-0.0103 0.024,-0.0197 0.0378,-0.029 0.0792,-0.0536 0.1742,-0.083 0.2697,-0.0861 -0.0015,-0.0063 -0.0028,-0.0126 -0.004,-0.0189 -0.0278,-0.1453 0.0298,-0.318 0.1313,-0.4279zm-1.9877 0.3655c-0.0544,-0.0089 -0.1084,-0.019 -0.1628,-0.0273 -0.0472,-0.0072 -0.0935,-0.0194 -0.1405,-0.028l0.022 0.134 0.2797 0.0256c0.0016,-0.0338 0.0038,-0.0747 0.0016,-0.1043zm0.3381 -0.3309l0.6301 0.0663 0.6395 -0.0559 -1.2696 -0.0104zm-0.0437 -0.0853l0.6734 0.0663 0.6836 -0.0558 -1.357 -0.0105zm-0.0537 -0.0894l0.7267 0.0664 0.7377 -0.0559 -1.4644 -0.0105zm-0.0286 -0.0843l0.755 0.0663 0.7666 -0.0558 -1.5216 -0.0105zm-0.6897 -0.1311c0.102,0.0119 0.1916,0.0394 0.2884,0.0542 0.0942,0.0143 0.1936,0.033 0.2904,0.0485 0.0114,0.0501 0.0023,0.2018 0.0017,0.2629l-0.5284 -0.0483 -0.0521 -0.3173zm0.0073 -0.3875l0.0155 -1.2442c0.0027,-0.0873 -0.0073,-0.3451 0.0096,-0.41 0.1105,-0.016 0.5738,-0.0682 0.6686,-0.068l1.4833 -0.0001c0.0805,-0.0002 0.6269,0.0548 0.6704,0.0726l0.0545 1.6496c-0.0821,0.0443 -0.5635,0.1186 -0.6861,0.1321 -0.5486,0.0601 -0.9954,0.0632 -1.5445,-0.0015 -0.1243,-0.0146 -0.5855,-0.0846 -0.6713,-0.1305zm2.5888 -1.8427c-0.0403,0.0771 -0.1555,0.0513 -0.2894,0.0523l-1.7203 0c-0.0957,-0.0006 -0.2523,0.0288 -0.2783,-0.0629 -0.0112,-0.0391 -0.0114,-0.3008 0.0044,-0.3326 0.0365,-0.0737 0.1739,-0.0535 0.2892,-0.0526 0.1146,0.0007 0.2293,-0.0001 0.3441,0.0002l1.3762 -0.0004c0.0928,-0.0002 0.2467,-0.0298 0.2784,0.0635 0.013,0.0384 0.0119,0.3018 -0.0043,0.3325z"/>
   <path class="fil4" d="M0.1567 0.3427c-0.0946,0.0188 -0.0818,0.0884 -0.0817,0.1804l-0.0004 0.5202c0.0053,0.0884 0.0745,0.1198 0.1673,0.0999 0.0823,-0.0175 0.077,-0.0982 0.0766,-0.1843l-0.0006 -0.5198c-0.0062,-0.0858 -0.0716,-0.1141 -0.1612,-0.0964z"/>
   <path class="fil4" d="M3.8213 0.3441c-0.0879,0.0219 -0.0749,0.0954 -0.0749,0.1866l0.0003 0.5186c0.0089,0.083 0.0762,0.1174 0.1726,0.0931 0.0789,-0.0199 0.0706,-0.1085 0.0703,-0.1912l-0.001 -0.5197c-0.0088,-0.0852 -0.086,-0.1078 -0.1673,-0.0874z"/>
   <path class="fil3" d="M3.4096 2.9014c0.0082,-0.0448 0.0158,-0.0969 0.021,-0.1388l-0.4734 0.0843c-0.0031,0.0454 0.0005,0.1125 0.0031,0.1648 0.047,-0.0018 0.1019,-0.0077 0.1503,-0.013 0.0317,-0.0232 0.0667,-0.0425 0.1029,-0.057 0.0653,-0.0263 0.1315,-0.0395 0.1961,-0.0403z"/>
   <path class="fil3" d="M1.1149 2.8471c-0.0843,-0.0139 -0.1683,-0.0295 -0.2526,-0.0423 -0.0735,-0.0112 -0.1453,-0.0301 -0.2183,-0.0435l0.0342 0.208 0.4344 0.0397c0.0023,-0.0523 0.0056,-0.1159 0.0023,-0.1619z"/>
   <path class="fil5" d="M6.6231 7.4734c-0.0544,-0.0089 -0.1084,-0.019 -0.1628,-0.0273 -0.0472,-0.0072 -0.0936,-0.0194 -0.1405,-0.028l0.022 0.134 0.2797 0.0256c0.0016,-0.0338 0.0038,-0.0747 0.0016,-0.1043z"/>
   <path class="fil1" d="M2.4065 6.3248c-0.0551,0 -0.1194,-0.0226 -0.1488,-0.0495 -0.0699,-0.0638 -0.0772,-0.1408 -0.0515,-0.2322 0.0612,-0.2182 0.3259,-0.2032 0.4039,-0.0236 0.0349,0.0804 0.0215,0.1948 -0.0421,0.2481 -0.0372,0.0311 -0.0951,0.0572 -0.1615,0.0572zm4.9435 -4.028l0 0.2026c-0.0027,0.1343 -0.0166,0.2618 -0.0762,0.3925 -0.0455,0.0998 -0.1018,0.2039 -0.1768,0.2861 -0.0101,0.0111 -0.009,0.0091 -0.0186,0.0221 -0.0108,0.0147 -0.0267,0.0283 -0.0399,0.0414 -0.0263,0.0263 -0.057,0.0622 -0.0852,0.0827 -0.0474,0.0343 -0.0911,0.0762 -0.1413,0.1079 -0.0098,0.0061 -0.0159,0.0087 -0.0256,0.0151 -0.1408,0.0926 -0.3219,0.1653 -0.4943,0.177 -0.0194,0.0013 -0.0131,0.0045 -0.0354,0.0053 -0.1431,0.0054 -0.3277,0.0003 -0.4548,0.0436 -0.0646,0.022 -0.1134,0.0531 -0.1693,0.085 -0.0185,0.0106 -0.0317,0.0224 -0.0474,0.0339l-0.1132 0.1004c-0.0471,0.0521 -0.1356,0.1543 -0.1902,0.1862 -0.0179,0.0105 -0.0349,0.0223 -0.0535,0.0279 -0.043,0.0129 -0.0913,0.0198 -0.1394,0.0284l-0.4293 0.0691c-0.0498,0.0076 -0.0908,0.0172 -0.1394,0.0284 -0.1162,0.0269 -0.1904,0.0651 -0.2713,0.1458 -0.0712,0.071 -0.1335,0.1728 -0.1335,0.2784 0,0.1264 -0.0004,0.2142 0.0611,0.3204 0.0068,0.0118 0.0141,0.0203 0.0219,0.034 0.0142,0.0248 0.0292,0.0455 0.0441,0.0678l-0.0386 0.0478c-0.067,0.0902 -0.2529,0.2323 -0.3618,0.3757 -0.0102,0.0135 -0.0107,0.0157 -0.0229,0.0279l-0.8697 0.8696c-0.0611,0.0611 -0.1205,0.1202 -0.1856,0.1755l-0.0746 0.0577c-0.0823,0.0549 -0.1693,0.0987 -0.2777,0.0987 -0.1154,0 -0.1745,-0.0212 -0.2753,-0.0604 -0.1135,-0.0441 -0.2352,-0.1728 -0.2892,-0.2803 -0.0965,-0.192 -0.0523,-0.4901 0.0954,-0.6371l0.3204 -0.3203c0.0684,-0.0679 0.0359,-0.0668 0.1487,-0.1209 0.0127,0.0264 0.0098,0.037 0.0295,0.0621 0.0147,0.0185 0.0308,0.0259 0.0481,0.0434 0.1706,0.1726 0.4227,0.2338 0.628,0.0762 0.0262,-0.0201 0.0382,-0.0331 0.0611,-0.0558 0.0199,-0.0197 0.037,-0.0421 0.0522,-0.0648 0.0517,-0.078 0.0864,-0.16 0.0864,-0.2645 0,-0.0404 -0.0094,-0.0733 -0.0102,-0.1068 0.0081,-0.0039 0.0127,-0.0045 0.022,-0.0085l0.0578 -0.0236c0.0979,-0.04 0.1256,-0.0334 0.2114,-0.1192 0.1591,-0.1593 0.1462,-0.2135 0.1462,-0.4336 0.0884,0 0.1681,-0.025 0.229,-0.0559l0.08 -0.0522c0.0385,-0.0327 0.0418,-0.0418 0.0661,-0.0661 0.0411,-0.0412 0.0742,-0.1088 0.0979,-0.1665 0.0258,-0.0628 0.0407,-0.1557 0.0407,-0.2238 0.0236,0 0.0331,-0.0041 0.0612,-0.005 0.097,-0.003 0.1907,-0.0514 0.2684,-0.1028 0.0602,-0.0398 0.1128,-0.1001 0.1451,-0.1651 0.0815,-0.1636 0.0641,-0.325 -0.0169,-0.485 -0.0065,-0.0129 -0.0357,-0.0548 -0.0357,-0.066 0,-0.0076 0.0369,-0.0498 0.0445,-0.0573 0.0708,-0.07 0.1188,-0.1625 0.1481,-0.2587 0.0116,-0.0379 0.0207,-0.0887 0.0212,-0.1314l0.0047 -0.2445c0.0012,-0.0868 0.0258,-0.1727 0.0491,-0.2561 0.0159,-0.0572 0.0328,-0.0984 0.0545,-0.1489 0.0307,-0.0718 0.0617,-0.1343 0.1002,-0.1999 0.0515,-0.0878 0.114,-0.152 0.1842,-0.2226 0.0668,-0.0671 0.1492,-0.1252 0.2344,-0.1674l0.1406 -0.0629c0.1562,-0.0607 0.3237,-0.0762 0.4934,-0.0762 0.0857,0 0.321,0.0221 0.3916,0.056 -0.0045,0.017 -0.0094,0.0172 -0.0216,0.0292 -0.0665,0.0656 -0.135,0.1298 -0.1976,0.1991l-0.3695 0.3731c-0.0164,0.0164 -0.0365,0.0339 -0.0508,0.0509 -0.0103,0.0123 -0.0102,0.0154 -0.0229,0.028 -0.0088,0.0088 -0.014,0.014 -0.0229,0.0228 -0.0116,0.0117 -0.0979,0.0945 -0.0979,0.1005 0,0.0493 0.0239,0.1073 0.04,0.1533 0.012,0.0344 0.0298,0.0632 0.0495,0.0928 0.0067,0.01 0.0116,0.019 0.0186,0.0272 0.0463,0.0545 0.2191,0.2191 0.2823,0.2823 0.0173,0.0173 0.031,0.0309 0.0482,0.0483 0.0391,0.0397 0.1363,0.08 0.1869,0.0929 0.0371,0.0095 0.0795,0.023 0.1121,0.0001 0.0078,-0.0055 0.0181,-0.0131 0.0262,-0.0196 0.0451,-0.0357 0.1658,-0.1477 0.1933,-0.183 0.0105,-0.0134 0.0104,-0.0151 0.0232,-0.0277l0.2518 -0.2619c0.0327,-0.0325 0.0615,-0.0615 0.0941,-0.0941 0.0171,-0.0172 0.0308,-0.0318 0.0482,-0.0485 0.0113,-0.0108 0.0145,-0.0101 0.0256,-0.0201 0.0338,-0.0305 0.0895,-0.0941 0.1359,-0.098 0.0011,0.0449 0.0202,0.1008 0.0306,0.1424 0.0107,0.0427 0.0203,0.0945 0.0203,0.1475z"/>
   <path class="fil0" d="M3.4115 6.2576c0.0457,0.0107 0.0886,0.0495 0.1291,0.0743l0.4028 0.2126c0.0125,0.0083 0.0198,0.0114 0.0316,0.0192l0.0895 0.0631c0.0143,0.0104 0.0158,0.0142 0.0275,0.0234 0.056,0.0441 0.1072,0.103 0.1549,0.1553 0.0282,0.0309 0.094,0.1438 0.1156,0.1438 0.0215,0 0.0494,-0.022 0.0661,-0.0305l0.2391 -0.1526c0.011,-0.0074 0.0196,-0.0117 0.0316,-0.0192l0.6194 -0.4182 -0.0997 -0.9836c-0.0273,-0.1544 -0.0139,-0.1505 -0.1953,-0.1505 -0.0265,0 -0.0555,-0.0012 -0.0816,-0.0002 -0.0283,0.001 -0.0141,0.0056 -0.0761,0.0052l-0.2268 0.0224c-0.0261,0.0045 -0.053,0.0084 -0.0745,0.012 -0.0721,0.0122 -0.1323,0.0252 -0.1938,0.0554 -0.05,0.0245 -0.0643,0.0376 -0.104,0.0638 -0.0394,0.0261 -0.0803,0.0622 -0.1141,0.0945 -0.0113,0.0108 -0.0145,0.0101 -0.0256,0.0201 -0.0538,0.0487 -0.0859,0.0916 -0.122,0.1273l-0.2008 0.2162c-0.0088,0.0104 -0.0074,0.0121 -0.0177,0.0229l-0.2773 0.267c-0.0088,0.0105 -0.0072,0.012 -0.0177,0.0229 -0.0114,0.0117 -0.0109,0.0108 -0.0212,0.0246 -0.0215,0.0287 -0.0553,0.0643 -0.059,0.1088z"/>
   <path class="fil0" d="M4.3066 4.7013c0,0.0456 0.0071,0.0974 0.0183,0.1343 0.0172,0.0563 0.0549,0.101 0.1047,0.1292 0.1182,0.0671 0.33,0.0362 0.4666,0.021 0.0112,-0.0013 0.0393,-0.0041 0.0543,-0.0068 0.0923,-0.0165 0.2562,-0.0161 0.3316,0.0335 0.0137,0.009 0.0141,0.0114 0.0255,0.0204 0.0121,0.0095 0.0163,0.0104 0.0277,0.0231 0.0079,0.0088 0.0143,0.0185 0.022,0.0289 0.0398,0.0536 0.0582,0.1077 0.0721,0.1771 0.0103,0.0514 0.0209,0.1247 0.0214,0.182 0.0004,0.0555 0.0642,0.5525 0.0712,0.6306 0.0026,0.0299 0.0103,0.0633 0.0103,0.0915 0.0446,-0.0104 0.1632,-0.0976 0.2034,-0.1272l0.1902 -0.1404c0.0178,-0.0129 0.0308,-0.0204 0.048,-0.0334 0.0085,-0.0064 0.0142,-0.0107 0.0233,-0.0173l0.0883 -0.0745 0.0561 -0.0711c0.0751,-0.1125 0.0575,-0.2171 0.0466,-0.3396l-0.0558 -0.5341c-0.0016,-0.0592 -0.0285,-0.2204 -0.0357,-0.2847 -0.0057,-0.0501 -0.0218,-0.1221 -0.0473,-0.1663 -0.1073,-0.1858 -0.3299,-0.1691 -0.5141,-0.1258 -0.1697,0.0399 -0.4243,0.0785 -0.6052,0.112l-0.2035 0.0355c-0.0358,0.0064 -0.0667,0.0124 -0.0996,0.0173 -0.1616,0.0243 -0.3204,0.0687 -0.3204,0.2848z"/>
   <path class="fil0" d="M2.796 5.3625c0.086,0 0.1481,-0.0132 0.2125,-0.0775 0.0455,-0.0456 0.0774,-0.11 0.0774,-0.1869 0,-0.0665 -0.065,-0.1751 -0.0935,-0.2218 -0.0104,-0.0171 -0.0193,-0.029 -0.0305,-0.0457l-0.2611 -0.3696c-0.0171,-0.0173 -0.024,-0.0224 -0.0491,-0.0324 -0.0666,-0.0264 -0.1909,-0.0355 -0.2609,-0.0003 -0.0259,0.0128 -0.0396,0.0289 -0.0589,0.048 -0.0158,0.0156 -0.0353,0.0418 -0.0445,0.0622 -0.0454,0.0991 -0.0317,0.1968 0.0234,0.2869l0.1507 0.2258c0.0701,0.1061 0.1754,0.3113 0.3345,0.3113zm0.8544 -2.543c0,0.1231 0.0448,0.1796 0.1001,0.2764l0.1405 0.2054c0.0092,0.0121 0.0078,0.0115 0.0158,0.0248l0.1221 0.1831c0.0896,0.121 0.1638,0.1139 0.3133,0.1139 0.0359,0 0.0658,-0.0127 0.0886,-0.0283 0.0232,-0.016 0.0491,-0.0365 0.064,-0.0581 0.0983,-0.1414 0.0889,-0.2339 0.003,-0.3744l-0.0706 -0.1126c-0.0661,-0.0871 -0.2239,-0.3463 -0.2745,-0.3967 -0.0252,-0.0251 -0.0337,-0.0367 -0.0681,-0.0539 -0.0318,-0.0157 -0.0492,-0.0246 -0.0902,-0.0319 -0.0771,-0.0137 -0.1807,0.0089 -0.2357,0.0553 -0.0182,0.0154 -0.0326,0.0245 -0.0472,0.0445 -0.0145,0.0199 -0.0213,0.0204 -0.0363,0.0552 -0.0131,0.0303 -0.0248,0.0519 -0.0248,0.0973zm0.0917 1.3529c0.0608,0 0.0816,-0.0003 0.1355,-0.0272 0.0884,-0.0437 0.1594,-0.1486 0.1594,-0.2424 0,-0.0804 -0.1216,-0.2764 -0.1699,-0.3488l-0.1902 -0.2827c-0.0068,-0.0104 -0.0106,-0.017 -0.0183,-0.0276 -0.0893,-0.1229 -0.2272,-0.1617 -0.3661,-0.1058 -0.0269,0.0109 -0.0541,0.027 -0.0757,0.0465 -0.0522,0.0467 -0.1121,0.1613 -0.0934,0.2589 0.0123,0.0642 0.0439,0.1139 0.0795,0.1646 0.0081,0.0116 0.0173,0.0227 0.0264,0.0346l0.2147 0.3346c0.0095,0.0144 0.0153,0.0217 0.0255,0.0356l0.055 0.067c0.0114,0.0113 0.0211,0.0172 0.0332,0.0278 0.0218,0.0191 0.0496,0.0331 0.0775,0.0446 0.0283,0.0116 0.0668,0.0203 0.1069,0.0203zm-1.0986 -0.178c0,0.099 0.0496,0.1718 0.0986,0.2523l0.0661 0.0966c0.0462,0.0634 0.1715,0.2644 0.2028,0.2957 0.0393,0.0392 0.0269,0.0376 0.0861,0.0766 0.0794,0.0524 0.2007,0.0539 0.2855,0.018 0.1424,-0.0605 0.1745,-0.2985 0.1114,-0.3995l-0.2063 -0.3177c-0.0571,-0.0981 -0.0956,-0.158 -0.1749,-0.237 -0.0858,-0.0851 -0.2409,-0.0859 -0.3443,-0.016 -0.0144,0.0097 -0.0171,0.0139 -0.0314,0.0245 -0.0252,0.0184 -0.0616,0.0754 -0.0726,0.1053 -0.0099,0.0265 -0.021,0.0663 -0.021,0.1012z"/>
   <path class="fil5" d="M1.0593 3.4207c-0.0544,-0.0089 -0.1084,-0.019 -0.1628,-0.0273 -0.0472,-0.0072 -0.0935,-0.0194 -0.1405,-0.028l0.022 0.134 0.2797 0.0256c0.0016,-0.0338 0.0038,-0.0747 0.0016,-0.1043z"/>
   <path class="fil5" d="M8.3035 7.4846c0.0543,-0.009 0.1084,-0.019 0.1627,-0.0273 0.0472,-0.0072 0.0936,-0.0194 0.1406,-0.028l-0.022 0.134 -0.2798 0.0255c-0.0015,-0.0337 -0.0037,-0.0747 -0.0015,-0.1042z"/>
  </g>
 </g>
</svg>
