<?xml version="1.0" encoding="UTF-8"?>
<!DOCTYPE svg PUBLIC "-//W3C//DTD SVG 1.1//EN" "http://www.w3.org/Graphics/SVG/1.1/DTD/svg11.dtd">
<!-- Creator: CorelDRAW 2019 (64-Bit) -->
<svg xmlns="http://www.w3.org/2000/svg" xml:space="preserve" width="9.0592mm" height="7.9586mm" version="1.1" style="shape-rendering:geometricPrecision; text-rendering:geometricPrecision; image-rendering:optimizeQuality; fill-rule:evenodd; clip-rule:evenodd"
viewBox="0 0 9.0592 7.9586"
 xmlns:xlink="http://www.w3.org/1999/xlink"
 xmlns:xodm="http://www.corel.com/coreldraw/odm/2003">
 <defs>
  <style type="text/css">
   <![CDATA[
    .str0 {stroke:#045395;stroke-width:0.0762;stroke-miterlimit:22.9256}
    .fil4 {fill:none}
    .fil1 {fill:#4788C7}
    .fil5 {fill:#4788C7}
    .fil0 {fill:#98CBFC}
    .fil2 {fill:#98CBFC}
    .fil3 {fill:#DEEFFD}
   ]]>
  </style>
 </defs>
 <g id="Слой_x0020_1">
  <metadata id="CorelCorpID_0Corel-Layer"/>
  <g id="_2609895535664">
   <path class="fil0" d="M7.2107 7.5043c-0.164,-0.0039 -0.3318,-0.0006 -0.4962,-0.0006 -0.178,0 -0.5133,-0.0561 -0.5386,0.1934 -0.0107,0.1055 0.0651,0.0823 0.154,0.0823l1.7075 0c0.0731,0 0.1783,0.0243 0.1807,-0.0594 0.0042,-0.1443 -0.1206,-0.2213 -0.2733,-0.2155 0.0074,-0.3458 0.0005,-0.6997 0.0005,-1.0464 0,-0.8673 -0.0055,-1.7495 0.0001,-2.615 0.0012,-0.1906 -0.0868,-0.1502 -0.3695,-0.1502 -0.2614,0 -0.3665,-0.043 -0.3656,0.1499l0.0003 1.5693c-0.001,0.6945 -0.0112,1.3989 0.0001,2.0922z"/>
   <path class="fil0" d="M6.9515 5.5555l0.0005 0.2146 -1.3066 0.0003c-0.0947,0 -0.0837,0.0839 -0.0456,0.1381 0.0412,0.0587 0.0871,0.0703 0.184,0.0703l1.1678 0.0004 0.0005 0.1916c0,0.0807 0.011,0.1159 0.0584,0.1506 0.0435,0.0318 0.1162,0.0452 0.1407,-0.0066 0.0119,-0.0251 0.0118,-0.7634 0.0077,-0.8438 -0.0066,-0.1273 -0.2064,-0.0821 -0.2074,0.0845z"/>
   <g>
    <path class="fil1" d="M6.9235 0.5848c0.1496,-0.0374 0.3071,0.0138 0.3246,0.1858l0.0004 0.0036 0.0015 0.7339c0.0002,0.1332 0.0097,0.298 -0.1535,0.3392 -0.1582,0.0398 -0.3133,-0.0153 -0.3324,-0.1934l-0.0004 -0.0039 -0.0004 -0.7326c-0.0001,-0.1428 -0.0156,-0.2887 0.1602,-0.3326z"/>
    <path class="fil1" d="M1.7772 0.5821c0.1557,-0.0307 0.3,0.0252 0.3128,0.2013l0.0002 0.0026 0.0008 0.733c0.0001,0.1365 0.0042,0.2939 -0.165,0.33 -0.1601,0.0342 -0.3117,-0.0254 -0.3225,-0.207l-0.0001 -0.0043 0.0005 -0.7311c0.0001,-0.1486 -0.0122,-0.2879 0.1733,-0.3245z"/>
    <path class="fil2" d="M2.4965 1.1607c-0.0074,0.0725 -0.0045,0.1785 -0.0044,0.2334 0.0003,0.093 0.0035,0.1878 0.0007,0.2792l-0.0211 1.7002c0.1833,0.0654 0.7165,0.1398 0.8788,0.1589 0.7396,0.087 1.4144,0.083 2.1541,0.0019 0.1575,-0.0173 0.7139,-0.0967 0.8982,-0.1608l-0.0733 -2.2133c-0.0383,-0.0064 -0.084,-0.0108 -0.1129,-0.0145 -0.0993,-0.0126 -0.199,-0.0235 -0.2985,-0.0338 -0.1424,-0.0147 -0.3184,-0.0388 -0.4601,-0.0388l-2.0844 0c-0.1451,0 -0.3226,0.0249 -0.4682,0.0405 -0.1355,0.0144 -0.2734,0.0286 -0.4089,0.0471z"/>
    <path class="fil2" d="M5.9702 0.8034c0.0155,-0.051 0.0174,-0.3648 0.0039,-0.4161 -0.0244,-0.0718 -0.2616,-0.04 -0.3227,-0.04l-1.934 0.0006c-0.1613,0 -0.3227,0.0007 -0.484,-0.0004 -0.0569,-0.0004 -0.3125,-0.0238 -0.3389,0.0288 -0.0149,0.0499 -0.0161,0.3687 -0.0036,0.4203 0.0185,0.0648 0.2671,0.0358 0.3215,0.0358l2.4175 0.0001c0.0648,0 0.3088,0.03 0.3403,-0.0291z"/>
    <path class="fil3" d="M6.3985 4.4051c-0.0471,0.0163 -0.6602,0.0748 -0.7373,0.0714 -0.0012,-0.0815 -0.0146,-0.3016 0.0014,-0.3662l0.8103 -0.1444c-0.003,0.0775 -0.0511,0.3838 -0.0744,0.4392zm-4.0102 -0.4396c0.1434,0.0167 0.2692,0.0554 0.4052,0.0761 0.1326,0.0201 0.2721,0.0465 0.4084,0.0681 0.0159,0.0705 0.0032,0.2836 0.0022,0.3695l-0.7425 -0.0678 -0.0733 -0.4459zm0.0104 -0.5447l0.0217 -1.7484c0.0038,-0.1227 -0.0102,-0.485 0.0134,-0.5761 0.1554,-0.0226 0.8065,-0.0958 0.9398,-0.0956l2.0844 -0.0001c0.1131,-0.0004 0.881,0.077 0.9421,0.102l0.0767 2.3181c-0.1154,0.0623 -0.792,0.1667 -0.9644,0.1856 -0.7709,0.0846 -1.3987,0.0889 -2.1704,-0.002 -0.1747,-0.0205 -0.8227,-0.1188 -0.9433,-0.1835zm3.6381 -2.5894c-0.0568,0.1083 -0.2186,0.072 -0.4069,0.0735l-2.4175 -0.0001c-0.1345,-0.0008 -0.3545,0.0405 -0.3911,-0.0883 -0.0157,-0.055 -0.0159,-0.4227 0.0062,-0.4675 0.0514,-0.1035 0.2445,-0.0751 0.4064,-0.0739 0.1611,0.0011 0.3223,-0.0001 0.4835,0.0003l1.934 -0.0006c0.1305,-0.0003 0.3468,-0.0418 0.3913,0.0892 0.0183,0.054 0.0168,0.4241 -0.0059,0.4674zm0.0968 -0.6555l-3.3847 0c-0.0213,-0.0006 -0.2532,0.0233 -0.4028,0.2728 -0.1091,0.182 -0.0997,0.3347 -0.1049,0.5761 -0.0094,0.4383 -0.0303,0.8723 -0.0382,1.3108 -0.0078,0.4321 -0.0176,0.8848 -0.039,1.3116 -0.0044,0.0878 -0.0141,0.2502 -0.0046,0.3323 0.0111,0.097 0.1234,0.695 0.1187,0.7297 -0.0044,0.0317 -0.0491,0.0753 -0.0696,0.1084 0.0002,0.046 0.1105,0.4726 0.1336,0.5132 0.2979,0.0283 0.1675,-0.0649 0.2037,0.2178 0.0202,0.1578 0.164,0.1292 0.3013,0.1283 0.0883,-0.0005 0.3585,0.0118 0.4245,-0.006 0.1304,-0.0352 0.091,-0.2032 0.0985,-0.3317 0.0774,-0.0178 0.3465,-0.0054 0.444,-0.0054l1.6017 -0.0007c0.0555,-0.0007 0.0674,-0.0112 0.0757,0.0317 0.0031,0.0165 -0.0006,0.0961 -0.0006,0.1193 0.0005,0.1995 0.0879,0.1938 0.268,0.1935 0.1167,-0.0002 0.3476,0.0128 0.4505,-0.0023 0.1576,-0.0231 0.1021,-0.2084 0.1209,-0.3405l0.2016 -0.0019c0.0245,-0.0549 0.0918,-0.3401 0.1206,-0.441 0.0493,-0.1729 -0.0872,-0.0499 -0.0477,-0.2742l0.0836 -0.4956c0.0438,-0.248 0.0014,-1.1476 -0.0098,-1.4499 -0.0184,-0.4972 -0.0287,-0.9815 -0.0418,-1.4756 -0.0106,-0.395 0.0109,-0.9485 -0.5032,-1.0207z"/>
    <path class="fil3" d="M1.7912 0.6532c-0.133,0.0262 -0.115,0.1242 -0.1149,0.2534l-0.0005 0.7311c0.0074,0.1242 0.1046,0.1684 0.235,0.1405 0.1156,-0.0247 0.1082,-0.1381 0.1077,-0.2592l-0.0008 -0.7303c-0.0087,-0.1206 -0.1007,-0.1604 -0.2265,-0.1355z"/>
    <path class="fil3" d="M6.941 0.655c-0.1236,0.0309 -0.1053,0.1341 -0.1052,0.2623l0.0004 0.7289c0.0124,0.1166 0.1071,0.1649 0.2426,0.1308 0.1109,-0.0279 0.0992,-0.1524 0.0987,-0.2687l-0.0015 -0.7304c-0.0122,-0.1197 -0.1207,-0.1514 -0.235,-0.1229z"/>
    <path class="fil2" d="M6.3422 4.3437c0.0179,-0.0679 0.0383,-0.1967 0.0497,-0.2898l-0.6651 0.1185c-0.0045,0.0638 0.0007,0.158 0.0042,0.2316 0.0938,-0.0037 0.2092,-0.0189 0.2904,-0.0267 0.0833,-0.0079 0.2277,-0.0159 0.3208,-0.0336z"/>
    <path class="fil2" d="M3.1376 4.1726c-0.1184,-0.0196 -0.2364,-0.0414 -0.355,-0.0594 -0.1031,-0.0157 -0.2041,-0.0424 -0.3066,-0.0611l0.048 0.2923 0.6104 0.0558c0.0034,-0.0736 0.008,-0.163 0.0032,-0.2276z"/>
    <polyline class="fil4 str0" points="3.3576,4.1497 4.4187,4.2429 5.496,4.1644 "/>
    <polyline class="fil4 str0" points="3.3978,4.2683 4.419,4.3614 5.4557,4.2829 "/>
    <polyline class="fil4 str0" points="3.4733,4.3938 4.4196,4.487 5.3802,4.4085 "/>
    <polyline class="fil4 str0" points="3.5347,4.5136 4.42,4.6068 5.3189,4.5283 "/>
    <path class="fil5" d="M3.0595 4.9787c-0.0763,-0.0127 -0.1523,-0.0267 -0.2287,-0.0383 -0.0664,-0.0102 -0.1315,-0.0273 -0.1975,-0.0394l0.031 0.1883 0.3931 0.0359c0.0022,-0.0474 0.0052,-0.1049 0.0021,-0.1465z"/>
    <path class="fil5" d="M5.8116 4.9787c0.0762,-0.0127 0.1522,-0.0267 0.2286,-0.0383 0.0665,-0.0102 0.1315,-0.0273 0.1975,-0.0394l-0.0309 0.1883 -0.3932 0.0359c-0.0021,-0.0474 -0.0051,-0.1049 -0.002,-0.1465z"/>
   </g>
   <path class="fil0" d="M1.7638 7.5043c0.164,-0.0039 0.3318,-0.0006 0.4963,-0.0006 0.1779,0 0.5132,-0.0561 0.5385,0.1934 0.0107,0.1055 -0.0651,0.0823 -0.154,0.0823l-1.7074 0c-0.0732,0 -0.1784,0.0243 -0.1808,-0.0594 -0.0042,-0.1443 0.1206,-0.2213 0.2733,-0.2155 -0.0074,-0.3458 -0.0004,-0.6997 -0.0004,-1.0464 0,-0.8673 0.0054,-1.7495 -0.0001,-2.615 -0.0013,-0.1906 0.0867,-0.1502 0.3694,-0.1502 0.2614,0 0.3665,-0.043 0.3656,0.1499l-0.0003 1.5693c0.0011,0.6945 0.0112,1.3989 -0.0001,2.0922z"/>
   <path class="fil0" d="M2.0231 5.5555l-0.0006 0.2146 1.3066 0.0003c0.0947,0 0.0837,0.0839 0.0457,0.1381 -0.0413,0.0587 -0.0872,0.0703 -0.1841,0.0703l-1.1678 0.0004 -0.0005 0.1916c0,0.0807 -0.011,0.1159 -0.0583,0.1506 -0.0436,0.0318 -0.1163,0.0452 -0.1408,-0.0066 -0.0119,-0.0251 -0.0118,-0.7634 -0.0077,-0.8438 0.0067,-0.1273 0.2064,-0.0821 0.2075,0.0845z"/>
  </g>
 </g>
</svg>
