<?xml version="1.0" encoding="UTF-8"?>
<!DOCTYPE svg PUBLIC "-//W3C//DTD SVG 1.1//EN" "http://www.w3.org/Graphics/SVG/1.1/DTD/svg11.dtd">
<!-- Creator: CorelDRAW 2019 (64-Bit) -->
<svg xmlns="http://www.w3.org/2000/svg" xml:space="preserve" width="90px" height="90px" version="1.1" style="shape-rendering:geometricPrecision; text-rendering:geometricPrecision; image-rendering:optimizeQuality; fill-rule:evenodd; clip-rule:evenodd"
viewBox="0 0 9000 9000"
 xmlns:xlink="http://www.w3.org/1999/xlink"
 xmlns:xodm="http://www.corel.com/coreldraw/odm/2003">
 <defs>
  <style type="text/css">
   <![CDATA[
    .fil2 {fill:none}
    .fil1 {fill:#045395}
    .fil4 {fill:#4788C7}
    .fil0 {fill:#98CBFC}
    .fil5 {fill:#DEEFFD}
    .fil6 {fill:white}
    .fil3 {fill:url(#id0)}
   ]]>
  </style>
  <linearGradient id="id0" gradientUnits="userSpaceOnUse" x1="5410" y1="2268" x2="5181" y2="6410">
   <stop offset="0" style="stop-opacity:1; stop-color:#80B9F2"/>
   <stop offset="1" style="stop-opacity:1; stop-color:#0E5291"/>
  </linearGradient>
 </defs>
 <g id="Слой_x0020_1">
  <metadata id="CorelCorpID_0Corel-Layer"/>
  <g id="_2726757531600">
   <path class="fil0" d="M3600 2993c16,-269 -21,-548 25,-812 89,-513 888,-967 1412,-968 517,0 883,208 1097,503 158,218 247,308 290,649 12,90 -12,282 -27,314 -4,7 -40,218 -47,239 0,2 -1,11 -1,11 17,46 41,101 47,160 65,580 -349,1712 -729,1760 -82,669 1188,632 1949,1133 325,214 401,511 496,953 55,253 113,390 -50,561 -176,184 -492,289 -737,359 -276,77 -672,112 -919,162 -296,59 -1044,83 -1369,83 -455,0 -942,-24 -1364,-86 -490,-72 -1303,-154 -1661,-517 -166,-169 -100,-334 -49,-558 104,-455 147,-719 495,-957 270,-183 659,-320 991,-460 111,-47 264,-100 407,-157 97,-39 189,-89 265,-107 4,-1 7,-4 11,-7 303,-190 131,-692 160,-874 -115,-81 -246,-384 -291,-393 -289,-54 -492,-239 -541,-323 -173,-294 -171,-430 140,-668z"/>
   <g>
    <path class="fil1" d="M4081 3808c327,669 600,616 1256,852 348,125 377,46 635,-129 -223,226 -320,280 -650,173 -686,-221 -966,-173 -1319,-864 -9,-21 1,-46 23,-55 22,-9 46,2 55,23z"/>
   </g>
   <path class="fil2" d="M4042 3824c145,356 362,622 753,670 307,38 771,415 1040,147 36,-36 118,-83 137,-110"/>
   <path class="fil3" d="M4990 1195c1796,22 1353,1487 1334,1720 -1,15 8,29 12,42 19,56 39,153 39,184 0,211 -53,532 -146,834 -69,220 -309,752 -524,825 -103,36 -252,22 -312,21 -269,-1 -873,-280 -1240,-520 -211,-138 -61,-343 -210,-365 -581,-83 -631,-633 -541,-757 130,-179 125,-138 208,-184 494,-270 1,-1166 583,-1520 198,-120 434,-284 797,-280z"/>
   <path class="fil0" d="M5942 972c-74,-21 -91,-58 -150,-85 -67,125 10,214 -130,341 -263,240 -680,371 -1057,326 112,-65 348,-76 560,-194 87,-48 432,-238 349,-353 -48,8 -22,19 -76,53 -363,229 -1016,275 -1233,511 -69,75 -39,131 68,123 -26,30 -69,47 -105,65 22,-103 -62,-144 -112,-194 -50,-50 -86,-154 -189,-103 -14,82 106,155 163,248 -362,81 -403,-253 -453,-332l-57 30 -39 -59 -38 60 -10 -53c-9,68 7,-5 -25,30 57,-361 678,-580 1096,-657 270,-50 531,-52 806,-21 289,34 510,71 632,264z"/>
   <path class="fil0" d="M3949 2807c1,3 290,1085 50,823 -5,-109 -19,-116 -69,-196 -56,-90 -65,-88 -124,-147 -78,-79 2,-258 -267,-246 -64,-284 -206,-444 -267,-735 -30,-142 -67,-297 -82,-447 -20,-197 -17,-294 175,-330 72,174 364,217 456,399 36,71 45,305 13,386 -31,80 -160,148 -202,234 122,-7 213,-13 139,87 -26,35 -32,29 -60,56 -36,36 -64,96 -102,138l263 -50c-13,54 -62,225 -101,299 231,-33 182,-32 178,-271z"/>
   <path class="fil0" d="M6391 2465l0 0c-4,-462 -192,-390 -235,-635 -16,-92 -34,-132 -130,-111 -299,67 -722,14 -1041,-4l41 -22c216,-101 731,-214 832,-383 57,-96 77,-204 88,-327 3,2 7,2 9,8l30 32c12,15 20,29 31,43 55,-68 53,-114 94,-188 111,109 106,330 98,508l59 83c122,168 119,150 119,360 -1,212 6,424 5,636z"/>
   <path class="fil4" d="M5942 972l4 11c-11,123 -31,231 -88,327 -101,169 -616,282 -832,383l-41 22c-110,-5 -225,-6 -336,-11 -105,-4 -287,4 -376,-10 -107,8 -137,-48 -68,-123 217,-236 870,-282 1233,-511 54,-34 28,-45 76,-53 83,115 -262,305 -349,353 -212,118 -448,129 -560,194 377,45 794,-86 1057,-326 140,-127 63,-216 130,-341 59,27 76,64 150,85z"/>
   <path class="fil4" d="M4168 1759c-14,28 -171,122 -216,431 -46,321 8,457 -3,617 4,239 53,238 -178,271 39,-74 88,-245 101,-299l-263 50c38,-42 66,-102 102,-138 28,-27 34,-21 60,-56 74,-100 -17,-94 -139,-87 42,-86 171,-154 202,-234 32,-81 23,-315 -13,-386 -92,-182 -384,-225 -456,-399l43 -143c32,-35 16,38 25,-30l10 53 38 -60 39 59 57 -30c50,79 91,413 453,332 -57,-93 -177,-166 -163,-248 103,-51 139,53 189,103 50,50 134,91 112,194z"/>
   <path class="fil4" d="M4219 5272c85,31 181,143 377,247 196,103 492,198 671,256 179,58 241,79 302,66 61,-13 122,-60 195,-134 72,-73 157,-173 176,-251 19,-78 -27,-134 -51,-162 -23,-28 -23,-28 21,3 44,30 131,91 283,150 152,60 369,117 565,178 195,61 371,125 519,191 148,66 269,134 366,207 97,73 170,152 236,268 66,117 125,270 172,433 46,162 82,333 92,450 10,117 -5,181 -34,236 -29,55 -72,101 -134,149 -62,48 -144,97 -255,146 -112,50 -254,100 -478,152 -223,52 -530,106 -838,145 -308,40 -618,64 -971,74 -354,10 -751,5 -1136,-20 -386,-25 -759,-71 -1087,-127 -327,-57 -609,-123 -807,-203 -197,-79 -310,-172 -378,-251 -69,-79 -94,-145 -87,-237 6,-91 45,-207 79,-350 33,-143 62,-314 109,-448 46,-134 111,-231 169,-302 58,-70 111,-113 228,-180 117,-68 299,-161 554,-268 255,-107 583,-228 784,-313 200,-86 273,-136 358,-105z"/>
   <path class="fil5" d="M1168 5036l0 -61c0,-76 -5,-153 3,-228 16,-156 109,-299 244,-378 107,-62 211,-77 332,-70l151 10c27,-7 56,-11 88,-11 62,1 124,1 186,1 19,0 38,1 58,1 67,-207 263,-358 491,-358 227,0 422,151 488,358 25,0 49,-1 72,-2 62,0 185,-7 243,6 7,2 13,4 20,6l0 -8 156 -3c71,-2 134,-2 203,17 180,51 317,196 357,379 15,66 10,129 10,195l0 2528c0,129 13,257 -48,377 -55,108 -132,184 -242,237 -123,59 -242,48 -374,48 -167,0 -334,1 -501,1 -114,1 -228,1 -341,0 -52,0 -146,4 -195,-5l-93 -17c-32,22 -63,45 -97,65l-78 48c-103,65 -211,111 -321,164 -65,31 -110,31 -177,3l-2 -1 -137 -65 -2 -1c-109,-53 -215,-111 -314,-182 -42,-30 -85,-56 -124,-88l-109 -90c-6,-4 -11,-8 -17,-12 -7,-6 -13,-12 -20,-18 -27,-23 -52,-47 -76,-71 -46,-46 -91,-93 -134,-140 -9,-10 -17,-19 -24,-29 -4,-4 -7,-8 -10,-11 -87,-102 -172,-214 -238,-331 -8,-14 -17,-28 -25,-42 -16,-29 -33,-58 -48,-87 -101,-191 -178,-392 -235,-600 -57,-211 -111,-503 -112,-722 0,-43 -5,-87 -5,-128l-3 -218 19 -35c28,-54 73,-80 130,-92l93 -22c182,-42 359,-107 527,-190 78,-39 155,-83 231,-128z"/>
   <path class="fil5" d="M1640 5749c0,-21 20,-38 41,-38l411 0c20,0 37,8 43,25 7,17 3,438 3,467 26,4 346,1 401,1 29,0 92,-11 92,41l0 414c0,53 -52,43 -95,43 -64,0 -360,-2 -397,1 -6,65 6,446 -4,468 -6,15 -23,25 -44,25l-407 0c-21,0 -38,-15 -42,-29 -8,-23 3,-420 -4,-465 -124,0 -248,0 -372,0 -83,0 -120,19 -120,-67 1,-62 0,-123 0,-185 0,-276 -20,-246 123,-246 124,0 247,0 371,0l0 -455zm-1059 -17c-5,27 0,76 1,105 2,83 19,220 31,300 51,344 166,681 344,970 56,90 89,129 146,208 4,6 8,10 12,15l77 89c37,40 147,154 180,177l168 132c20,15 45,29 67,44 40,29 92,56 136,83 15,9 134,73 146,73 15,0 182,-93 214,-112 20,-13 47,-30 68,-44 76,-48 120,-83 188,-138 10,-8 22,-16 31,-24 56,-50 203,-189 247,-248 28,-38 70,-84 96,-123 8,-13 14,-21 22,-31 8,-11 13,-21 22,-33 129,-180 255,-479 310,-679 33,-115 58,-234 78,-360 8,-49 43,-356 34,-403 -31,-11 -64,-17 -96,-28l-189 -64c-167,-62 -360,-161 -510,-252 -13,-8 -28,-16 -40,-24l-39 -25c-42,-30 -109,-71 -151,-103 -24,-18 -49,-36 -73,-54 -5,-5 -12,-8 -17,-12 -7,-6 -12,-10 -19,-15l-71 -57c-25,-21 -86,-67 -101,-89 -11,5 -11,7 -18,14l-194 157c-80,63 -287,200 -382,253l-61 33c-6,3 -13,8 -21,12 -218,114 -383,183 -636,253z"/>
   <path class="fil1" d="M581 5732c253,-70 418,-139 636,-253 8,-4 15,-9 21,-12l61 -33c95,-53 302,-190 382,-253l194 -157c7,-7 7,-9 18,-14 15,22 76,68 101,89l71 57c7,5 12,9 19,15 5,4 12,7 17,12 24,18 49,36 73,54 42,32 109,73 151,103l39 25c12,8 27,16 40,24 150,91 343,190 510,252l189 64c32,11 65,17 96,28 9,47 -26,354 -34,403 -20,126 -45,245 -78,360 -55,200 -181,499 -310,679 -9,12 -14,22 -22,33 -8,10 -14,18 -22,31 -26,39 -68,85 -96,123 -44,59 -191,198 -247,248 -9,8 -21,16 -31,24 -68,55 -112,90 -188,138 -21,14 -48,31 -68,44 -32,19 -199,112 -214,112 -12,0 -131,-64 -146,-73 -44,-27 -96,-54 -136,-83 -22,-15 -47,-29 -67,-44l-168 -132c-33,-23 -143,-137 -180,-177l-77 -89c-4,-5 -8,-9 -12,-15 -57,-79 -90,-118 -146,-208 -178,-289 -293,-626 -344,-970 -12,-80 -29,-217 -31,-300 -1,-29 -6,-78 -1,-105zm-255 -192l2 179c0,43 5,90 5,130 1,195 58,502 107,681 53,197 126,387 221,568 14,27 31,55 47,83 10,18 17,29 25,42 59,105 142,214 220,306 5,6 11,11 15,17 8,11 6,9 15,19 44,48 85,90 129,134 21,21 45,44 67,63 8,7 11,11 18,16 7,6 12,8 19,14l108 89c35,30 76,55 114,81 93,66 190,119 294,170l133 63c24,10 24,11 48,-1 104,-50 205,-91 305,-154l80 -50c41,-24 80,-55 118,-81 15,-11 25,-17 37,-27 36,-30 76,-57 111,-89l67 -62c9,-7 10,-6 19,-14 7,-7 11,-11 17,-17 10,-12 22,-24 33,-34 16,-15 34,-31 47,-49 8,-9 8,-10 16,-18 50,-49 91,-106 135,-160 40,-50 73,-102 110,-154 6,-9 7,-12 12,-21 9,-15 17,-27 26,-41 8,-12 17,-27 24,-40 39,-76 75,-136 112,-217 133,-294 216,-609 249,-936 4,-38 10,-80 11,-118 1,-41 4,-90 7,-127 4,-38 0,-90 0,-130 1,-39 10,-83 7,-122 -83,-18 -164,-35 -245,-57 -77,-22 -153,-49 -227,-78 -72,-27 -144,-60 -212,-93l-220 -122c-9,-5 -16,-10 -25,-14 -13,-8 -34,-21 -46,-30 -10,-6 -14,-7 -23,-13 -9,-7 -14,-10 -23,-16 -62,-39 -119,-85 -180,-126 -17,-11 -29,-24 -44,-35 -18,-13 -26,-20 -42,-33l-165 -141c-13,-13 -24,-24 -37,-38 -25,-24 -50,-55 -78,-76 -16,8 -59,58 -76,75l-160 145c-40,35 -86,68 -128,102 -14,11 -29,21 -44,32 -14,11 -27,19 -43,31 -18,13 -30,20 -47,33l-137 89c-80,46 -164,95 -248,136 -177,88 -365,157 -560,203l-93 21c-12,3 -23,3 -27,12z"/>
   <path class="fil1" d="M1640 5749l0 455c-124,0 -247,0 -371,0 -143,0 -123,-30 -123,246 0,62 1,123 0,185 0,86 37,67 120,67 124,0 248,0 372,0 7,45 -4,442 4,465 4,14 21,29 42,29l407 0c21,0 38,-10 44,-25 10,-22 -2,-403 4,-468 37,-3 333,-1 397,-1 43,0 95,10 95,-43l0 -414c0,-52 -63,-41 -92,-41 -55,0 -375,3 -401,-1 0,-29 4,-450 -3,-467 -6,-17 -23,-25 -43,-25l-411 0c-21,0 -41,17 -41,38z"/>
   <path class="fil1" d="M3718 4621c55,0 89,0 130,21 11,6 14,9 23,15 67,46 77,108 77,188l0 2597c0,109 14,189 -50,255 -66,69 -130,58 -249,58l-838 0c-40,0 -32,2 -53,24 -13,13 -26,23 -39,36 -10,10 -29,29 -40,36 -14,10 -27,24 -40,35 -14,12 -28,24 -41,36 28,5 933,1 1008,1 115,0 217,11 307,-33 81,-38 131,-92 169,-166 43,-85 32,-204 32,-306l0 -2528c0,-54 4,-113 -7,-161 -29,-132 -128,-229 -246,-262 -51,-14 -98,-13 -157,-12 0,14 12,37 14,76 2,28 0,61 0,90z"/>
   <path class="fil1" d="M2531 4440c0,-45 30,-91 60,-120 71,-70 186,-71 258,1 52,53 58,82 58,152 0,82 -90,174 -189,172 -59,-1 -95,-25 -128,-53 -25,-22 -59,-78 -59,-122l0 -30zm-168 14c-21,4 -330,1 -377,1 -48,0 -66,8 -87,39 4,11 43,47 54,57 15,15 46,43 57,59 16,23 36,39 55,59l61 54c27,26 237,201 259,201l1095 0c23,0 37,-11 49,-23 10,-9 26,-29 26,-47l0 -326c0,-30 -28,-62 -65,-71 -33,-8 -381,4 -414,-3 0,-196 -163,-355 -355,-355 -197,0 -358,161 -358,355z"/>
   <path class="fil6" d="M2531 4440l0 30c0,44 34,100 59,122 33,28 69,52 128,53 99,2 189,-90 189,-172 0,-70 -6,-99 -58,-152 -72,-72 -187,-71 -258,-1 -30,29 -60,75 -60,120z"/>
   <path class="fil1" d="M1325 4975c8,-1 36,-22 44,-28 15,-11 122,-85 124,-96 0,-40 -3,-70 8,-104 7,-21 29,-56 43,-71 12,-13 51,-37 72,-44 36,-12 65,-8 106,-8 6,-89 -11,-76 15,-168 -90,-6 -164,2 -243,48 -92,54 -156,152 -167,259 -6,61 -2,146 -2,212z"/>
   <path class="fil1" d="M3292 5371l426 0c32,0 54,-28 43,-58 -12,-31 -40,-27 -79,-27l-429 0c-70,0 -147,-3 -216,0 16,16 240,85 255,85z"/>
   <path class="fil1" d="M3256 7094c28,4 340,1 396,1 45,0 92,10 108,-26 8,-17 2,-36 -8,-47 -13,-14 -30,-12 -55,-12l-399 0c-9,2 -40,77 -42,84z"/>
   <path class="fil1" d="M3378 6807l310 0c40,0 63,4 74,-30 10,-30 -14,-54 -43,-55 -81,-3 -228,0 -314,0l-27 85z"/>
   <path class="fil1" d="M3468 6519l244 0c73,1 58,-76 21,-83l-246 0c-5,20 -19,67 -19,83z"/>
   <path class="fil1" d="M3528 6233l193 0c56,0 58,-85 0,-85l-175 0c-11,0 -8,3 -10,14 0,7 -2,17 -3,24 -2,16 -5,31 -5,47z"/>
   <path class="fil1" d="M3567 5870l-5 75 159 0c57,0 58,-86 -3,-86l-151 0 0 11z"/>
   <path class="fil1" d="M3571 5656c15,2 155,4 167,-2 29,-13 36,-55 8,-75 -20,-13 -141,-8 -169,-8l-6 85z"/>
   <circle class="fil5" cx="2724" cy="4445" r="208"/>
  </g>
 </g>
 <g id="Слой_x0020_1_0">
  <metadata id="CorelCorpID_1Corel-Layer"/>
 </g>
 <g id="Слой_x0020_1_1">
  <metadata id="CorelCorpID_2Corel-Layer"/>
 </g>
 <g id="Слой_x0020_1_2">
  <metadata id="CorelCorpID_3Corel-Layer"/>
 </g>
</svg>
