<?xml version="1.0" encoding="UTF-8"?>
<!DOCTYPE svg PUBLIC "-//W3C//DTD SVG 1.1//EN" "http://www.w3.org/Graphics/SVG/1.1/DTD/svg11.dtd">
<!-- Creator: CorelDRAW 2019 (64-Bit) -->
<svg xmlns="http://www.w3.org/2000/svg" xml:space="preserve" width="7.4506mm" height="7.4506mm" version="1.1" style="shape-rendering:geometricPrecision; text-rendering:geometricPrecision; image-rendering:optimizeQuality; fill-rule:evenodd; clip-rule:evenodd"
viewBox="0 0 7.4506 7.4506"
 xmlns:xlink="http://www.w3.org/1999/xlink"
 xmlns:xodm="http://www.corel.com/coreldraw/odm/2003">
 <defs>
  <style type="text/css">
   <![CDATA[
    .str0 {stroke:#045395;stroke-width:0.2;stroke-miterlimit:22.9256}
    .fil5 {fill:#045395}
    .fil1 {fill:#4788C7}
    .fil2 {fill:#98CBFC}
    .fil4 {fill:#98CBFC}
    .fil3 {fill:#DEEFFD}
    .fil0 {fill:#F7F7F7}
   ]]>
  </style>
 </defs>
 <g id="Слой_x0020_1">
  <metadata id="CorelCorpID_0Corel-Layer"/>
  <g id="_2609901849136">
   <path class="fil0" d="M4.0154 5.7388c-0.0228,-0.3082 0.1703,-0.5267 0.4034,-0.5602 0.5867,-0.0842 0.7144,0.9403 0.097,1.0085 -0.2574,0.0285 -0.4805,-0.1796 -0.5004,-0.4483zm1.2214 -0.1057c0.0755,-0.0522 0.5264,-0.0269 0.6593,-0.0269 0.1403,0 0.5866,-0.032 0.6658,0.0281l0.0033 0.0966c-0.0837,0.0582 -0.5187,0.0265 -0.6584,0.0265 -0.1343,0 -0.5937,0.0254 -0.666,-0.0258l-0.004 -0.0985zm-0.8647 -1.8831c0.2694,-0.0719 0.5002,0.1441 0.5444,0.3896 0.1207,0.6707 -0.7589,0.8644 -0.894,0.2158 -0.0658,-0.316 0.1396,-0.5494 0.3496,-0.6054zm0.9568 0.4198l1.1452 0c0.0946,0 0.1113,0.0571 0.0771,0.1378 -0.102,0.0335 -1.0403,0.015 -1.2223,0.015 -0.0451,0 -0.0596,-0.0087 -0.087,-0.0249 -0.0181,-0.09 0.0018,-0.1279 0.087,-0.1279zm-0.962 -1.8482c0.2708,-0.0651 0.4973,0.117 0.548,0.3756 0.1309,0.6689 -0.7426,0.8714 -0.8897,0.2364 -0.0726,-0.3133 0.1281,-0.5607 0.3417,-0.612zm1.1225 0.4185c0.1771,0 1.0246,-0.0287 1.0651,0.0288 0.042,0.0596 -0.0003,0.1156 -0.0582,0.1231 -0.0491,0.0064 -0.1302,0.0008 -0.1827,0.0008 -0.2025,0 -0.9922,0.0253 -1.0712,-0.028 -0.0371,-0.1715 0.1259,-0.1247 0.247,-0.1247zm-1.6793 -1.1659c-0.1714,0.0417 -0.1425,0.2018 -0.1425,0.4034l0 4.5583c0,0.1956 -0.0194,0.3711 0.1623,0.3907 0.1102,0.0119 1.8077,0.0011 1.9699,0.0011 0.1398,0 0.9131,0.0114 0.9832,-0.0063 0.1582,-0.0398 0.1316,-0.2237 0.1316,-0.4104l0 -4.5583c0,-0.1916 0.0128,-0.3682 -0.1635,-0.3816 -0.1713,-0.013 -0.7649,-0.0005 -0.9834,-0.0005 -0.1139,0 -1.8954,-0.0115 -1.9576,0.0036z"/>
   <path class="fil1" d="M5.2499 0.6245c0.2654,-0.0675 0.3301,0.3877 0.0858,0.4412 -0.2635,0.0577 -0.3431,-0.3758 -0.0858,-0.4412z"/>
   <path class="fil1" d="M3.8101 1.5742c0.0622,-0.015 1.8437,-0.0036 1.9576,-0.0036 0.2185,0 0.8121,-0.0126 0.9834,0.0005 0.1763,0.0135 0.1635,0.19 0.1635,0.3816l0 4.5582c0,0.1869 0.0266,0.3707 -0.1316,0.4104 -0.0701,0.0177 -0.8434,0.0063 -0.9832,0.0063 -0.1621,0 -1.8597,0.0109 -1.9699,-0.0009 -0.1817,-0.0197 -0.1623,-0.1952 -0.1622,-0.3908l0 -4.5582c0,-0.2017 -0.0289,-0.3617 0.1424,-0.4035z"/>
   <path class="fil1" d="M3.1813 6.2738l-0.0001 0.0469 0.0001 -0.0469 0.0002 0c0,0.0077 0,0.0153 -0.0001,0.0229 0,0.008 -0.0001,0.016 -0.0002,0.024l0.0001 -0.0469z"/>
   <polygon class="fil1" points="3.1812,6.2479 3.1812,6.2738 "/>
   <polygon class="fil1" points="3.1812,6.2479 3.1812,6.2738 "/>
   <path class="fil2" d="M3.2077 1.7249l0.0019 4.2818c-0.0025,0.2675 -0.0274,0.5207 0.0876,0.7299 0.0857,0.1556 0.2467,0.3061 0.4713,0.342 0.1648,0.0263 2.0077,0.0084 2.3379,0.0084 0.4919,0 0.9848,0.1146 1.2399,-0.358 0.1157,-0.2144 0.0842,-0.4832 0.0842,-0.7589 0,-1.1533 0,-2.3065 0,-3.4598 0,-0.2882 0.0041,-0.5803 -0.0001,-0.8681 -0.0042,-0.2797 -0.1302,-0.4593 -0.2679,-0.5664 -0.1967,-0.1531 -0.3868,-0.1375 -0.6599,-0.1375l-0.7651 -0.0033c-0.0154,-0.2085 0.0278,-0.3064 -0.0848,-0.4648 -0.063,-0.0885 -0.1761,-0.181 -0.3384,-0.1777 -0.1594,0.0031 -0.2696,0.0955 -0.3318,0.1846 -0.1071,0.1537 -0.0662,0.2547 -0.0806,0.4577 -0.1507,0.0224 -0.4389,0.0035 -0.6042,0.0035 -0.38,0 -0.7015,-0.0662 -0.9529,0.2759 -0.1289,0.1751 -0.1197,0.2608 -0.1371,0.5107z"/>
   <rect class="fil3 str0" x="3.6307" y="1.3457" width="3.3627" height="5.2836" rx="0.2304" ry="0.2681"/>
   <path class="fil3" d="M3.2227 3.395l-0.0001 1.027 -0.912 -0.0001c-0.0243,0 -0.1973,-0.0064 -0.2126,0.0096 -0.0137,0.0267 0.0748,0.312 0.0843,0.3464 0.1008,0.3616 0.2511,0.264 0.5672,0.264 0.1007,0 0.3633,-0.0193 0.4444,0.0104l0.0281 0.0103 0.0002 0.3939 -0.0339 0.0066 -0.873 0.0052c-0.0397,0.0002 -0.0436,0.0426 -0.0582,0.0782 -0.0374,0.0911 -0.0754,0.1821 -0.1143,0.2727l-0.0083 0.0193c0.4782,-0.0013 0.9248,-0.0016 1.0723,0.0013l-0.0012 0.1291c-0.0802,0.0001 -1.669,0.0127 -1.7555,0.0127 0.0019,0.6185 -0.0845,0.5307 -0.7951,0.5309 -0.4338,0.0002 -0.382,-0.205 -0.3803,-0.6318 0,-0.0259 -0.0013,-0.0453 -0.0036,-0.0603 -0.0827,-0.0269 -0.1517,-0.0807 -0.2008,-0.1849 -0.1213,-0.2572 -0.0146,-1.3641 0.0847,-1.6411 0.0452,-0.1259 0.4184,-0.538 0.5264,-0.647 0.0826,-0.0834 0.1327,-0.2632 0.1809,-0.3757 0.1747,-0.4078 0.2702,-0.9024 0.7046,-1.0705 0.2273,-0.0878 0.8035,-0.0562 1.0648,-0.0513l0.5854 0.0111 0.0066 0.1707 -0.7902 0.0093c-0.1903,0.0022 -0.5372,-0.0229 -0.717,0.0148 -0.3232,0.0681 -0.4087,0.3011 -0.5291,0.5947l-0.2292 0.5588c-0.0194,0.0454 -0.106,0.1822 -0.026,0.1865 0.2482,0.0134 0.4984,-0.0007 0.7469,-0.0007 0.5009,0 1.0016,0.0009 1.5025,0l0.0411 -0.0001zm-2.6075 0.3468c-0.2126,0.0518 -0.3823,0.6552 -0.1404,0.8778 0.2055,0.189 0.7917,0.2354 1.0596,0.2428 0.0317,0.0009 0.2258,0.0229 0.2417,-0.0092 0.0177,-0.0437 -0.0129,-0.2475 -0.0246,-0.2983 -0.0559,-0.2438 -0.1146,-0.228 -0.3045,-0.3293 -0.2174,-0.1161 -0.5602,-0.2945 -0.7453,-0.4507 -0.0301,-0.0255 -0.0458,-0.043 -0.0865,-0.0331zm1.049 1.8829c0.0292,-0.0341 0.0808,-0.0726 0.1016,-0.1104 0.0239,-0.0433 -0.1063,-0.1818 -0.133,-0.2188 -0.0631,-0.0878 -0.2341,-0.0344 -0.339,-0.0344 -0.2763,0 -0.5721,-0.0271 -0.8359,-0.1205 -0.0214,-0.0075 -0.1547,-0.0819 -0.1671,-0.0494 -0.0188,0.049 0.1076,0.0788 0.1339,0.0889 0.2427,0.0933 0.5587,0.1285 0.8148,0.1285l0.3465 -0.0078 0.0125 0.0214c0.0245,0.0422 0.0641,0.0972 0.095,0.1342l0.0214 0.0256 -0.0171 0.0291c-0.0205,0.035 -0.1352,0.1493 -0.1314,0.1879 0.0028,0.0027 0.0111,0.0029 0.0145,0.0036 0.0275,0.0054 0.0673,-0.0594 0.0833,-0.0779z"/>
   <path class="fil4" d="M1.0256 3.2766c0.0092,0.0182 -0.0064,0.0178 0.0543,0.0201 0.0188,0.0007 0.0459,-0.0013 0.066,-0.0014l2.0624 0.0002 -0.0004 -1.1509 -1.4145 0c-0.1243,-0.0021 -0.2502,0.0881 -0.3136,0.1487 -0.0762,0.0727 -0.1172,0.1815 -0.1719,0.3069 -0.0953,0.2187 -0.1939,0.4527 -0.2823,0.6764z"/>
   <path class="fil4" d="M1.6916 4.7718c-0.0068,-0.147 -0.0279,-0.3274 -0.1323,-0.3849 -0.1102,-0.0608 -0.2162,-0.1092 -0.3252,-0.1711 -0.1087,-0.0617 -0.2096,-0.1225 -0.3139,-0.1842 -0.0497,-0.0293 -0.1008,-0.0606 -0.1501,-0.0934 -0.0466,-0.031 -0.1127,-0.0882 -0.1483,-0.1004 -0.0833,0.0715 -0.1691,0.2364 -0.1824,0.4174 -0.0166,0.2259 0.0796,0.3131 0.2338,0.3749 0.2862,0.1148 0.6975,0.1352 1.0184,0.1417z"/>
   <path class="fil4" d="M3.1807 4.9488l-0.0014 -0.4335 -0.9752 0.0001c0.01,0.0798 0.0538,0.2098 0.076,0.2905 0.0392,0.1425 0.0636,0.1436 0.2124,0.1429 0.2293,-0.0011 0.4589,-0.0006 0.6882,0z"/>
   <path class="fil5" d="M4.117 2.6764c-0.025,-0.2147 0.1215,-0.3809 0.2972,-0.3992 0.4753,-0.0498 0.5108,0.6601 0.0786,0.7047 -0.1873,0.0193 -0.3553,-0.1295 -0.3758,-0.3055zm0.2295 -0.5402c-0.2287,0.0513 -0.4437,0.2987 -0.3659,0.612 0.1575,0.635 1.093,0.4325 0.9528,-0.2364 -0.0542,-0.2586 -0.2968,-0.4407 -0.5869,-0.3756z"/>
   <polygon class="fil4" points="2.2507,5.7998 3.1807,5.8 3.1819,5.5622 2.3437,5.5659 "/>
   <path class="fil5" d="M5.2408 5.5466c0.0723,0.0512 0.5317,0.0258 0.666,0.0258 0.1397,0 0.5747,0.0317 0.6584,-0.0265l-0.0033 -0.0966c-0.0792,-0.0601 -0.5255,-0.0281 -0.6658,-0.0281 -0.1329,0 -0.5838,-0.0253 -0.6593,0.0269l0.004 0.0985z"/>
   <path class="fil5" d="M5.2424 2.6798c0.079,0.0533 0.8687,0.028 1.0712,0.028 0.0525,0 0.1336,0.0056 0.1827,-0.0008 0.0579,-0.0075 0.1002,-0.0635 0.0582,-0.1231 -0.0405,-0.0575 -0.888,-0.0288 -1.0651,-0.0288 -0.1211,0 -0.2841,-0.0468 -0.247,0.1247z"/>
   <path class="fil5" d="M5.2419 4.1127c0.0274,0.0162 0.0419,0.0249 0.087,0.0249 0.182,0 1.1203,0.0185 1.2223,-0.015 0.0342,-0.0807 0.0175,-0.1378 -0.0771,-0.1378l-1.1452 0c-0.0852,0 -0.1051,0.0379 -0.087,0.1279z"/>
   <path class="fil0" d="M5.2689 0.548c-0.2574,0.0654 -0.1778,0.4989 0.0858,0.4412 0.2443,-0.0535 0.1796,-0.5087 -0.0858,-0.4412z"/>
   <path class="fil3" d="M0.6407 3.2691c0.0558,-0.0979 0.0546,-0.2902 -0.0011,-0.3258 -0.0397,-0.0253 -0.2794,0.0059 -0.3251,0.0285 -0.0924,0.0454 -0.1013,0.2149 -0.026,0.2742 0.0528,0.0416 0.2724,0.0386 0.3522,0.0231z"/>
   <path class="fil1" d="M4.2407 4.0515c-0.0311,0.0644 0.019,0.1086 0.0507,0.1441 0.0318,0.0357 0.0612,0.112 0.1157,0.0755 0.0016,-0.001 0.2705,-0.3478 0.2666,-0.3852 -0.0181,-0.174 -0.257,0.2402 -0.2974,0.2686 -0.0501,-0.0394 -0.0583,-0.1281 -0.1356,-0.103z"/>
   <path class="fil1" d="M4.2362 5.4768c-0.0154,0.0719 0.0294,0.1008 0.0631,0.1458 0.1032,0.138 0.0738,0.1183 0.2126,-0.0623 0.0285,-0.0371 0.1752,-0.2216 0.1624,-0.262 -0.0325,-0.1027 -0.1457,0.0857 -0.2039,0.1636 -0.0283,0.0379 -0.0577,0.0874 -0.0914,0.118 -0.0811,-0.0834 -0.0604,-0.1288 -0.1428,-0.1031z"/>
   <path class="fil1" d="M4.2294 2.6278c-0.0032,0.0568 0.0162,0.069 0.039,0.0996 0.1398,0.1872 0.094,0.1639 0.3111,-0.1253 0.0247,-0.0328 0.0287,-0.0454 0.0582,-0.0818 0.0211,-0.026 0.0389,-0.0402 0.0348,-0.0903 -0.0439,-0.0346 -0.0526,-0.0318 -0.0885,0.0149 -0.052,0.0675 -0.1645,0.2377 -0.2077,0.2722 -0.0429,-0.0392 -0.0769,-0.1432 -0.1469,-0.0893z"/>
   <path class="fil5" d="M4.117 4.1322c-0.025,-0.2147 0.1215,-0.3809 0.2972,-0.3992 0.4753,-0.0498 0.5108,0.6601 0.0786,0.7047 -0.1873,0.0193 -0.3553,-0.1295 -0.3758,-0.3055zm0.2295 -0.5402c-0.2287,0.0513 -0.4437,0.2987 -0.3659,0.612 0.1575,0.635 1.093,0.4325 0.9528,-0.2364 -0.0542,-0.2586 -0.2968,-0.4407 -0.5869,-0.3756z"/>
   <path class="fil5" d="M4.117 5.5207c-0.025,-0.2147 0.1215,-0.3809 0.2972,-0.3992 0.4753,-0.0498 0.5108,0.6601 0.0786,0.7047 -0.1873,0.0193 -0.3553,-0.1295 -0.3758,-0.3055zm0.2295 -0.5402c-0.2287,0.0513 -0.4437,0.2987 -0.3659,0.612 0.1575,0.635 1.093,0.4325 0.9528,-0.2364 -0.0542,-0.2586 -0.2968,-0.4407 -0.5869,-0.3756z"/>
  </g>
 </g>
</svg>
