<?xml version="1.0" encoding="UTF-8"?>
<!DOCTYPE svg PUBLIC "-//W3C//DTD SVG 1.1//EN" "http://www.w3.org/Graphics/SVG/1.1/DTD/svg11.dtd">
<!-- Creator: CorelDRAW 2019 (64-Bit) -->
<svg xmlns="http://www.w3.org/2000/svg" xml:space="preserve" width="88px" height="93px" version="1.1" style="shape-rendering:geometricPrecision; text-rendering:geometricPrecision; image-rendering:optimizeQuality; fill-rule:evenodd; clip-rule:evenodd"
viewBox="0 0 8800 9300"
 xmlns:xlink="http://www.w3.org/1999/xlink"
 xmlns:xodm="http://www.corel.com/coreldraw/odm/2003">
 <defs>
  <style type="text/css">
   <![CDATA[
    .str1 {stroke:#4788C7;stroke-width:125;stroke-miterlimit:22.9256}
    .str4 {stroke:#045395;stroke-width:236;stroke-miterlimit:22.9256}
    .str0 {stroke:#4788C7;stroke-width:236;stroke-miterlimit:22.9256}
    .str3 {stroke:#045395;stroke-width:90;stroke-miterlimit:22.9256}
    .str2 {stroke:#4788C7;stroke-width:90;stroke-miterlimit:22.9256}
    .fil2 {fill:none}
    .fil3 {fill:#045395}
    .fil4 {fill:#4788C7}
    .fil1 {fill:#98CBFC}
    .fil0 {fill:#DEEFFD}
   ]]>
  </style>
 </defs>
 <g id="Слой_x0020_1">
  <metadata id="CorelCorpID_0Corel-Layer"/>
  <g id="_2726560568048">
   <rect class="fil0 str0" x="268" y="6749" width="7327" height="2373" rx="378" ry="378"/>
   <rect class="fil1 str0" x="799" y="7118" width="2926" height="795" rx="151" ry="127"/>
   <ellipse class="fil1 str0" cx="5591" cy="7781" rx="512" ry="520"/>
   <ellipse class="fil1 str0" cx="6821" cy="7591" rx="275" ry="280"/>
   <rect class="fil1 str1" x="684" y="8294" width="1080" height="255" rx="56" ry="41"/>
   <rect class="fil1 str1" x="2737" y="8294" width="1080" height="255" rx="56" ry="41"/>
   <line class="fil2 str1" x1="1012" y1="8826" x2="3058" y2= "8826" />
   <line class="fil2 str1" x1="4950" y1="8826" x2="6997" y2= "8826" />
   <line class="fil2 str2" x1="1224" y1="8288" x2="1224" y2= "8510" />
   <line class="fil2 str2" x1="3278" y1="8293" x2="3278" y2= "8515" />
   <g>
    <path class="fil3 str3" d="M545 1734c202,0 366,163 366,365 0,201 -164,365 -366,365 -201,0 -365,-164 -365,-365 0,-202 164,-365 365,-365z"/>
    <path class="fil3 str3" d="M1869 3017c202,0 365,163 365,365 0,201 -163,365 -365,365 -202,0 -365,-164 -365,-365 0,-202 163,-365 365,-365z"/>
    <path class="fil3 str3" d="M2531 1491c202,0 366,164 366,365 0,202 -164,366 -366,366 -201,0 -365,-164 -365,-366 0,-201 164,-365 365,-365z"/>
    <path class="fil3 str3" d="M3563 2676c201,0 365,163 365,365 0,201 -164,365 -365,365 -202,0 -365,-164 -365,-365 0,-202 163,-365 365,-365z"/>
    <path class="fil3 str3" d="M4100 4816c202,0 366,163 366,365 0,202 -164,365 -366,365 -201,0 -365,-163 -365,-365 0,-202 164,-365 365,-365z"/>
    <path class="fil3 str3" d="M951 4462c202,0 365,164 365,365 0,202 -163,365 -365,365 -201,0 -365,-163 -365,-365 0,-201 164,-365 365,-365z"/>
    <polyline class="fil2 str4" points="545,2464 525,3397 1605,4198 1625,6409 "/>
    <line class="fil2 str4" x1="994" y1="5101" x2="994" y2= "6409" />
    <line class="fil2 str4" x1="2019" y1="3661" x2="2019" y2= "6409" />
    <line class="fil2 str4" x1="2526" y1="2170" x2="2526" y2= "6409" />
    <polyline class="fil2 str4" points="3561,3357 3561,4779 2993,5522 2989,6409 "/>
    <polyline class="fil2 str4" points="3872,5466 3580,5778 3578,6409 "/>
   </g>
   <g>
    <path class="fil1" d="M5651 3154c397,23 768,-258 845,-648 27,-139 17,-314 -27,-432 -32,-85 -52,-125 -100,-198l-43 -58c-125,-146 -334,-277 -531,-288 -164,-9 -263,-9 -421,60 -141,61 -244,147 -333,265 -63,82 -107,177 -134,280 -28,108 -32,247 -12,357 10,52 27,108 45,151 27,60 35,79 68,132 55,88 132,170 218,230l97 59c21,12 48,23 71,32 23,10 50,19 77,27 45,13 123,28 180,31zm1208 -424c19,11 41,31 59,46l90 74c11,9 18,16 29,24 22,18 40,34 61,50l-72 133c-11,24 -24,44 -36,67 -12,24 -26,41 -34,69 -22,-1 -57,-15 -74,-21 -25,-9 -49,-17 -75,-25 -52,-16 -100,-36 -150,-50 -12,38 -172,189 -205,204l24 75c8,26 15,48 23,75 16,50 27,102 46,150 -15,3 -52,26 -68,35l-136 72c-20,12 -46,26 -68,36 -33,-56 -176,-205 -184,-244 -14,0 -189,46 -254,48 -2,34 -62,238 -72,273l-307 -18c0,-15 -2,-17 -3,-31 -1,-53 2,-115 -2,-168l-2 -70c-49,-6 -102,-24 -144,-37 -76,-24 -62,-31 -111,22l-149 161c-7,8 -14,14 -23,20 -88,-53 -172,-108 -260,-160l118 -289c-48,-36 -95,-106 -134,-135 -50,9 -166,53 -220,71 -22,7 -53,19 -75,23 -32,-69 -77,-133 -112,-201 -13,-24 -24,-42 -36,-67l235 -194c-2,-13 -8,-27 -12,-43 -11,-42 -33,-101 -34,-144 -13,-1 -279,-46 -296,-53 -14,-7 -8,-8 -8,-30l-3 -155c-1,-15 2,-29 1,-43 0,-27 -1,-51 1,-84 42,1 80,-14 119,-20 39,-6 78,-14 118,-22 93,-18 50,-3 89,-134 25,-86 26,-58 -37,-112 -35,-29 -149,-127 -181,-146l107 -202c13,-26 28,-42 36,-72 64,19 246,89 294,96 31,-52 150,-171 205,-204 -1,-30 -34,-116 -44,-148 -14,-47 -37,-101 -45,-147l203 -110c19,-10 51,-33 74,-33 3,16 9,16 19,28l161 207c58,-24 135,-40 198,-50 28,-4 51,4 59,-27l53 -211c4,-16 7,-64 27,-63l298 17c-2,58 29,228 31,301 94,13 126,41 186,59 22,-13 35,-35 53,-53l54 -57c35,-36 74,-72 104,-112 43,26 84,55 129,81 36,21 95,69 130,79 -1,16 -94,253 -113,284 26,20 123,113 129,140 45,2 262,-91 291,-90 14,1 35,50 42,63 36,60 87,146 114,206l-204 163c-10,10 -15,19 -30,22l26 93c5,19 21,76 20,99 22,6 46,9 73,14 39,7 194,32 219,41 16,7 13,4 12,27l-1 80c-1,21 2,20 2,40 0,55 3,108 0,162 -15,3 -292,48 -300,61l-29 126c-6,22 -13,37 -19,58z"/>
    <path class="fil4" d="M7198 4896c136,8 187,1 302,-53 82,-38 186,-135 226,-218 73,-151 88,-290 29,-451 -11,-29 -26,-55 -41,-80 -75,-129 -234,-242 -386,-251l-70 -4c-137,-7 -279,68 -352,133 -89,79 -165,215 -172,339 -6,111 -5,154 34,257 63,167 249,318 430,328zm843 -269c-1,7 134,116 155,132l-48 91c-18,32 -32,63 -50,93l-195 -64c-9,12 -19,24 -30,36 -28,32 -95,88 -105,102 4,24 53,162 59,197 -59,27 -127,70 -181,95 -9,-14 -20,-23 -31,-39l-97 -122c-13,-1 -113,29 -164,30 -3,16 -8,29 -13,47 -3,13 -7,29 -12,47 -9,33 -18,88 -34,88l-197 -12c4,-68 -6,-127 -3,-180 -48,-3 -122,-38 -139,-39l-106 110c-13,14 -25,25 -34,41 -25,-7 -154,-92 -179,-107l57 -146c6,-17 14,-30 20,-48 -17,-13 -30,-27 -45,-43 -51,-57 -22,-56 -141,-16 -130,43 -79,61 -175,-102 -8,-14 -17,-30 -24,-45l157 -128c-4,-25 -14,-46 -20,-74 -3,-12 -5,-28 -8,-38 -6,-18 -12,-16 -34,-20 -34,-6 -154,-24 -175,-36 13,-225 -30,-197 49,-211 19,-3 31,-5 50,-9 37,-7 68,-13 104,-19 3,-56 25,-94 29,-126l-116 -96c-15,-12 -30,-20 -39,-36l94 -179c65,19 129,44 194,63 29,-38 104,-116 140,-137 -12,-29 -21,-65 -31,-97 -7,-21 -28,-81 -28,-100 14,-8 26,-15 41,-23l135 -72c15,10 82,95 96,114 11,15 24,29 32,42 56,-23 104,-25 153,-34 17,-3 11,4 17,-13l46 -187 210 12c-2,41 18,159 20,204 35,2 102,25 125,38l86 -91c15,-16 35,-44 54,-56 14,5 30,17 43,25 15,9 26,17 44,27 17,10 26,17 44,28 17,9 28,18 44,27l-77 189c23,18 73,69 87,93 15,-2 34,-10 49,-15 15,-5 31,-10 48,-16l100 -32 49 90c17,30 37,60 51,91l-40 30c-14,11 -23,22 -38,33 -29,20 -48,42 -78,61l27 112c7,29 45,23 117,38 23,5 63,13 88,17l1 153c2,17 2,30 1,54l-159 28c-45,8 -40,-1 -49,47 -5,25 -20,60 -21,83z"/>
    <path class="fil3" d="M5560 5622c-8,130 21,226 99,320 0,1 1,2 2,2 157,184 430,205 616,39 286,-255 111,-728 -264,-749 -232,-13 -441,172 -453,388zm1170 238c-55,-3 -97,3 -154,0 -8,27 -28,73 -41,95l103 112c-10,18 -81,113 -94,121l-137 -69c-17,23 -94,74 -119,86l23 155c-12,4 -24,8 -36,12l-109 37c-8,-7 -72,-118 -75,-136 -38,1 -69,9 -129,6 -8,16 -53,113 -55,129 -22,-2 -144,-29 -157,-36 2,-14 17,-124 21,-131l-99 -45c-11,0 -53,38 -64,45 -21,14 -43,37 -64,49 -18,-17 -105,-95 -118,-99l83 -136c-11,-18 -38,-44 -53,-78 -25,-1 -130,24 -160,22 -7,-40 -48,-118 -49,-148 17,-3 96,-55 132,-72 -1,-35 -10,-52 -8,-97l-146 -52c3,-57 15,-107 22,-157 55,3 99,-4 154,-1 4,-32 28,-62 36,-90l-100 -115 46 -62c16,-22 30,-41 45,-61 22,6 115,56 137,69 19,-11 65,-60 119,-85 3,-49 -20,-102 -17,-151 0,-9 142,-53 148,-53l34 65c13,24 25,45 38,67 147,-26 111,29 157,-76 10,-23 20,-52 31,-72 39,2 110,24 153,30l-9 154c27,15 36,12 90,45l120 -95 117 104c-6,19 -24,42 -37,65 -15,25 -27,44 -41,67 13,9 49,60 53,77 35,2 114,-21 155,-22l53 149c-25,5 -106,66 -131,71 5,33 9,63 7,102 33,3 117,44 147,48 -3,57 -20,112 -22,157z"/>
    <path class="fil1" d="M6034 2375c4,-75 7,-116 -25,-186 -8,-18 -17,-35 -28,-50 -226,-330 -733,-72 -601,304 35,99 113,172 212,206 25,9 41,10 71,16 71,14 161,-16 223,-54 65,-40 142,-139 148,-236zm-343 535c-104,-6 -181,-19 -267,-69 -119,-68 -212,-163 -264,-290 -67,-161 -56,-357 30,-510 98,-174 308,-308 510,-296 110,6 181,15 282,73 32,18 54,31 83,55 29,23 47,42 71,69 88,98 154,253 146,394 -6,109 -20,176 -69,268 -98,183 -314,318 -522,306z"/>
    <path class="fil4" d="M7239 4556l22 1c92,5 190,-82 195,-174 2,-41 3,-59 -12,-98 -24,-62 -86,-119 -156,-123 -63,-3 -109,0 -160,45 -129,113 -63,339 111,349zm14 146c-148,-9 -257,-86 -309,-207 -42,-96 -37,-213 15,-304 59,-102 178,-183 293,-176 74,4 109,6 175,44 209,119 234,402 61,556 -51,45 -141,92 -235,87z"/>
    <path class="fil3" d="M5980 5818c66,3 121,-35 149,-86 48,-88 -1,-223 -140,-231 -78,-4 -153,60 -158,150 -5,88 61,162 149,167zm6 114c-90,-5 -134,-26 -199,-87 -8,-7 -22,-26 -28,-35 -9,-13 -13,-24 -20,-40 -63,-146 6,-306 144,-364 74,-31 168,-24 238,15 100,55 146,153 139,267 -8,133 -141,252 -274,244z"/>
    <path class="fil1" d="M5991 414l-35 -2 -4 62c-26,-8 -180,-111 -187,-121l153 -57c14,-5 40,-17 54,-19 -1,25 -6,36 -8,65 22,2 19,5 39,7 -5,10 -11,50 -12,65z"/>
    <path class="fil4" d="M7598 5764c-2,26 6,40 5,66 -34,-10 -66,-22 -101,-35 -18,-6 -33,-11 -50,-17 -16,-6 -34,-14 -52,-16 12,-16 68,-49 89,-64 21,-14 73,-54 94,-58 -1,23 2,39 5,57 18,0 12,-3 31,-2 0,20 7,43 10,62 -9,4 -21,5 -31,7z"/>
    <path class="fil3" d="M4926 6238c5,-6 138,-106 156,-110 1,27 11,75 16,102 4,22 18,87 16,106l-167 -84c-16,-8 -12,-1 -21,-14z"/>
    <path class="fil1" d="M7661 2463c-69,-4 -57,10 -53,-74l71 4c-3,48 2,71 -18,70z"/>
    <path class="fil1" d="M7448 1571c-4,-25 -19,-39 -23,-63 24,-5 39,-19 63,-23 7,15 22,44 23,63 -16,7 -45,22 -63,23z"/>
    <path class="fil1" d="M7629 2329l-22 -1 0 -66 70 -1c-1,28 2,37 1,66 -22,-1 -24,3 -49,2z"/>
    <path class="fil1" d="M6117 444c-21,-7 -45,-11 -65,-17 1,-18 8,-51 12,-66 27,2 39,11 65,13 -1,31 -9,44 -12,70z"/>
    <path class="fil1" d="M6710 697c-19,-11 -37,-22 -56,-34 4,-28 22,-32 30,-60 20,6 42,24 60,34 -7,22 -28,39 -34,60z"/>
    <path class="fil1" d="M7667 2124c0,23 7,46 5,71 -74,-4 -66,28 -71,-29 -4,-49 -2,-30 66,-42z"/>
    <path class="fil1" d="M7498 1692c-4,-10 -7,-21 -11,-31 -5,-12 -9,-18 -12,-32l63 -23c6,13 22,52 23,68 -24,4 -41,14 -63,18z"/>
    <path class="fil1" d="M6815 769c-19,-12 -37,-25 -55,-38 13,-21 27,-35 39,-55 19,11 37,25 55,38 -5,15 -29,42 -39,55z"/>
    <path class="fil1" d="M7540 1818c-7,-14 -18,-49 -19,-67 24,-4 41,-15 63,-19 4,21 14,43 18,67 -19,8 -44,11 -62,19z"/>
    <path class="fil1" d="M7591 2072c-3,-18 -10,-49 -9,-67 12,-5 48,-11 66,-10 1,25 11,42 10,67 -14,0 -58,6 -67,10z"/>
    <path class="fil1" d="M7182 1129c-4,-22 -26,-33 -36,-51 9,-12 35,-38 50,-41 16,12 37,34 41,55 -34,20 -30,25 -55,37z"/>
    <path class="fil1" d="M7568 1943c-4,-24 -10,-44 -14,-67 20,-1 47,-11 67,-14 4,23 9,43 13,67 -19,3 -46,13 -66,14z"/>
    <path class="fil1" d="M6483 570c-18,-6 -44,-17 -60,-26 3,-17 18,-51 26,-64 19,11 41,19 60,30 -7,23 -19,39 -26,60z"/>
    <path class="fil1" d="M6242 477c-17,-5 -47,-16 -65,-17 2,-18 12,-48 17,-65 15,1 56,12 65,17 -2,25 -13,41 -17,65z"/>
    <path class="fil1" d="M7393 1453c-5,-22 -23,-39 -28,-59 26,-5 35,-26 64,-27l27 59c-18,8 -43,23 -63,27z"/>
    <path class="fil1" d="M6917 850c-18,-13 -32,-27 -51,-38 5,-15 31,-48 43,-55 13,10 42,30 50,42 -7,9 -12,16 -20,25 -8,10 -16,16 -22,26z"/>
    <path class="fil1" d="M6363 519c-20,-6 -40,-15 -60,-21 2,-28 15,-39 17,-65 23,3 45,18 69,21l-26 65z"/>
    <path class="fil1" d="M7013 934c-16,-5 -13,-9 -24,-20 -9,-9 -16,-11 -22,-22 7,-22 31,-28 38,-51 18,6 39,36 55,47 -7,9 -39,41 -47,46z"/>
    <path class="fil1" d="M6599 629l-60 -30c4,-14 22,-47 30,-60 14,5 47,23 60,30l-30 60z"/>
    <path class="fil1" d="M7329 1339c-4,-19 -23,-32 -28,-54l55 -37c12,21 24,40 36,60 -27,12 -41,31 -63,31z"/>
    <path class="fil1" d="M7265 1230c-13,-9 -30,-35 -37,-50 6,-9 43,-39 55,-41 4,19 23,29 36,59 -23,5 -31,27 -54,32z"/>
    <path class="fil1" d="M7100 1027l-42 -45 48 -46 46 49c-8,11 -14,14 -23,23 -11,10 -14,16 -29,19z"/>
    <path class="fil3" d="M4833 5788c1,-23 -5,-45 -5,-66 60,3 76,-27 71,61 -21,4 -40,6 -66,5z"/>
    <path class="fil4" d="M8481 5088c-21,-3 -35,-18 -60,-26 5,-8 8,-17 13,-27 6,-11 10,-18 12,-33 75,22 69,30 35,86z"/>
    <path class="fil4" d="M8513 4830c2,-27 10,-42 13,-65 81,11 63,21 58,46 -12,61 -13,24 -71,19z"/>
    <path class="fil3" d="M4929 5415c-22,-3 -42,-14 -65,-17 5,-17 15,-47 17,-65 26,2 36,15 65,17 -2,23 -14,40 -17,65z"/>
    <path class="fil3" d="M5093 5081c-15,-5 -42,-29 -55,-38 6,-9 12,-15 20,-25 8,-11 14,-14 18,-26 19,3 17,8 30,19 8,8 19,15 25,24l-38 46z"/>
    <path class="fil4" d="M8341 5309c-15,-5 -42,-29 -55,-39 13,-17 26,-30 38,-50 19,6 34,27 55,34 -5,14 -28,42 -38,55z"/>
    <path class="fil3" d="M4897 6047c-3,-10 -7,-22 -11,-32 -4,-11 -7,-19 -7,-35 24,-4 36,-15 63,-14 3,17 12,43 18,58 -20,8 -43,14 -63,23z"/>
    <path class="fil4" d="M8155 5497c-19,-14 -30,-32 -42,-51l45 -39c19,15 36,29 47,48l-50 42z"/>
    <path class="fil3" d="M4869 5530l-30 -1 8 -70c23,2 41,11 65,12 -1,19 -3,33 -6,49 -7,29 -9,12 -37,10z"/>
    <path class="fil4" d="M8048 5578c-11,-20 -26,-38 -36,-59 18,-4 29,-20 50,-32 15,10 34,38 41,55 -22,10 -35,25 -55,36z"/>
    <path class="fil4" d="M7935 5642c-9,-14 -25,-41 -28,-59 22,-9 45,-25 59,-27 5,22 23,39 28,59 -24,5 -34,23 -59,27z"/>
    <path class="fil3" d="M4854 5657c-14,-1 -27,10 -26,-10l3 -57 66 4 -4 65 -39 -2z"/>
    <path class="fil4" d="M8536 4968c-24,-2 -43,-15 -65,-21 6,-10 20,-48 21,-61 10,1 58,18 65,21 -6,12 -16,46 -21,61z"/>
    <path class="fil3" d="M4966 5298c-15,-8 -41,-20 -60,-25 7,-13 21,-46 26,-60 17,1 47,18 60,25 -2,14 -20,50 -26,60z"/>
    <path class="fil4" d="M8603 4716c-28,-1 -36,-6 -65,-8l8 -65 65 8c-1,29 -6,40 -8,65z"/>
    <path class="fil3" d="M5172 4988c-12,-9 -36,-32 -45,-46l46 -42c15,6 38,33 46,47l-47 41z"/>
    <path class="fil4" d="M8549 4581l4 -66 66 4 -3 53c-1,17 -2,1 4,13l-71 -4z"/>
    <path class="fil3" d="M5026 5183c-19,-3 -46,-21 -60,-30 11,-19 23,-37 34,-55 21,6 30,22 55,29 -2,15 -22,43 -29,56z"/>
    <path class="fil3" d="M4952 6164c-8,-19 -18,-38 -27,-58 20,-10 38,-18 59,-28 7,15 24,44 27,59 -17,8 -41,24 -59,27z"/>
    <path class="fil4" d="M8417 5203c-25,-7 -30,-22 -55,-29 4,-29 22,-33 30,-60l54 31c-2,16 -20,44 -29,58z"/>
    <path class="fil4" d="M7692 5743c-4,-23 -15,-43 -14,-67 23,-1 35,-10 58,-14 6,13 18,45 18,62 -21,4 -39,15 -62,19z"/>
    <path class="fil4" d="M8252 5409l-46 -46c6,-8 12,-13 19,-21 9,-10 14,-12 19,-26 11,4 19,13 28,21 11,10 15,14 26,22 -13,18 -34,34 -46,50z"/>
    <path class="fil3" d="M4856 5922c-2,-73 -34,-66 15,-73 64,-10 29,-2 52,54l-67 19z"/>
    <path class="fil4" d="M7813 5697c-4,-21 -15,-39 -19,-58l58 -25 25 59c-16,8 -46,23 -64,24z"/>
    <path class="fil4" d="M8552 4458l0 -9c24,-4 38,-2 66,0 -11,13 -7,7 -31,7 -20,-1 -15,3 -35,2z"/>
   </g>
  </g>
 </g>
 <g id="Слой_x0020_1_0">
  <metadata id="CorelCorpID_1Corel-Layer"/>
 </g>
 <g id="Слой_x0020_1_1">
  <metadata id="CorelCorpID_2Corel-Layer"/>
 </g>
 <g id="Слой_x0020_1_2">
  <metadata id="CorelCorpID_3Corel-Layer"/>
 </g>
 <g id="Слой_x0020_1_3">
  <metadata id="CorelCorpID_4Corel-Layer"/>
 </g>
 <g id="Слой_x0020_1_4">
  <metadata id="CorelCorpID_5Corel-Layer"/>
 </g>
 <g id="Слой_x0020_1_5">
  <metadata id="CorelCorpID_6Corel-Layer"/>
 </g>
 <g id="Слой_x0020_1_6">
  <metadata id="CorelCorpID_7Corel-Layer"/>
 </g>
 <g id="Слой_x0020_1_7">
  <metadata id="CorelCorpID_8Corel-Layer"/>
 </g>
 <g id="Слой_x0020_1_8">
  <metadata id="CorelCorpID_9Corel-Layer"/>
 </g>
 <g id="Слой_x0020_1_9">
  <metadata id="CorelCorpID_10Corel-Layer"/>
 </g>
 <g id="Слой_x0020_1_10">
  <metadata id="CorelCorpID_11Corel-Layer"/>
 </g>
 <g id="Слой_x0020_1_11">
  <metadata id="CorelCorpID_12Corel-Layer"/>
 </g>
</svg>
