<?xml version="1.0" encoding="UTF-8"?>
<!DOCTYPE svg PUBLIC "-//W3C//DTD SVG 1.1//EN" "http://www.w3.org/Graphics/SVG/1.1/DTD/svg11.dtd">
<!-- Creator: CorelDRAW 2019 (64-Bit) -->
<svg xmlns="http://www.w3.org/2000/svg" xml:space="preserve" width="9.0592mm" height="7.9586mm" version="1.1" style="shape-rendering:geometricPrecision; text-rendering:geometricPrecision; image-rendering:optimizeQuality; fill-rule:evenodd; clip-rule:evenodd"
viewBox="0 0 9.0592 7.9586"
 xmlns:xlink="http://www.w3.org/1999/xlink"
 xmlns:xodm="http://www.corel.com/coreldraw/odm/2003">
 <defs>
  <style type="text/css">
   <![CDATA[
    .fil1 {fill:#98CBFC}
    .fil0 {fill:#DEEFFD}
   ]]>
  </style>
 </defs>
 <g id="Слой_x0020_1">
  <metadata id="CorelCorpID_0Corel-Layer"/>
  <g id="_2609863262432">
   <path class="fil0" d="M3.769 5.7654l0.0329 0.0446c0.0676,0.098 0.1653,0.237 0.2017,0.3449 0.0368,0.0701 0.1451,0.3542 -0.0398,0.3045 -0.0825,-0.0222 -0.2625,-0.1335 -0.3129,-0.1799 -0.0281,-0.0104 -0.0486,-0.0305 -0.0707,-0.0471l-0.2231 -0.1554c-0.0583,0.0282 -0.0959,0.0523 -0.1512,0.0848 -0.0471,0.0277 -0.1023,0.0538 -0.1399,0.0926l0.0043 0.0228c0.016,0.0088 0.0329,0.0222 0.0517,0.0367 0.0241,0.0186 0.028,0.0215 0.053,0.039 0.0314,0.0218 0.0819,0.0529 0.1069,0.0755 0.041,0.0198 0.0751,0.0501 0.1176,0.076 0.2333,0.1428 0.7947,0.4656 1.0389,0.3289 0.0408,-0.0228 0.1027,-0.1137 0.1296,-0.1547 0.1665,-0.2536 0.1663,-0.6635 0.1191,-0.9589 -0.056,-0.3506 -0.1955,-0.6609 -0.3833,-0.948 -0.0387,-0.0591 -0.213,-0.271 -0.2605,-0.3087 -0.0283,-0.0225 -0.0254,-0.0262 -0.0486,-0.0517 -0.1174,-0.129 -0.4543,-0.3698 -0.6124,-0.4251 -0.0232,-0.0347 -0.3158,-0.1342 -0.3824,-0.1541 -0.4272,-0.1269 -0.9831,-0.1364 -1.3173,0.1285 -0.2656,0.2106 0.1415,0.899 0.3101,1.1553 0.0369,0.0561 0.0705,0.1074 0.1091,0.1588l0.1137 0.1478c0.0302,-0.0442 0.1615,-0.2777 0.171,-0.3234 -0.0182,-0.0352 -0.0312,-0.0511 -0.0536,-0.0805 -0.1131,-0.1492 -0.1702,-0.2165 -0.2711,-0.3903 -0.1637,-0.2819 0.0229,-0.27 0.2458,-0.1704 0.1349,0.0602 0.2282,0.1274 0.3414,0.2029l0.2557 0.1955c0.0124,0.0098 0.0189,0.0113 0.03,0.0209l0.1299 0.1128c0.023,0.0234 0.0287,0.0313 0.0503,0.05l0.2039 0.1979c0.1446,0.1468 0.3367,0.358 0.4502,0.5275z"/>
   <path class="fil0" d="M2.6321 5.5311c-0.0037,0.0347 -0.0403,0.0823 -0.0595,0.1144l-0.1947 0.3214c-0.0248,-0.0076 -0.0456,-0.0217 -0.0754,-0.0311 -0.0911,-0.0287 -0.1798,-0.0304 -0.2649,0.0114 -0.1326,0.0652 -0.1457,0.1416 -0.1854,0.2235 -0.0358,0.2276 0.0564,0.3889 0.2378,0.4374 0.1639,0.0439 0.3232,-0.0147 0.4085,-0.1572 0.0071,-0.0118 0.0095,-0.0177 0.014,-0.0277 0.0039,-0.0085 0.0027,-0.0097 0.0077,-0.0179 0.011,-0.018 -0.0017,-0.0016 0.0123,-0.0136l0.0109 -0.1125 -0.0169 -0.1179 -0.0131 -0.0658 0.4552 -0.2881c0.2209,-0.1431 0.3739,-0.1782 0.211,-0.3951 -0.0385,-0.0456 -0.2038,-0.2414 -0.325,-0.1873 -0.0759,0.0339 -0.1758,0.2782 -0.2225,0.3061z"/>
   <g>
    <path class="fil0" d="M6.8 6.659l-0.0391 -0.0328c-0.0235,-0.0238 -0.0876,-0.0807 -0.0998,-0.1061 -0.0251,-0.0134 -0.0866,-0.0737 -0.1004,-0.101 0.0346,-0.0221 0.201,-0.1968 0.2532,-0.2491l0.0844 -0.079c0.0325,0.0166 0.0196,0.0139 0.0516,0.0448 0.0729,0.0705 0.246,0.2529 0.2944,0.29l-0.3376 0.3449c-0.0198,-0.0149 -0.035,-0.0325 -0.0544,-0.0518 -0.0218,-0.0218 -0.0382,-0.0334 -0.0523,-0.0599zm-0.5023 -0.5023l-0.1273 -0.1206c-0.0139,-0.016 -0.0074,-0.0096 -0.0116,-0.0183 -0.0402,-0.0213 -0.0638,-0.0585 -0.0987,-0.0899 0.0146,-0.0305 0.1327,-0.1398 0.1643,-0.1716 0.0468,-0.0468 0.1382,-0.1508 0.1716,-0.1611 0.1339,0.113 0.2216,0.2169 0.3367,0.3209 -0.0126,0.0391 -0.1306,0.1451 -0.167,0.1815 -0.0344,0.0345 -0.1368,0.1451 -0.1684,0.163 -0.0198,-0.0143 -0.0329,-0.0297 -0.0514,-0.0482 -0.0214,-0.0213 -0.0343,-0.0296 -0.0482,-0.0557zm0.7764 -0.2341c0.0158,-0.0379 0.3102,-0.3235 0.3358,-0.3427l0.3419 0.348 -0.166 0.1685c-0.0537,0.0544 -0.1154,0.1119 -0.1711,0.1651l-0.3406 -0.3389zm-0.4164 -0.5919c0.0127,-0.0238 0.012,-0.0201 0.0319,-0.0387 0.0509,-0.0477 0.1792,-0.1941 0.2171,-0.2086 0.0293,0.0163 0.0659,0.0505 0.0903,0.0761l0.2473 0.2621c-0.0543,0.0416 -0.2831,0.2986 -0.3277,0.315 -0.0164,0.0115 0.0217,0.0072 -0.0193,0.0081l-0.3271 -0.3244c0.0105,-0.0215 0.0643,-0.0785 0.0875,-0.0896zm-0.9986 -0.0315c0.0498,-0.0792 0.1875,-0.1704 0.2144,-0.2187 0.0409,0.0199 0.3258,0.2936 0.3515,0.3367 -0.0211,0.0312 -0.2931,0.3103 -0.3409,0.3243 -0.0066,-0.0062 -0.0155,-0.0135 -0.0199,-0.0175l-0.0215 -0.0259c-0.0361,-0.0109 -0.0517,-0.043 -0.0769,-0.0692l-0.2198 -0.2178c0.0266,-0.0321 0.0788,-0.0898 0.1131,-0.1119zm0.6671 -0.6584c0.0174,-0.0362 0.0336,-0.0248 0.0584,-0.0707 0.0506,0.0186 0.1924,0.1789 0.2525,0.2378l0.0296 0.0339c0.0314,0.0166 0.0449,0.0399 0.0704,0.0648 -0.0317,0.0424 -0.083,0.0849 -0.1235,0.1254 -0.0377,0.0378 -0.0868,0.1 -0.1311,0.1235 -0.011,0.0231 -0.0658,0.0756 -0.0876,0.087l-0.2447 -0.2502 -0.0287 -0.0204c-0.0293,-0.0287 -0.0521,-0.0458 -0.0625,-0.0737 0.0242,-0.0338 0.2282,-0.2366 0.2672,-0.2574zm-3.6045 -2.0593c0.0198,-0.0539 0.2949,-0.328 0.327,-0.3453 0.0507,0.0562 0.309,0.3 0.3386,0.3438l-0.3399 0.3343 -0.2518 -0.2507c-0.0306,-0.0264 -0.0387,-0.0558 -0.0739,-0.0821zm-0.3296 -0.6937c0.0175,-0.0339 0.1099,-0.1224 0.1446,-0.1471 0.0368,0.0193 0.3192,0.2932 0.338,0.3279 -0.0181,0.0334 -0.1302,0.1374 -0.1654,0.1726 -0.047,0.047 -0.1249,0.1159 -0.1611,0.1639 -0.0342,-0.0166 -0.0607,-0.0524 -0.0861,-0.0777 -0.0146,-0.0146 -0.023,-0.0232 -0.0377,-0.0377 -0.0081,-0.0079 -0.014,-0.0125 -0.0212,-0.0208 -0.0139,-0.016 -0.0074,-0.0097 -0.0116,-0.0183 -0.0391,-0.0208 -0.0657,-0.0582 -0.0975,-0.09 -0.0308,-0.0307 -0.0652,-0.0597 -0.0895,-0.092 0.0344,-0.0356 0.1526,-0.1637 0.1875,-0.1808zm1.1595 -0.1659l0.3464 0.3467 -0.343 0.3365c-0.0378,-0.0501 -0.1204,-0.1232 -0.1695,-0.1723l-0.1256 -0.1256c-0.0247,-0.0244 -0.0255,-0.0196 -0.0408,-0.0487l0.3325 -0.3366zm-0.8345 -0.164c0.0495,-0.0594 0.1151,-0.1161 0.1688,-0.1698 0.0589,-0.0589 0.1009,-0.1091 0.1637,-0.1612 0.0601,0.0444 0.2736,0.2645 0.3372,0.331 -0.0099,0.0155 -0.298,0.3192 -0.3425,0.3365 -0.037,-0.049 -0.1172,-0.1199 -0.1653,-0.1681 -0.0414,-0.0413 -0.1362,-0.1246 -0.1619,-0.1684zm-0.691 -0.3298c0.0436,0.0281 0.3293,0.3024 0.3439,0.3382l-0.3356 0.3326 -0.3414 -0.341 0.3331 -0.3298zm0.1775 -0.1795c0.0116,-0.0202 0.06,-0.0677 0.0801,-0.0868l0.2528 -0.2466c0.0409,0.0254 0.3185,0.3011 0.3449,0.3404 -0.059,0.0568 -0.1105,0.1096 -0.1685,0.1678 -0.0371,0.0371 -0.1345,0.1425 -0.1678,0.1631l-0.3415 -0.3379zm1.3278 2.7312c0.0359,0.0004 0.23,0.0929 0.2444,0.1141 0.0435,0.015 0.1334,0.0737 0.1728,0.1029 0.0258,0.0191 0.0524,0.0357 0.078,0.0559 0.0168,0.0132 0.0285,0.0207 0.0381,0.029 0.0177,0.0153 0.0128,0.0129 0.032,0.0266 0.0208,0.015 0.0169,0.0157 0.0346,0.032l0.0702 0.0641c0.0105,0.0109 0.0195,0.0172 0.0307,0.0279 0.1464,0.1395 0.2388,0.2646 0.3379,0.4492 0.0358,0.0666 0.102,0.1933 0.1273,0.2668 0.0087,0.0254 0.0173,0.0705 0.0403,0.0831 0.023,-0.0385 0.5292,-0.5403 0.5555,-0.551l0.2472 0.2505c-0.0189,0.0274 -0.0619,0.0667 -0.0884,0.0939 -0.0814,0.0834 -0.3748,0.3729 -0.4316,0.4476 -0.0732,0.0963 -0.0768,0.152 -0.011,0.2516l0.1153 0.1352c0.0259,0.0302 0.0307,0.0332 0.0638,0.0615l0.2948 0.308c0.1616,0.1676 0.3238,0.3257 0.4887,0.4906 0.2095,0.2095 0.3997,0.405 0.6188,0.6038 0.0353,0.032 0.1011,0.1063 0.1599,0.1496 0.1551,0.1143 0.1322,0.1049 0.2894,0.0263 0.0503,-0.0456 0.1143,-0.0962 0.1564,-0.1435 0.052,-0.0583 0.099,-0.097 0.1521,-0.1498l0.7503 -0.7564c0.025,-0.0255 0.0519,-0.0465 0.0767,-0.0736 0.0334,-0.0365 0.049,-0.0681 0.0707,-0.0721 0.0193,-0.0329 0.0302,-0.0418 0.0527,-0.0724 0.0261,-0.0357 0.0209,-0.0566 0.0392,-0.0878l0 -0.0494c-0.0169,-0.0235 -0.0315,-0.0582 -0.0456,-0.0795l-0.0544 -0.0715c-0.0123,-0.0146 -0.0212,-0.0162 -0.0351,-0.0314 -0.0095,-0.0104 -0.0172,-0.0211 -0.0263,-0.0323 -0.0231,-0.0288 -0.0293,-0.039 -0.0616,-0.0643l-0.2459 -0.2564c-0.3116,-0.3249 -0.6837,-0.6773 -1.0032,-0.9975 -0.0441,-0.0443 -0.0858,-0.0776 -0.1292,-0.1219 -0.0238,-0.0242 -0.0335,-0.0427 -0.0598,-0.0655 -0.0228,-0.0198 -0.0512,-0.0364 -0.0697,-0.0563 -0.0165,-0.0177 -0.0107,-0.0189 -0.0317,-0.0348 -0.1194,-0.0902 -0.1371,-0.1307 -0.2877,-0.0683 -0.1249,0.0808 -0.3981,0.3943 -0.4612,0.429l-0.1867 -0.1867c-0.019,-0.0204 -0.0414,-0.0352 -0.0605,-0.0616 0.0425,-0.0645 0.1462,-0.152 0.174,-0.1904l0.1513 -0.2087c0.0269,-0.0576 0.0476,-0.1226 0.0511,-0.1953 0.0062,-0.1292 -0.0505,-0.0841 0.0278,-0.1945l0.0566 -0.0691c0.2194,-0.2904 0.1329,-0.7127 -0.1612,-0.9189 -0.0514,-0.036 -0.098,-0.0607 -0.1609,-0.0823 -0.4226,-0.1454 -0.6884,0.1756 -0.712,0.1843 -0.0577,0.0079 -0.1011,-0.0228 -0.1674,-0.0088l-0.0248 0.0027c-0.082,0.0115 -0.1493,0.0411 -0.2113,0.0802 -0.0255,0.0161 -0.0623,0.0418 -0.0827,0.0599l-0.2198 0.2067c-0.0281,0.0237 -0.1216,0.1248 -0.15,0.1377l-0.2437 -0.2518c0.0191,-0.0302 0.0583,-0.0658 0.0857,-0.0931l0.2613 -0.2578c0.0547,-0.0549 0.113,-0.1177 0.1635,-0.1797 0.0608,-0.0745 0.0957,-0.1544 0.0278,-0.2477l-0.1611 -0.1902c-0.0692,-0.064 -0.1073,-0.1113 -0.1688,-0.1745l-0.3424 -0.3451 -0.6361 -0.6354c-0.0356,-0.0356 -0.4491,-0.4348 -0.4916,-0.4624 -0.1201,-0.078 -0.2464,0.0085 -0.3206,0.0961l-0.1655 0.1531c-0.0287,0.0267 -0.0485,0.0571 -0.076,0.0828l-0.6329 0.6313c-0.0565,0.0555 -0.104,0.0949 -0.1578,0.1605 -0.0138,0.0168 -0.0242,0.0308 -0.039,0.0448 -0.1132,0.1082 -0.1992,0.2025 -0.0946,0.3429l0.3037 0.3321c0.0497,0.055 0.1047,0.1075 0.1578,0.1605l0.9512 0.9491c0.0483,0.0483 0.1243,0.1058 0.1634,0.1547 0.0357,0.0447 0.1149,0.1094 0.1619,0.1478 0.064,0.0524 0.1089,0.1074 0.2196,0.0683 0.0415,-0.0147 0.0677,-0.0399 0.0977,-0.0611l0.0835 -0.0755c0.0882,-0.0775 0.2794,-0.2919 0.3194,-0.3136 0.0916,0.0766 0.2014,0.2033 0.2538,0.2435 -0.014,0.0334 -0.0346,0.0445 -0.0572,0.0671 -0.0553,0.0553 -0.3616,0.347 -0.383,0.3927 0.0328,0.0068 0.0802,0.018 0.1011,0.0419z"/>
    <path class="fil1" d="M0.6364 6.4821l0 0.267c0.016,0.04 0.012,0.1068 0.0213,0.1534 0.0247,0.1249 0.0834,0.2737 0.1445,0.3748 0.042,0.0696 0.0955,0.1506 0.1482,0.195 0.0334,0.0281 0.0524,0.0556 0.0906,0.0856 0.2107,0.1651 0.4563,0.2535 0.7125,0.2703l0.1831 0c0.1125,-0.0072 0.2259,-0.0276 0.3384,-0.0608 0.0446,-0.3032 -0.0974,-0.0997 -0.5474,-0.1932 -0.2929,-0.0608 -0.5152,-0.2325 -0.6715,-0.4589 -0.2762,-0.4001 -0.1527,-0.6901 -0.2066,-0.9234 -0.2534,-0.0752 -0.1596,0.1719 -0.2131,0.2902z"/>
    <path class="fil1" d="M2.0996 7.2966c0.0124,-0.0156 0.1405,-0.0142 0.182,-0.0501 0.0519,-0.0449 0.027,-0.1314 -0.0264,-0.1495 -0.0911,-0.0309 -0.5523,0.0471 -0.7838,-0.3806 -0.029,-0.0536 -0.0533,-0.1076 -0.0637,-0.169 -0.0559,-0.2333 0.0193,-0.3686 -0.1021,-0.3932 -0.0641,-0.013 -0.0952,0.014 -0.11,0.0648 -0.0618,0.2113 -0.0382,0.5126 0.0792,0.7033 0.1133,0.1839 0.2748,0.3 0.493,0.3521 0.1264,0.0302 0.2205,0.0062 0.3318,0.0222z"/>
   </g>
  </g>
 </g>
</svg>
