<?xml version="1.0" encoding="UTF-8"?>
<!DOCTYPE svg PUBLIC "-//W3C//DTD SVG 1.1//EN" "http://www.w3.org/Graphics/SVG/1.1/DTD/svg11.dtd">
<!-- Creator: CorelDRAW 2019 (64-Bit) -->
<svg xmlns="http://www.w3.org/2000/svg" xml:space="preserve" width="7.4506mm" height="7.4506mm" version="1.1" style="shape-rendering:geometricPrecision; text-rendering:geometricPrecision; image-rendering:optimizeQuality; fill-rule:evenodd; clip-rule:evenodd"
viewBox="0 0 7.4506 7.4506"
 xmlns:xlink="http://www.w3.org/1999/xlink"
 xmlns:xodm="http://www.corel.com/coreldraw/odm/2003">
 <defs>
  <style type="text/css">
   <![CDATA[
    .str0 {stroke:#045395;stroke-width:0.0762;stroke-miterlimit:22.9256}
    .fil3 {fill:#045395}
    .fil0 {fill:#4788C7}
    .fil2 {fill:#98CBFC}
    .fil1 {fill:#DEEFFD}
   ]]>
  </style>
 </defs>
 <g id="Слой_x0020_1">
  <metadata id="CorelCorpID_0Corel-Layer"/>
  <g id="_2609893064848">
   <path class="fil0" d="M2.393 5.3008l1.2717 0.0009 -0.0002 0.1869 -0.0124 0.0006 -1.2472 0.0002 -0.0119 -0.0011 0 -0.1875zm1.3701 -0.8769l0.4063 0.0006 0 0.1963 -0.0125 0.0006 -0.3817 0.0001 -0.0121 -0.0008 0 -0.1968zm-1.3688 0.134l0 -0.0713c0.0065,-0.1185 0.0752,-0.2248 0.1317,-0.279 0.0631,-0.0604 0.1607,-0.1167 0.2831,-0.1305 0.0283,0.0001 0.0594,-0.0062 0.0875,-0.0005 0.055,-0.0008 0.1265,0.0236 0.1697,0.0431 0.0519,0.0235 0.0888,0.0535 0.1236,0.0848 0.0537,0.0483 0.1369,0.1696 0.1361,0.2821l0.0002 0.0713c-0.0007,0.1147 -0.0821,0.2339 -0.1362,0.2822 -0.0382,0.0342 -0.0693,0.0591 -0.1257,0.0858 -0.0369,0.0175 -0.1199,0.0446 -0.1674,0.0419 -0.0173,0.0047 -0.0545,0.0021 -0.0733,0.0008 -0.101,-0.0033 -0.2336,-0.063 -0.2941,-0.1289 -0.0198,-0.0216 -0.0324,-0.0332 -0.0502,-0.0571 -0.0462,-0.062 -0.0802,-0.142 -0.085,-0.2247zm1.9653 -0.4836l0.4057 0.0012 -0.0005 0.1963 -0.4062 -0.0001 0.001 -0.1974zm-0.5958 0.0001l0.4055 0.0004 -0.0008 0.197 -0.4054 -0.0003 0.0007 -0.1971zm-1.8149 0.6751c0.021,-0.0096 0.0295,-0.024 0.0714,-0.031 0.0806,-0.0135 0.1638,0.0384 0.1721,0.123 0.0036,0.0371 -0.0317,0.3074 -0.0385,0.3673 -0.0139,0.1225 -0.0273,0.2404 -0.0415,0.3631 -0.0094,0.0807 0.0073,0.0594 0.0302,0.1628 0.0124,0.0559 0.021,0.1254 0.0205,0.1856l0.2658 -0.0001 2.3543 0.0004c-0.011,-0.0187 -0.0271,-0.0352 -0.0416,-0.0535l-0.2979 -0.3773 -0.0828 -0.0002c-0.0051,-0.0156 -0.0063,-0.6954 -0.0016,-0.7527l0.2026 0.0003 0.0001 0.5143c0.0652,0.0258 0.0714,0.0446 0.1092,0.0923 0.0152,0.0191 0.0299,0.0375 0.045,0.0561 0.013,0.016 0.0329,0.0447 0.0472,0.0571l0.0013 -0.3443 0.2028 0.0013 -0.0013 0.3754 -0.1753 0.0018c0.0111,0.0199 0.2476,0.3107 0.259,0.3246 -0.004,-0.0467 -0.0087,-0.0617 0.0154,-0.1014 0.0476,-0.0783 0.174,-0.1097 0.2495,-0.0062 -0.0005,-0.0471 -0.0033,-0.0664 0.022,-0.1011 0.0166,-0.023 0.0409,-0.0451 0.0752,-0.0561l-0.0011 -1.745 -0.4812 0 -2.5001 0.0003 -0.4816 0.0006 0.0009 0.9426z"/>
   <path class="fil1" d="M4.5393 5.5293c-0.0566,-0.0402 -0.1531,-0.1477 -0.065,-0.2195 0.0846,-0.0689 0.1817,0.0796 0.197,0.1218 -0.0068,0.0078 -0.1231,0.0939 -0.132,0.0977zm-0.0956 -0.0395l0.2979 0.3773c0.0145,0.0183 0.0306,0.0348 0.0416,0.0535 0.0366,0.0313 0.4294,0.5661 0.438,0.5854 -0.0295,-0.0035 -0.0698,-0.0164 -0.1,-0.0238 -0.0938,-0.023 -0.2094,-0.0571 -0.2943,-0.0752 -0.1189,-0.0254 -0.3073,-0.0433 -0.3737,0.0818 0.0662,0.0106 0.1183,0.0335 0.177,0.0549 0.0457,0.0166 0.0754,0.0355 0.0911,0.0793 0.0022,0.0059 0.014,0.0504 0.0031,0.0444l0.2447 0.1215c0.0831,0.0401 0.1712,0.0757 0.2614,0.1081 0.0892,0.0321 0.1937,0.0618 0.2953,0.0743 0.0829,0.0102 0.1688,0.0097 0.2476,-0.0182 0.0236,-0.0083 0.0467,-0.0242 0.0635,-0.0299 0.0084,0.0073 0.02,0.0233 0.027,0.0317l0.1382 0.168c0.0755,0.0966 0.1758,0.2081 0.2476,0.3018 0.0087,0.0114 0.018,0.0237 0.0293,0.0337l0.6671 -0.3934c-0.0057,-0.0142 -0.0241,-0.0382 -0.0331,-0.0509 -0.0129,-0.0184 -0.0223,-0.0325 -0.0349,-0.0504l-0.2774 -0.4016c-0.0186,-0.0425 0.0759,-0.23 -0.0455,-0.4216 -0.0245,-0.0388 -0.1095,-0.1494 -0.143,-0.1948l-0.2175 -0.294c-0.0101,-0.0137 -0.0467,-0.0659 -0.0579,-0.0751 -0.0005,-0.0004 -0.0013,-0.0009 -0.0018,-0.0013 -0.0254,-0.0207 -0.0465,-0.0653 -0.1102,-0.0947 -0.0738,-0.0341 -0.1047,0.0027 -0.1311,0.0093 -0.0005,0.0007 -0.0012,0.0017 -0.0015,0.0022 -0.0004,0.0005 -0.0011,0.0015 -0.0015,0.0021l-0.003 0.0039c-0.0101,0.0124 -0.024,0.0188 -0.034,0.0449 -0.0105,-0.0056 -0.0073,-0.0058 -0.017,-0.0165 -0.1146,-0.1262 -0.2529,-0.0357 -0.2635,0.0676l-0.011 -0.0078c-0.0006,-0.0006 -0.0048,-0.005 -0.0062,-0.0065 -0.0365,-0.0368 -0.0958,-0.0477 -0.144,-0.0288 -0.0343,0.011 -0.0586,0.0331 -0.0752,0.0561 -0.0253,0.0347 -0.0225,0.054 -0.022,0.1011 -0.0755,-0.1035 -0.2019,-0.0721 -0.2495,0.0062 -0.0241,0.0397 -0.0194,0.0547 -0.0154,0.1014 -0.0114,-0.0139 -0.2479,-0.3047 -0.259,-0.3246 -0.003,-0.0017 -0.0007,0 -0.0046,-0.0038l-0.0229 -0.0304c-0.0143,-0.0124 -0.0342,-0.0411 -0.0472,-0.0571 -0.0151,-0.0186 -0.0298,-0.037 -0.045,-0.0561 -0.0378,-0.0477 -0.044,-0.0665 -0.1092,-0.0923 -0.0446,-0.0023 -0.065,-0.0027 -0.1002,0.0173 -0.069,0.0394 -0.0959,0.1218 -0.042,0.1907l0.0239 0.0303z"/>
   <path class="fil1" d="M1.9309 4.9801c0.0007,-0.1031 0.0182,-0.2191 0.1363,-0.2057 0.1245,0.0142 0.057,0.2147 0.041,0.2382l-0.1374 -0.0212c-0.0244,-0.0039 -0.0337,-0.0014 -0.0399,-0.0113zm0.018 -0.2306c-0.0129,0.0163 -0.0263,0.0264 -0.0377,0.0525 -0.0094,0.0218 -0.0523,0.1819 -0.0603,0.2113 -0.0447,0.1633 -0.1069,0.3982 -0.1842,0.542 -0.0295,0.0548 -0.1131,0.1924 -0.1983,0.122 -0.0053,-0.1282 0.0081,-0.9213 -0.0038,-0.9358 -0.225,0.2726 -0.4086,0.5807 -0.4515,0.9496 -0.0524,0.451 0.0743,0.8391 0.067,0.9528 -0.0032,0.0503 -0.022,0.2995 -0.0194,0.3272 0.0408,0.0066 0.7245,0.111 0.7518,0.1091l0.0248 -0.4139c0.0338,-0.0151 0.0958,-0.0704 0.1158,-0.0952 0.0323,-0.0398 0.0567,-0.0717 0.0857,-0.1228 0.0396,-0.0696 0.1009,-0.2315 0.1052,-0.3098 0.0165,-0.0654 0.0172,-0.1487 0.0191,-0.2182 0.0005,-0.0602 -0.0081,-0.1297 -0.0205,-0.1856 -0.0229,-0.1034 -0.0396,-0.0821 -0.0302,-0.1628 0.0142,-0.1227 0.0276,-0.2406 0.0415,-0.3631 0.0068,-0.0599 0.0421,-0.3302 0.0385,-0.3673 -0.0083,-0.0846 -0.0915,-0.1365 -0.1721,-0.123 -0.0419,0.007 -0.0504,0.0214 -0.0714,0.031z"/>
   <path class="fil2" d="M4.9297 3.806l0.4812 0 0.0011 1.745c0.0482,-0.0189 0.1075,-0.008 0.144,0.0288 0.0014,0.0015 0.0056,0.0059 0.0062,0.0065l0.011 0.0078c0.0106,-0.1033 0.1489,-0.1938 0.2635,-0.0676 0.0097,0.0107 0.0065,0.0109 0.017,0.0165 0.01,-0.0261 0.0239,-0.0325 0.034,-0.0449l0.003 -0.0039c0.0004,-0.0006 0.0011,-0.0016 0.0015,-0.0021 0.0003,-0.0005 0.001,-0.0015 0.0015,-0.0022 -0.007,-0.0167 -0.0017,-1.0389 -0.0017,-1.1529 0.024,-0.0054 0.9,-0.0017 1.0184,-0.0017 0.0199,0 0.0522,0.0043 0.0671,-0.0026l-1.0854 -0.0016 0 -0.1393c0.04,-0.0102 1.0514,0.0077 1.0787,-0.0043l-1.0788 -0.0016 0.0001 -0.3059 0 -0.1448c0.0259,-0.0002 0.1737,0.0044 0.1828,-0.0042 -0.0316,-0.0036 -0.1409,0.0057 -0.1829,0.0001 0,-0.0591 -0.0204,-0.0914 -0.0518,-0.1151 -0.0384,-0.0289 -0.0791,-0.027 -0.1359,-0.027 -0.0508,0 -0.626,-0.0037 -0.6602,0.0016 -0.0468,0.0074 -0.0796,0.0348 -0.0972,0.0669 -0.0266,0.0484 -0.0111,0.093 -0.0172,0.1485z"/>
   <path class="fil2" d="M1.1704 3.7328c0.0191,0.0083 0.253,0.0017 0.2971,0.0029l-0.0004 0.143 0.0005 0.3094 -1.0826 -0.0004c0.0279,0.0121 0.9212,-0.0036 1.082,0.003l-0.0008 0.1427c0.0048,0.0308 0.0033,0.3949 -0.0016,0.4081 0.0119,0.0145 -0.0015,0.8076 0.0038,0.9358 0.0852,0.0704 0.1688,-0.0672 0.1983,-0.122 0.0773,-0.1438 0.1395,-0.3787 0.1842,-0.542 0.008,-0.0294 0.0509,-0.1895 0.0603,-0.2113 0.0114,-0.0261 0.0248,-0.0362 0.0377,-0.0525l-0.0009 -0.9426 0.4816 -0.0006c-0.0037,-0.0552 0.0089,-0.1057 -0.0168,-0.1506 -0.0173,-0.0301 -0.0518,-0.0591 -0.0986,-0.0655 -0.0349,-0.0047 -0.6093,-0.0012 -0.6607,-0.0012 -0.0623,0 -0.0934,-0.0018 -0.1367,0.0293 -0.0293,0.021 -0.049,0.0603 -0.0493,0.1153l-0.2971 -0.0008z"/>
   <path class="fil1" d="M2.8292 4.2614l0.0636 0.0009 0 0.2c0.0023,0.0076 0.0462,0.0286 0.0322,0.078 -0.0073,0.0253 -0.0315,0.0466 -0.0654,0.0463 -0.0698,-0.0007 -0.0908,-0.0876 -0.0317,-0.1205l0.0013 -0.2047zm-0.4349 0.2252l0.1321 -0.0003 0 0.0718 -0.1321 -0.0002c0.0048,0.0827 0.0388,0.1627 0.085,0.2247 0.0178,0.0239 0.0304,0.0355 0.0502,0.0571 0.0605,0.0659 0.1931,0.1256 0.2941,0.1289l-0.0008 -0.1258 0.074 -0.0009 0.0001 0.1259c0.0475,0.0027 0.1305,-0.0244 0.1674,-0.0419 0.0564,-0.0267 0.0875,-0.0516 0.1257,-0.0858 0.0541,-0.0483 0.1355,-0.1675 0.1362,-0.2822l-0.1319 0.0002 0 -0.0719 0.1317 0.0004c0.0008,-0.1125 -0.0824,-0.2338 -0.1361,-0.2821 -0.0348,-0.0313 -0.0717,-0.0613 -0.1236,-0.0848 -0.0432,-0.0195 -0.1147,-0.0439 -0.1697,-0.0431l0.0001 0.1258 -0.0738 -0.0008 -0.0003 -0.1263 -0.0135 0.0018c-0.1224,0.0138 -0.22,0.0701 -0.2831,0.1305 -0.0565,0.0542 -0.1252,0.1605 -0.1317,0.279z"/>
   <path class="fil2" d="M6.6926 2.2962c0.0446,-0.0001 0.2692,-0.0032 0.2947,0.0025 0.103,0.0232 0.083,0.1297 0.083,0.2123l0 1.484c0,0.0443 0.0068,0.1001 -0.0111,0.1361 -0.0125,0.0251 -0.0483,0.0583 -0.0884,0.0564 -0.0273,0.012 -1.0387,-0.0059 -1.0787,0.0043l0 0.1393 1.0854 0.0016c0.1087,-0.0015 0.1941,-0.0797 0.2256,-0.1557 0.0232,-0.0561 0.018,-0.1107 0.018,-0.1757l0 -1.5408c0,-0.0673 0.0026,-0.1135 -0.0253,-0.1685 -0.0406,-0.0799 -0.1225,-0.1403 -0.2443,-0.1407 -0.1276,-0.0005 -1.4307,0.0094 -1.5581,0.0116l0 0.1462 1.2992 -0.0129z"/>
   <path class="fil2" d="M0.138 2.3796l0 1.7274c0.0093,0.0199 0.0112,0.0527 0.0214,0.0749 0.0289,0.0632 0.0817,0.1147 0.155,0.1384 0.0733,0.0236 0.2855,0.0132 0.3761,0.0132 0.258,0 0.518,0.0031 0.7757,-0.0001l0.0008 -0.1427c-0.1608,-0.0066 -1.0542,0.0091 -1.082,-0.003 -0.0403,-0.0028 -0.0697,-0.0296 -0.0837,-0.0561 -0.0174,-0.0332 -0.0112,-0.0839 -0.0112,-0.124l0 -1.364c0,-0.053 -0.0068,-0.229 0.0028,-0.2678 0.0224,-0.0909 0.1225,-0.0841 0.1867,-0.0835 0.0039,0 1.5512,-0.0018 1.5548,-0.0018l0.0002 -0.1448c-0.0049,0 -1.5532,0.0019 -1.5578,0.0019 -0.0939,-0.0002 -0.1622,0.0034 -0.2311,0.0512 -0.0999,0.0695 -0.0951,0.1529 -0.1077,0.1808z"/>
   <polygon class="fil1" points="2.393,5.4883 2.4049,5.4894 3.6521,5.4892 3.6645,5.4886 3.6647,5.3017 2.393,5.3008 "/>
   <path class="fil0" d="M0.9268 3.654c0.0141,0.1088 0.0817,0.1782 0.1694,0.2099 0.0691,0.0249 0.2829,0.015 0.3709,0.0148l0.0004 -0.143c-0.0441,-0.0012 -0.278,0.0054 -0.2971,-0.0029 -0.0419,-0.0029 -0.0929,-0.0455 -0.0902,-0.0859 -0.0098,-0.0128 -0.0043,-0.0759 -0.0043,-0.0971l0 -0.3031c0,-0.0773 0.0041,-0.152 -0.0002,-0.2052l-0.1498 0 0.0009 0.6125z"/>
   <path class="fil0" d="M6.1612 3.6484c0.0032,0.0366 -0.0483,0.0833 -0.0863,0.0826 -0.0091,0.0086 -0.1569,0.004 -0.1828,0.0042l0 0.1448c0.1009,-0.0134 0.215,0.0267 0.3179,-0.0488 0.0996,-0.073 0.1061,-0.1481 0.1061,-0.2593 0,-0.121 0,-0.2421 0,-0.3631 0,-0.1195 0.0043,-0.2471 -0.0003,-0.3655l-0.1493 0.0004c-0.0046,0.0609 -0.0005,0.1383 -0.0005,0.2009l-0.0048 0.6038z"/>
   <path class="fil2" d="M2.144 6.1385c0.0753,-0.0072 0.1701,0.0158 0.2274,-0.0238 0.0664,-0.0459 0.0575,-0.0959 0.0575,-0.1945l-0.2658 0.0001c-0.0019,0.0695 -0.0026,0.1528 -0.0191,0.2182z"/>
   <path class="fil2" d="M1.9309 4.9801c0.0062,0.0099 0.0155,0.0074 0.0399,0.0113l0.1374 0.0212c0.016,-0.0235 0.0835,-0.224 -0.041,-0.2382 -0.1181,-0.0134 -0.1356,0.1026 -0.1363,0.2057z"/>
   <path class="fil2" d="M4.5393 5.5293c0.0089,-0.0038 0.1252,-0.0899 0.132,-0.0977 -0.0153,-0.0422 -0.1124,-0.1907 -0.197,-0.1218 -0.0881,0.0718 0.0084,0.1793 0.065,0.2195z"/>
   <path class="fil3" d="M2.8279 4.4661c-0.0591,0.0329 -0.0381,0.1198 0.0317,0.1205 0.0339,0.0003 0.0581,-0.021 0.0654,-0.0463 0.014,-0.0494 -0.0299,-0.0704 -0.0322,-0.078l0 -0.2 -0.0636 -0.0009 -0.0013 0.2047z"/>
   <path class="fil2" d="M4.7244 6.6674c0.0109,0.006 -0.0009,-0.0385 -0.0031,-0.0444 -0.0157,-0.0438 -0.0454,-0.0627 -0.0911,-0.0793 -0.0587,-0.0214 -0.1108,-0.0443 -0.177,-0.0549 -0.0206,0.0237 -0.0124,0.0649 0.006,0.0869 0.0164,0.0195 0.0499,0.0272 0.0808,0.036 0.0582,0.0167 0.1289,0.0349 0.1844,0.0557z"/>
   <polygon class="fil3" points="2.3943,4.5579 2.5264,4.5581 2.5264,4.4863 2.3943,4.4866 "/>
   <polygon class="fil3" points="3.3262,4.5579 3.326,4.4866 3.1943,4.4862 3.1943,4.5581 "/>
   <path class="fil3" d="M2.8236 4.9686c0.0188,0.0013 0.056,0.0039 0.0733,-0.0008l-0.0001 -0.1259 -0.074 0.0009 0.0008 0.1258z"/>
   <path class="fil2 str0" d="M0.5033 2.4231l-0.0011 0.057c0.123,0.0009 0.6975,0.0099 0.7391,-0.0065 0.0026,-0.001 0.0051,-0.0027 0.0075,-0.0039 0.0849,-0.041 0.2632,-0.0207 0.3679,-0.0207l0.9387 0c0.0351,-0.0002 0.0832,-0.005 0.1107,0.006 0.0474,0.019 0.0046,0.0254 0.096,0.0263 0.7076,0.007 1.4302,-0.0066 2.1449,-0.0004l-0.0014 -2.394c-1.4485,0.0118 -2.9479,0.0004 -4.4021,0.0004l-0.0002 2.3358z"/>
   <path class="fil1 str0" d="M5.2294 1.9101c0.0148,-0.0064 0.3162,-0.0346 0.3225,0.0242 0.0055,0.0514 -0.3228,0.0219 -0.3281,0.0204l0.0056 -0.0446zm-0.0371 -0.9491c0.1653,-0.0014 0.314,-0.0074 0.4845,-0.0074 0.2021,0 0.2828,-0.0297 0.3942,0.0822 0.1106,0.1111 0.2865,0.4629 0.2905,0.6749l-1.149 0.0029 -0.0202 -0.7526zm-0.2311 -0.186c0,0.1747 0.0128,1.7565 -0.0047,1.7875 -0.0502,-0.0238 -0.0385,-0.0329 -0.0655,-0.0666l-2.1674 -0.0004c0.0346,0.1271 0.2119,0.1818 0.211,0.3307 -0.0003,0.0634 0.0008,0.1271 -0.0015,0.1905l2.0958 -0.0007c-0.0106,-0.1242 0.0485,-0.2466 0.1237,-0.3316 0.0505,-0.0573 0.0373,-0.0296 0.0373,-0.1281l0.1243 -0.0021c-0.063,0.0531 -0.0973,0.0731 -0.1417,0.1506 -0.0618,0.1077 -0.0806,0.174 -0.0696,0.3006 0.1162,0.0276 0.0762,-0.0413 0.0972,-0.1323 0.0972,-0.4202 0.7121,-0.4165 0.8055,-0.0058 0.0176,0.0776 -0.0092,0.1487 0.0969,0.1487l0.7531 0c0.11,0 0.0804,-0.0703 0.0804,-0.3092 0,-0.0912 -0.0029,-0.0955 -0.0875,-0.0975l0.0001 -0.5246c0,-0.0736 -0.0983,-0.2667 -0.1308,-0.3224 0.1213,-0.0032 0.2657,0.0302 0.2904,-0.0712 0.0132,-0.0539 -0.0058,-0.1151 0.0075,-0.1683 0.0132,-0.0524 0.0365,-0.0358 0.0365,-0.1584 0,-0.2841 -0.2591,-0.0937 -0.1483,0.1157 0.011,0.0208 0.0189,0.0234 0.023,0.0492 0.0069,0.0429 0.004,0.106 -0.0026,0.1435l-0.2434 0.0032c-0.0329,-0.0392 -0.2315,-0.4923 -0.2794,-0.5899 -0.2148,-0.4371 -0.1782,-0.4021 -0.8229,-0.4021l-0.5246 -0.0008c-0.0843,0.0003 -0.0928,0.0082 -0.0928,0.0918z"/>
   <path class="fil2 str0" d="M5.1923 0.961l0.0202 0.7526 1.149 -0.0029c-0.004,-0.212 -0.1799,-0.5638 -0.2905,-0.6749 -0.1114,-0.1119 -0.1921,-0.0822 -0.3942,-0.0822 -0.1705,0 -0.3192,0.006 -0.4845,0.0074z"/>
   <path class="fil1" d="M1.0382 2.7723l0.0012 0.2384 0.0897 0.0061c0.0036,-0.299 -0.0257,-0.1889 0.0888,-0.3377 0.0153,-0.0199 0.016,-0.027 0.0375,-0.0497 0.0196,-0.0206 0.0235,-0.0263 0.0413,-0.0461 0.0161,-0.0181 0.0229,-0.0288 0.0581,-0.0288l1.2224 0c0.0745,0 0.0727,0.0298 0.0932,0.0582 0.0014,0.002 0.0033,0.0046 0.0048,0.0065l0.0836 0.1023c0.0359,0.0423 0.0577,0.0435 0.0593,0.1154 0.0014,0.058 -0.0028,0.1152 0.0009,0.1738l0.0814 0.0066c-0.0253,-0.3502 0.0692,-0.1841 -0.1256,-0.4207 -0.144,-0.175 -0.0767,-0.1341 -0.4159,-0.1341 -0.3606,0 -0.7238,-0.0042 -1.0841,0.0006 -0.0112,0.0157 -0.0147,0.0194 -0.0279,0.0389l-0.1537 0.1842c-0.0207,0.027 -0.0549,0.0556 -0.055,0.0861z"/>
   <path class="fil1" d="M0.5663 2.8432l0.1474 -0.0006 0.0003 -0.2579 0.126 0.0001c-0.0056,0.296 -0.0295,0.2065 0.0691,0.3704 0.0347,0.0576 0.0255,0.0602 0.0994,0.0603 0.0021,-0.0594 0.0016,-0.1189 0.0009,-0.1782 -0.0011,-0.0965 0.0413,-0.1285 0.128,-0.2281l0.0333 -0.0432c0.0326,-0.0365 0.0348,-0.0201 0.0463,-0.0706l-0.6528 0.0001 0.0021 0.3477z"/>
   <path class="fil2" d="M2.0012 2.9659l0.1459 -0.0017c0.0345,-0.1132 0.0427,-0.1486 0.1359,-0.2025 0.0818,-0.0472 0.1941,-0.0309 0.2527,0.0202 0.0248,0.0216 0.0566,0.0485 0.073,0.0878 0.0311,0.0746 -0.008,0.0942 0.0771,0.0963 0.0618,0.0016 0.1097,0.014 0.104,-0.041 -0.0209,-0.2036 -0.2302,-0.4053 -0.497,-0.3397 -0.1665,0.0409 -0.3189,0.2263 -0.2916,0.3806z"/>
   <path class="fil2" d="M1.1634 2.9638l0.1409 0c0.0162,-0.0367 0.012,-0.0556 0.029,-0.0931 0.0661,-0.1461 0.2645,-0.1875 0.3848,-0.0678 0.0682,0.0679 0.0383,0.0929 0.0797,0.1594l0.1406 0.002c0.0642,-0.2218 -0.3564,-0.5843 -0.6677,-0.2753 -0.048,0.0476 -0.141,0.1695 -0.1073,0.2748z"/>
   <path class="fil2" d="M5.2198 2.9632l0.1362 0.0014 0.0445 -0.1207c0.0243,-0.047 0.0491,-0.0569 0.0915,-0.0826 0.0992,-0.0601 0.2552,-0.0328 0.3268,0.109 0.0344,0.0684 -0.0057,0.092 0.0755,0.0956 0.0782,0.0035 0.1677,0.0125 0.0625,-0.1791 -0.1318,-0.2398 -0.4599,-0.3025 -0.6618,-0.0683 -0.0373,0.0431 -0.091,0.159 -0.0871,0.2085 0.0031,0.0402 -0.0018,0.0158 0.0119,0.0362z"/>
   <path class="fil2" d="M1.9459 2.9779l-0.1552 -0.001c-0.0234,0.1351 -0.0954,0.228 -0.2395,0.2287 -0.0793,0.0004 -0.1324,-0.0288 -0.1702,-0.0666 -0.0228,-0.0228 -0.0359,-0.0399 -0.0486,-0.0715 -0.0157,-0.039 -0.0131,-0.0628 -0.0322,-0.0891l-0.1444 -0.0022c-0.0007,0.375 0.4415,0.5022 0.6705,0.2785 0.0626,-0.0611 0.115,-0.1472 0.1196,-0.2768z"/>
   <path class="fil2" d="M6.0006 2.9909c-0.0404,-0.0258 -0.1107,-0.015 -0.1575,-0.0144 -0.0305,0.3034 -0.4461,0.3156 -0.4794,0.0002l-0.154 0.0014c-0.014,0.0996 0.0485,0.2055 0.1131,0.2682 0.0779,0.0756 0.129,0.1153 0.2776,0.1159 0.1832,0.0009 0.2943,-0.0846 0.3638,-0.2286 0.0216,-0.0447 0.0347,-0.0887 0.0364,-0.1427z"/>
   <path class="fil2" d="M2.7928 2.9762l-0.1582 0.0013c-0.0328,0.1141 -0.0664,0.232 -0.254,0.228 -0.2243,-0.0048 -0.1946,-0.2177 -0.2509,-0.2295l-0.1349 0.0002c0.006,0.1164 0.044,0.1989 0.119,0.2706 0.0816,0.0781 0.1295,0.1151 0.2778,0.1154 0.2389,0.0005 0.3757,-0.1596 0.4012,-0.386z"/>
   <path class="fil1" d="M5.5618 2.7793c-0.265,0.0556 -0.167,0.4481 0.0901,0.3838 0.2433,-0.0609 0.1732,-0.4391 -0.0901,-0.3838z"/>
   <path class="fil1" d="M2.3511 2.7708c-0.2573,0.054 -0.1713,0.4513 0.0928,0.3854 0.0884,-0.0221 0.1738,-0.1219 0.1422,-0.2444 -0.0218,-0.0847 -0.1115,-0.1669 -0.235,-0.141z"/>
   <path class="fil1" d="M1.512 2.7792c-0.262,0.0365 -0.1809,0.4677 0.0982,0.3806 0.0887,-0.0277 0.1593,-0.1269 0.1323,-0.235 -0.0112,-0.0448 -0.0393,-0.087 -0.0774,-0.1145 -0.0476,-0.0344 -0.0833,-0.0409 -0.1531,-0.0311z"/>
   <path class="fil1" d="M1.975 2.8452c0.0376,-0.0269 0.0361,-0.1276 0.1566,-0.2121 0.014,-0.0098 0.0218,-0.0119 0.0377,-0.0209 0.0261,-0.0148 0.0234,-0.0117 0.039,-0.0299l-0.4782 -0.0022c0.0156,0.0243 -0.0028,0.0025 0.0171,0.0177 0.0065,0.0049 0.0145,0.0091 0.0192,0.0118 0.0157,0.009 0.0283,0.0158 0.0407,0.025 0.0285,0.021 0.0441,0.0369 0.0653,0.0601 0.0817,0.0895 0.0455,0.1228 0.1026,0.1505z"/>
   <path class="fil2" d="M5.2359 1.9097l-0.0056 0.0446c0.0053,0.0015 0.3336,0.031 0.3281,-0.0204 -0.0063,-0.0588 -0.3077,-0.0305 -0.3225,-0.0242z"/>
  </g>
 </g>
</svg>
